<?xml version="1.0" encoding="utf-8"?>
<!-- Generator: Adobe Illustrator 22.1.0, SVG Export Plug-In . SVG Version: 6.00 Build 0)  -->
<svg version="1.1" id="Layer_1" xmlns="http://www.w3.org/2000/svg" xmlns:xlink="http://www.w3.org/1999/xlink" x="0px" y="0px"
	 viewBox="0 0 103.6 94.3" style="enable-background:new 0 0 103.6 94.3;" xml:space="preserve">
<style type="text/css">
	.st0{fill:none;stroke:#D99E23;stroke-width:2;stroke-miterlimit:10;}
	.st1{fill:#D99E23;}
</style>
<g>
	<line class="st0" x1="102.6" y1="0" x2="102.6" y2="94.3"/>
	<path class="st1" d="M73,42.4c-0.1-0.8-0.4-1.2-0.8-1.6l-0.1-0.1c-0.2-0.2-0.3-0.6-0.4-0.9c-0.2-0.5-0.4-1.1-0.9-1.4
		c-0.5-0.4-1.2-0.6-2-0.6l-0.1,0c-0.2,0-0.3,0.1-0.5,0.1c0,0,0,0-0.1,0c0-0.1-0.1-0.2-0.2-0.3c-0.1-0.2-0.1-0.4-0.2-0.5l-0.1-0.2
		c-0.5-1.4-1.6-2.1-2.6-2.8l-0.3-0.2c0,0-0.1-0.1-0.2-0.1c0,0,0,0,0,0c0.1-0.1,0.3-0.2,0.4-0.3c0.1-0.1,0.2-0.1,0.3-0.2
		c0.2-0.2,0.4-0.3,0.6-0.5c0.2-0.1,0.3-0.2,0.4-0.3c0.5-0.4,0.9-0.9,1.3-1.4c0.2-0.2,0.4-0.5,0.6-0.7c0.6-0.7,1-1.5,1.4-2.7
		c0.3-1,0.5-2.2,0.4-3.5c-0.2-2.3-1.1-4-2.6-5.4c-0.2-0.2-0.4-0.3-0.6-0.5c-0.1-0.1-0.3-0.2-0.4-0.3L66,17.8
		c-0.3-0.3-0.7-0.6-1.1-0.8c-0.4-0.2-0.8-0.3-1.2-0.4c-0.3,0-0.5-0.1-0.6-0.1c0.3-0.1,0.6-0.3,0.9-0.4c0.2-0.1,0.3-0.2,0.5-0.3
		c0.2-0.1,0.4-0.2,0.6-0.3c0.5-0.2,1.1-0.4,1.6-0.8c0.1-0.1,0.2-0.2,0.2-0.4c0-0.2-0.1-0.3-0.2-0.4c-0.4-0.3-0.9-0.5-1.3-0.7
		c-0.2-0.1-0.3-0.1-0.5-0.2c-0.2-0.1-0.4-0.2-0.6-0.3c-0.4-0.2-0.8-0.4-1.2-0.6c-0.3-0.1-0.8-0.1-1.4-0.1c-0.2,0-0.3,0-0.5,0l-6.4,0
		c-2.2,0-3.9,0-5.4,0c0.3-0.2,0.6-0.4,0.9-0.6c0,0,0.1,0,0.2-0.1c0.3-0.1,0.9-0.3,0.8-0.8c0-0.4-0.4-0.6-0.6-0.6
		c-0.3-0.1-0.6,0-0.9,0.1c-0.1,0-0.2,0-0.3,0l-0.2,0c-0.3,0-0.5,0-0.7-0.1c-0.2,0-0.4-0.1-0.6-0.1c-0.4,0-0.7,0.2-0.9,0.3
		c-0.1,0.1-0.2,0.1-0.3,0.1l0,0c0,0-0.1-0.1-0.1-0.1c-0.1-0.1-0.3-0.3-0.6-0.4c-0.7-0.2-1.4,0-1.8,0.2c0-0.1,0-0.1,0-0.2
		c-0.1-0.9-0.6-1.2-1-1.5c0,0,0,0,0,0c0.1-0.2,0.3-0.5,0.3-0.9c0-0.8-0.6-1.5-1.2-1.8c-0.7-0.2-1.8-0.1-2.4,0.4
		c-0.1,0.1-0.2,0.2-0.2,0.2c0,0,0,0,0,0c0,0-0.1,0-0.2,0c-0.1,0-0.3-0.1-0.5-0.1c-0.5,0-0.8,0.2-1.1,0.3c0,0,0,0,0,0c0,0,0,0,0,0
		c-0.2-0.4-0.4-0.9-0.9-1.2c-0.4-0.1-0.8-0.1-1.3,0c-0.2-1.9-1.3-3.1-3.3-3.6c-0.1,0-0.2,0-0.3,0.1C32,1.9,32,2,32,2.2v0.1
		c0,0.1-0.1,0.2-0.1,0.2c-0.1,0.3-0.1,0.5,0,0.7c0,0.1,0.1,0.1,0.2,0.1c0.4,0.9,0.5,2.1,0.3,3.9c-0.7,0.2-1.6,0.6-1.6,1.7
		c0,0.7,0.4,1.3,1.2,1.6c0,0.1-0.1,0.2-0.2,0.3c-0.1,0.1-0.1,0.2-0.2,0.4c-0.5,0.2-1,0.5-1.4,0.8c-0.1,0.1-0.1,0.1-0.2,0.2
		c0,0-0.1,0.1-0.1,0.1c-0.2,0.1-0.7,0-1,0.1c-0.2,0-0.4,0.1-0.6,0.1c-0.2,0-0.3,0.1-0.5,0.1c-0.7,0.1-1.4,0-2.1-0.2l-0.2,0
		c-0.6-0.1-1.1-0.2-1.6-0.4c-0.2-0.1-0.3-0.2-0.5-0.3l-0.2-0.1c-0.3-0.2-0.7-0.5-1.1-0.5c-0.2,0-0.4,0-0.4,0.1V11c0-0.1,0-0.3,0-0.4
		c0-0.3,0.1-0.6,0.2-0.9c0.2-0.4,0.4-0.9,0.3-1.5c0-1-0.9-1.7-2.1-1.7c-0.8,0-1.8,0.3-2.2,1c-0.3,0.6-0.1,1.2,0.1,1.6
		c0.1,0.1,0.1,0.2,0.1,0.3c0.1,0.3,0.2,1,0.1,1.4c0,0,0,0.1-0.1,0.1c0,0-0.1,0-0.1-0.1c0-0.1-0.1-0.4-0.3-0.6
		C18,10,17.5,9.8,16.9,9.8c-0.4,0-0.8,0.1-1.1,0.3c-0.1,0.1-0.2,0.2-0.3,0.3c0,0,0,0,0,0c0,0,0,0,0,0c-0.3-0.3-0.7-0.5-1.1-0.5
		c-0.8,0-1.8,0.6-2.1,1.1c0,0.1-0.3,0.2-0.3,0.2c0,0,0,0,0,0c0,0,0-0.1,0-0.1c-0.7-0.2-1.2-0.1-1.6,0.4c-0.1,0.1-0.1,0.2-0.2,0.4
		c-0.1-0.1-0.2-0.2-0.3-0.2c-0.3-0.1-0.7-0.2-0.9-0.2c-0.9,0-1.7,0.3-2.3,1c-0.6,0.6-1,1.5-0.9,2.3c0,1.8,1.2,3.1,3.1,3.2
		c0,0,0,0,0,0c0.1,0.2,0.3,0.4,0.7,0.5c0,0,0.1,0,0.2,0c0.1,0,0.2,0,0.2,0c0,0,0,0,0,0c0,0,0.1,0.1,0.1,0.2c0.1,0.2,0.2,0.4,0.4,0.5
		c0.3,0.2,0.6,0.3,0.9,0.4c0.1,0,0.2,0,0.2,0.1c0,0.1,0,0.2,0.1,0.2c0,0.1,0.1,0.1,0.1,0.2c0,0,0,0-0.1,0.1
		c-0.2,0.2-0.4,0.5-0.4,0.9c0,0.4,0.3,0.6,0.5,0.8c-0.1,0.4-0.3,0.8-0.1,1.3c0.2,0.3,0.4,0.5,0.6,0.6c0,0.3,0,0.6,0,0.9
		c0,0.5,0,1,0,1.6c0,0.7,0.1,1.3,0.1,1.9l0.1,0.7c0.1,0.7-0.1,1.4-0.2,2.1l-0.1,0.4c-0.2,0.8-0.3,1.8,0,2.3c0.1,0.2,0.3,0.3,0.6,0.4
		c0,0,0.1,0,0.2,0c-0.1,0.5-0.2,1.2,0.2,1.7c0.1,0.2,0.3,0.3,0.6,0.4c0.1,0,0.1,0.1,0.2,0.1c0,0,0,0.1,0,0.1c0,0.1,0,0.2,0.1,0.3
		c0.1,0.4,0.3,0.8,0.6,1.1l0.1,0.1c0.2,0.3,0.6,0.8,1.1,0.8c0,0,0.1,0,0.1,0c0.4-0.1,0.6-0.4,0.6-0.7c0,0,0.1,0,0.1,0.1
		c0.1,0.1,0.3,0.1,0.4,0.1c0,0,0.1,0,0.1,0c0,0,0.1,0,0.1,0.1c0.1,0.1,0.3,0.2,0.6,0.2c0.1,0,0.2,0,0.3-0.1c0,0,0.1,0.1,0.1,0.1
		c0.2,0.2,0.4,0.4,0.6,0.6c0.1,0.1,0.2,0.2,0.3,0.2c0.1,0.1,0.2,0.1,0.2,0.2l0.2,0.1c0.1,0.1,0.2,0.1,0.3,0.2
		c0.1,0.1,0.1,0.2,0.2,0.3c0.1,0.3,0.3,0.6,0.7,0.8c0.2,0.1,0.3,0.1,0.5,0.1c0,0,0,0,0,0c0,0-0.1,0-0.1,0c-1.1,0.6-1.9,0.9-2.8,1.1
		c-0.3,0.1-0.6,0.2-0.9,0.2c-0.4,0.1-0.9,0.2-1.3,0.3c-0.3,0.1-0.7,0.1-1.1,0.1c-0.1,0-0.3,0-0.4,0c-0.4,0-0.9,0-1.1-0.1
		c-0.4-0.2-0.7-0.5-1-0.8c-0.2-0.3-0.4-0.5-0.7-0.8c-0.2-0.1-0.4-0.2-0.6-0.3c-0.1,0-0.3-0.1-0.4-0.2c-0.1-0.2,0-0.3,0-0.6
		c0.1-0.2,0.1-0.5,0.1-0.8c-0.3-1.4-2.2-1.7-3.3-1.1c-0.1,0.1-0.3,0.2-0.4,0.2c-0.1,0.1-0.2,0.1-0.2,0.2c0,0-0.1,0-0.1,0
		c-0.1,0-0.2,0-0.3,0c-1.2,0-2.4,1.1-3,2c-0.3,0.5-0.4,0.9-0.3,1.2c0.1,0.2,0.2,0.4,0.4,0.5c0.1,0,0.2,0.1,0.3,0.1
		c-0.2,0.1-0.5,0.3-0.6,0.6c-0.1,0.1-0.2,0.3-0.2,0.4c0,0.1-0.1,0.2,0,0.2c0,0-0.1,0-0.1,0.1c-0.1,0-0.2,0.1-0.3,0.1
		c-0.5,0.3-1.4,0.7-1.7,1.2C0.5,45.7,0,46.5,0,47.4v0.8c0,0.5,0.9,1,1.4,1c0.4,0,0.9-0.4,1.3-0.9l0.2-0.1C3,48,3.2,47.8,3.4,47.7
		c0,0,0,0,0,0c0,0.1,0.1,0.2,0.1,0.2c0.3,0.5,0.8,0.7,1.4,0.8c-0.1,0.2-0.2,0.4-0.1,0.7c0,0.3,0.2,0.5,0.4,0.7c0,0,0,0,0,0
		C5,50.2,5,50.3,4.9,50.4c-0.7,1-0.8,2.6-0.2,3.6c0.4,0.7,1,1.2,1.8,1.2c0.1,0,0.1,0,0.2,0C7.3,55,7.2,54.3,7.1,54l0-0.1
		c0-0.2-0.1-0.5-0.1-0.7c0-0.2,0-0.4,0.1-0.5c0.1,0.1,0.1,0.2,0.2,0.2c0.2,0.1,0.5,0.2,0.8,0.2c0.9,0,1.5-0.8,1.8-1.2
		c0.1-0.2,0.2-0.3,0.5-0.5c0.1-0.1,0.1-0.1,0.2-0.2c0.1-0.1,0.1-0.1,0.1-0.1c0,0,0.1,0,0.1,0c0.1,0,0.2-0.1,0.3-0.1
		c0.1,0,0.2-0.1,0.3-0.2c0.1,0,0.1-0.1,0.2-0.1c0,0,0.2,0,0.3,0c0.2,0,0.3,0,0.5,0c0.1,0,0.2,0,0.3-0.1c0,0,0,0,0.1,0
		c0,0,0,0.1,0,0.1c0,0.1,0.1,0.3,0.2,0.4c0.1,0.2,0.2,0.3,0.3,0.4c0,0,0.1,0.1,0.1,0c0,0.1-0.1,0.4-0.3,0.8
		c-0.2,0.3-0.4,0.5-0.6,0.7c-0.1,0-0.1,0.1-0.2,0.1c-0.2,0.1-0.6,0.2-0.6,0.6c0,0.2,0,0.4,0.2,0.6c0.2,0.3,0.7,0.4,1,0.4
		c1.2,0.1,1.9-0.5,2.4-1l0.1-0.1c0,0,0.1-0.1,0.1-0.1c0,0,0,0,0,0c0,0,0,0,0.1,0c0.1,0,0.2,0,0.3,0c1.5,0,1.8-1.5,2-2.5
		c0-0.2,0.1-0.4,0.1-0.6c0-0.1,0-0.1,0-0.2c0-0.1,0-0.1,0-0.2c0.1-0.1,0.4-0.4,0.5-0.4c0.2,0,0.6,0.1,0.7,0.1c0,0.1,0.1,0.3,0.2,0.4
		c0.2,0.3,0.5,0.6,0.9,0.8c0.2,0.1,0.6,0.3,0.9,0.3c0.4,0,0.7-0.2,0.8-0.5c0,0,0-0.1,0-0.1c0.1,0.1,0.3,0.1,0.4,0.1
		c0.4-0.1,0.6-0.4,0.7-0.7c0.4,0.5,1,1,1.8,1c0,0,0.1,0,0.1,0c0.5,0,0.8-0.3,1-0.5c0.2,0,0.7-0.1,0.8-0.5c0.1-0.5-0.3-0.8-0.4-0.9
		c0,0-0.1-0.1-0.1-0.1c0,0,0,0,0-0.1c0.1,0.1,0.2,0.2,0.3,0.2c0.1,0,0.7,0.5,1.2,0.5c0.4,0,0.6-0.2,0.7-0.6c0.1,0.1,0.3,0.1,0.4,0.2
		c0.2,0.1,0.5,0.1,0.8,0.1c0.1,0.1,0.4,0.3,0.7,0.4c0.4,0.1,0.9-0.1,1.2-0.4c0,0,0.1-0.1,0.1-0.1c0.1,0,0.2,0.1,0.4,0.1
		c0,0,0.1,0,0.1,0c0.1,0,0.2,0,0.2,0c0,0,0.1,0,0.2,0c0.2,0,0.5,0.1,0.8,0.1c0.3,0.1,0.6,0.2,1,0.1c0.7,0,0.9-0.5,1-0.7
		c0,0,0,0,0.1,0c0.2,0.1,0.4,0.2,0.8,0.2c0,0,0.1,0,0.1,0c0.3,0,0.5-0.2,0.7-0.3c0,0,0,0,0.1,0c0,0,0,0,0,0c0.1,0.1,0.2,0.1,0.4,0.2
		c0.3,0.1,0.5,0.1,0.8,0.1c0.1,0,0.3,0,0.4,0c1.6,0.3,3,0.9,4.4,1.5c0.2,0.1,0.5,0.2,0.7,0.3c-0.5,0.1-1,0.2-1.5,0.4
		c-0.9,0.3-1.7,0.6-2.6,1c-0.7,0.3-1.6,0.8-2.4,1.3c-0.2,0.2-0.4,0.3-0.6,0.5c-0.1,0.1-0.2,0.2-0.3,0.3c0,0-0.1,0-0.1,0.1
		c0.1-0.1,0.1-0.3,0.1-0.5c0-0.5-0.4-0.9-0.6-1c-0.7-0.5-2.3-0.4-3,0c-0.8,0.5-1.4,2.2-1,3.3c0.1,0.2,0.2,0.3,0.3,0.4l-0.3,0.1
		c0,0-0.4,0-0.4,0v0c0,0.1,0.2,0.1,0.2,0.2c-1.1,1.2-1.1,3.8,0,5.1c0.1,0.2,0.5,0.6,1,0.6c0,0,0.1,0,0.2,0c0,0,0,0,0,0
		c-0.2,0.2-0.3,0.3-0.5,0.5c-0.3,0.3-0.5,0.7-0.8,1l-0.3,0.5c-0.7,0.9-1.5,1.7-2.5,2.2c-1.2,0.7-2.6,0.9-3.7,0.7
		c-0.9-0.2-1.6-0.7-2-1.3c-0.1-0.1-0.1-0.2-0.2-0.3c-0.2-0.3-0.4-0.7-0.6-0.9c0,0-0.1-0.1-0.2-0.1c0,0-0.1-0.1-0.1,0
		c0-0.1,0-0.1-0.1-0.2c0-0.1,0-0.2-0.1-0.4c-0.5-1.2-1.5-1.7-2.7-1.5c-0.4,0.1-0.6,0.3-0.7,0.5c0,0-0.1,0.1-0.1,0.1
		c-0.1,0-0.2,0-0.4,0.1c-0.1,0-0.2,0-0.3,0c-1.6,0.2-2.6,0.8-3.1,1.9c-0.3,0.5-0.5,1-0.5,1.5c0,0.1,0.1,0.3,0.2,0.3
		c0.1,0.1,0.4,0.2,0.5,0.1c-0.2,0.1-0.3,0.2-0.5,0.3c-0.1,0.1-0.2,0.3-0.2,0.4c0,0,0,0.1,0,0.1c0,0-0.2,0-0.3,0
		c-0.1,0-0.3,0-0.5,0.1c-0.8,0.2-1.4,0.7-1.9,1.6c-0.3,0.6-0.5,1.1-0.5,1.8c0,0.2,0,1.9,1,1.9c0.5,0,0.7-0.5,0.8-0.7
		c0-0.1,0,0.6,0.1,0.5c0.2-0.3,0.4,0.2,0.8,0.2c0,0,0,0,0,0c0,0,0-0.6,0.1-0.6c0.1,0.1,0.2-0.1,0.3,0c0.3,0.2,0.6,0.2,0.9,0.2
		c0.1,0,0.3-0.1,0.3-0.1c0,0,0.1-0.1,0.1-0.1c0.1,0,0.2,0,0.3,0.1c0.1,0,0.2,0.1,0.3,0.1c-0.4,0.4-0.5,0.9-0.5,1.4
		c0,0.3,0.2,0.5,0.3,0.7c0,0,0,0.1,0.1,0.1c-0.1,0.1-0.2,0.2-0.2,0.3c-0.1,0.1-0.2,0.2-0.3,0.3c-0.1,0.2-0.2,0.3-0.2,0.5
		c0,0.1,0,0.1-0.1,0.2c0,0,0,0,0,0c-0.1,0-0.2-0.1-0.3-0.1c-0.4-0.1-0.8-0.2-1.2-0.2c-0.3,0-0.6-0.1-0.9-0.2c0-0.1,0-0.2,0-0.3
		c0-1.7-1.5-2.6-2.9-2.7c-1.4-0.1-2.6,0.7-3.2,2.2c-0.5,1.1-0.7,3-0.2,4.3c0.5,1.4,2.2,1.9,3.8,1.2c0.2-0.1,0.3-0.2,0.4-0.3
		c0.3-0.1,0.9,0.1,1.1,0.1c0.9,0.2,1.6,0.6,2.3,1c0.2,0.1,0.4,0.2,0.6,0.3l0.5,0.2c1.2,0.6,2.2,1.1,2.8,1.9c0.1,0.1,0.1,0.2,0.2,0.3
		c0.1,0.1,0.1,0.2,0.2,0.3c0.1,0.1,0.1,0.2,0.2,0.3c0,0.1,0.1,0.1,0.1,0.1c0,0.1-0.2,0.5-0.3,0.6l-0.1,0.1c-0.1,0.1-0.2,0.3-0.2,0.4
		c-0.1,0.2-0.2,0.3-0.3,0.5c-0.3,0.6-0.6,1.5-0.6,2.4c0,0.7,0.4,1.6,0.9,1.9c0.3,0.2,0.7,0.4,1.2,0.4c1.2,0,2.4-0.9,2.7-2.1
		c0.2-0.9-0.1-1.8-0.8-2.2C20.2,87,20.1,87,20,87c0,0,0-0.1,0.1-0.1l0.2-0.3c0,0,0-0.1,0.1-0.2c0.1,0.1,0.3,0.2,0.3,0.2
		c0.1,0.1,0.2,0.1,0.2,0.2c2,1.3,4.6,2.5,7.6,3.5c3.5,1.2,7.2,1.9,10.6,2.1c0.8,0,1.6,0.1,2.4,0.1c6.2,0,11.7-1.5,16.9-4.4
		c0.1-0.1,0.2-0.1,0.4-0.2c0.1-0.1,0.4-0.3,0.4-0.3c0,0,0.1,0.1,0.2,0.1c0.1,0.1,0.2,0.1,0.3,0.1c0.2,0.1,0.5,0.2,0.7,0.3
		c0,0,0.1,0,0.2,0.1c0.4,0.1,0.8,0.3,1.1,0.3c0.5,0,0.7-0.4,0.7-0.5c0.2-0.5-0.3-0.9-0.5-1.1c0,0-0.1-0.1-0.1-0.1
		c-0.3-0.2-0.4-0.5-0.5-0.8c0.6,0.1,1.1,0,1.5-0.4c0.4-0.4,0.5-1.2,0.4-2.2c0-0.1,0-0.3,0-0.4c0-0.1,0-0.3,0-0.3h0c0,0,0.1,0,0.2,0
		c0.1-0.1,0.2-0.2,0.3-0.4c0.2-0.4,0.3-0.8,0.4-1.2c0-0.1,0-0.1,0-0.2c0,0,0,0,0,0c0.1,0.1,0.3,0.2,0.5,0.2c0,0,0.1,0,0.1,0
		c0,0,0,0.1,0,0.1c0,0.1,0,0.2,0.1,0.3l0,0.1c0.1,0.3,0.2,0.5,0.1,0.9c0,0.1,0,0.2-0.1,0.4c-0.1,0.4-0.2,0.9,0,1.2
		c0.1,0.2,0.3,0.3,0.5,0.3c0.4,0.1,0.9-0.3,1.2-0.7c0.5-0.5,0.8-1,1.1-1.7c0.1-0.2,0.1-0.3,0.2-0.5c0-0.2,0.1-0.3,0.2-0.4
		c0,0,0.1,0,0.1-0.1c0.1-0.1,0.2-0.1,0.4-0.3c0.8-0.9,0.8-2.7,0-3.5c-0.2-0.2-0.4-0.3-0.5-0.4c-0.1,0-0.2-0.1-0.2-0.1
		c0-0.1-0.1-0.4-0.1-0.7c0-0.2,0-0.4,0.1-0.5c0.1,0,0.2,0,0.3,0c1.4,0,2.4-1.1,2.8-2.2c0.2-0.4,0.3-0.9,0.1-1.2
		c-0.1-0.1-0.2-0.3-0.3-0.3c0.1-0.2,0.2-0.5,0.2-0.8c0-0.2-0.1-0.3-0.2-0.4c0,0,0,0,0,0c0.1-0.1,0.2-0.2,0.3-0.3
		c0.2-0.3,0.3-0.7,0.3-1.1c0-0.1-0.1-0.3-0.2-0.3c-0.1,0-0.1-0.1-0.2-0.1c0.4-0.2,0.6-0.4,0.8-0.8c0.1-0.2,0.3-1-0.2-1.3
		c-0.2-0.2-0.6-0.1-0.8,0c0,0-0.1,0-0.1,0c-0.1,0-0.2-0.1-0.2-0.8c0.9-0.3,1.5-0.9,1.7-1.7c0-0.1,0-0.3,0-0.4c0-0.1,0-0.1,0-0.2
		c0-0.1,0-0.1,0-0.1c0.1-0.2,0.1-0.4,0.1-0.6c0-0.4-0.2-1-0.8-1c-0.4,0-0.6,0.3-0.7,0.4c0,0-0.1,0.1,0,0.1c-0.8,0.1-1.3-0.5-1.4-0.8
		c-0.1-0.1-0.1-0.3-0.1-0.5c0-0.2,0-0.3-0.1-0.5c-0.2-1.1-1.5-2.2-2.8-2.2c-0.7,0-1.6,0.3-2.1,0.7c-0.2,0.1-0.3,0.3-0.4,0.4
		c-0.1,0.1-0.2,0.2-0.3,0.3c-0.3,0.2-1,0-1.3-0.2c-0.1,0-0.2-0.2-0.3-0.4c-0.1-0.1-0.1-0.2-0.2-0.3c0,0,0-0.1-0.1-0.1c0,0,0,0,0,0
		c0.1-0.1,0.2-0.1,0.2-0.2c0.2-0.1,0.4-0.4,0.6-0.6c0.6-0.7,0.8-1.2,0.7-1.5c0-0.2-0.2-0.4-0.4-0.5c0,0-0.1,0-0.1-0.1
		c0.3-0.4,0.6-0.9,0.6-1.4c0-0.2-0.1-0.3-0.3-0.4c-0.1,0-0.2-0.1-0.3-0.1c0.1-0.1,0.1-0.2,0.2-0.4c0,0,0.1-0.1,0.1-0.1
		c0.1-0.2,0.3-0.5,0.3-0.9c0-0.2-0.1-0.3-0.3-0.4c0.1-0.2,0.2-0.4,0.3-0.7c0-0.1,0-0.3-0.1-0.4c-0.1-0.1-0.3-0.2-0.4-0.2
		c0.4-0.1,0.8-0.3,1.2-0.5l0.2-0.1c0.7-0.3,1.4-0.6,2-1.2c0.2-0.2,0.3-0.4,0.5-0.7c0.2-0.4,0.5-0.7,0.8-0.8c0.6-0.2,0.9,0,1,0.7
		c0,0.1,0,0.1,0,0.2c0,0.4,0.1,1,0.6,1.1c0,0,0.1,0,0.2,0c0.9,0,1.4-1.5,1.4-1.5c0.1-0.2,0.1-0.4,0.2-0.6c0,0,0.1,0,0.1,0
		c0,0,0.1,0,0.1,0c0.5,0,0.7-0.4,0.8-0.6c0.2-0.5,0.3-1.2,0.4-1.7c0.1-0.6,0.1-1.1-0.1-1.6c0.1,0.1,0.3,0.2,0.6,0.2
		c0.2,0,0.3-0.1,0.5-0.3C73,43.3,73,42.8,73,42.4z M70.6,41.7C70.6,41.7,70.6,41.7,70.6,41.7c-0.2,0-0.6,0-0.9,0.3c0,0,0-0.1,0-0.1
		c-0.4,0.1-0.7,0.2-1.1,0.2c-0.2,0-0.4-0.1-0.6-0.1c-0.5,0.1-0.6,0.9-0.1,1.1c0.5,0.2,1.1-0.1,1.8,0c0.8,0.1,1.2,0.8,1,1.7
		c-0.3,0-0.3-0.2-0.6-0.3c0,0-0.1,0-0.1,0c0,0,0,0,0,0c-0.5-0.1-1,0-1.5,0c-0.2,0-0.4-0.1-0.5-0.1c-0.7,0-1.3,1-0.4,1.2
		c0.4,0.1,0.8-0.2,1.2-0.1c0.8,0.2,0.9,1.9,0.4,2.5c-0.2-0.1-0.2-0.4-0.3-0.5c-0.3-0.5-0.9-0.8-1.5-0.8c-0.4,0-0.7,0.1-0.9,0.3
		c-0.3,0.2-0.6,0.5-0.8,0.8c-0.1,0.1-0.1,0.1-0.2,0.2c-0.1,0.1-0.3,0-0.4,0.1c0.1,0.2,0,0.5-0.1,0.6c0,0-0.1,0.1-0.1,0.1
		c0,0-0.1,0.1-0.2,0.1c-0.2,0-0.2-0.3-0.4-0.2c-0.1,0.1,0.1,0.4,0,0.6c-0.1,0-0.1,0.1-0.2,0.1c-0.2,0-0.1-0.3-0.3-0.4
		c-0.3,0.1-0.1,0.4-0.2,0.6c-0.1,0-0.2,0.1-0.2,0.1l-0.2,0.1c0,0,0,0,0,0c0,0,0,0,0,0c-0.1-0.2,0-0.5-0.2-0.6
		c-0.3,0.1-0.1,0.7-0.3,0.8c-0.1,0-0.1,0-0.2,0.1c0,0-0.1,0-0.1,0c-0.3,0,0-0.6-0.3-0.6c-0.3,0.1,0,0.7-0.4,0.7
		c-0.3,0-0.1-0.5-0.4-0.7c-0.3,0.1-0.1,0.5-0.2,0.7c-0.1,0.1-0.3,0.1-0.5,0.1c-0.1-0.1,0-0.5-0.2-0.5c-0.3,0-0.2,0.4-0.3,0.6
		c-1.2-0.1-2.4,0-3.4,0.4c-0.2,0.1-0.6,0.2-0.6,0.3c0,0.4,1.1,0.2,1.4,0.3c0.5,0.2,0.9,0.7,1.5,0.9c0.5,0.2,1,0.2,1.6,0.5
		c-0.1,0.2-0.5,0.3-0.8,0.4c-0.8,0.2-1.9,0.3-2.6-0.1c-0.1-0.1-0.3-0.3-0.5-0.3c-0.2,0-0.2,0.2-0.4,0.2c-0.3,0.1-0.6,0-0.9,0.1
		c-0.4,0.1-0.9,0.3-0.8,0.8c0.4,0,0.6-0.3,0.9-0.4c0.3-0.1,0.7-0.3,1.1-0.2c0.3,0,0.6,0.3,0.9,0.4c1.1,0.3,2.6,0.1,3.8,0.3
		c0,0.1-0.1,0.1-0.1,0.2c0,0,0,0.1-0.1,0.1c-0.2,0.2-0.5,0.4-0.7,0.5c-0.8,0.4-2.3,0.7-3.3,0.1c-0.2-0.1-0.3-0.4-0.6-0.4
		c-0.5,0.3-1,0.7-1.4,1.3c-0.1,0.2-0.3,0.5-0.1,0.6c0.2,0.1,0.6-0.6,0.7-0.7c0.2-0.2,0.4-0.6,0.7-0.7c0.2,0,0.5,0.3,0.7,0.4
		c0.3,0.2,0.6,0.1,0.8,0.4c0.7,0.2,1.6,0.5,2.5,0.2c0.2-0.1,0.4-0.2,0.7-0.1c0,0,0,0.1,0,0.1c0,0-0.1,0.1-0.1,0.1
		c-0.1,0.1-0.2,0.3-0.3,0.5c-0.8,0.7-2.3,1.2-3.3,0.6c-0.3-0.2-0.3-0.5-0.6-0.7c-0.2,0.1,0,0.3-0.1,0.6c-0.1,0.2-0.3,0.4-0.5,0.6
		c-0.1,0.1-0.4,0.8,0,0.8c0.2,0,0.3-0.4,0.3-0.5c0.1-0.2,0.2-0.5,0.4-0.5c0.2,0,0.3,0.2,0.5,0.3c0.7,0.3,1.5,0.1,2.1,0.4
		c0,0.3-0.3,0.3-0.2,0.6c-0.1,0.3-0.4,0.4-0.7,0.6c-0.2,0.2-0.5,0.6-0.2,0.9c0.2,0,0.3-0.3,0.4-0.5c0.1-0.2,0.3-0.4,0.4-0.5
		c0.3-0.3,0.5-0.6,0.9-0.3c0,0,0,0,0.1,0.1c0,0.2,0.2,0.3,0.3,0.5c0,0.1,0.1,0.1,0.1,0.2c0,0,0,0,0,0c0,0.1,0.1,0.2,0.1,0.3
		c0.2,0.3,0.6,0.5,0.9,0.7c0.6,0.3,1.3,0.5,1.9,0.1c0.7-0.4,1.1-1.3,2.3-1.3c0.4,0,1,0.2,1.1,0.6c-0.9,0-2.2,0-2.3,0.9
		c0.2,0.1,0.3-0.2,0.6-0.3c0.2-0.1,0.4-0.1,0.7-0.1c0.3,0,0.5-0.1,0.7-0.1c0.3,0.1,0.5,0.4,0.8,0.4c0.1,0.4,0.1,0.8,0.3,1.1
		c0.3,0.6,0.9,0.9,1.2,1.3c-1.3-0.2-1.2-2.1-2.7-2.1c-0.5,0-1.1,0.1-1,0.6c0.2,0.1,0.3-0.1,0.5-0.1c0.8-0.1,1.3,0.4,1.5,1
		c-0.2,0.1-0.3,0-0.5-0.1c-0.4-0.1-0.9,0-1.3,0.1c-0.2,0.1-0.4,0.2-0.6,0.3c-0.2,0-0.5-0.1-0.7-0.1c-0.9-0.1-1.5,0.4-1.8,0.9
		c0.3,0.2,0.6-0.3,1-0.4c0.3-0.1,0.8-0.2,1.2,0c0,0.5-0.5,0.5-0.8,0.6c-0.2,0.1-0.5,0.3-0.6,0.5c-0.2,0.2-0.4,0.4-0.5,0.6
		c0.2,0.2,0.5,0,0.6-0.2c0.2-0.1,0.3-0.3,0.5-0.4c0.3-0.2,0.9-0.3,1.3-0.1c0,0.2-0.2,0.2-0.3,0.3c0,0.4-0.4,0.4-0.8,0.5
		c-0.2,0.1-0.4,0.2-0.5,0.3c-0.2,0.2-0.5,0.3-0.4,0.7c0.4-0.1,0.5-0.4,0.9-0.6c0.4-0.1,0.8-0.1,1.1-0.3c0.1-0.1,0-0.2,0-0.4
		c0.7-0.2,1.4-0.5,2.2-0.5c1.3,0.1,1.7,1.2,1.9,2.4c0,0.2,0.2,0.4,0,0.5c-0.3-0.1-0.3-0.4-0.4-0.5c-0.3-0.6-1-1.2-2-1.1
		c-0.3,0-0.5,0.1-0.8,0.2c-0.2,0.1-0.4,0.2-0.7,0.3c-0.2,0-0.3,0-0.5,0c-0.3,0-0.6,0.3-0.8,0.4c-0.3,0.2-0.5,0.4-0.6,0.6
		c0.3,0.3,0.5,0,0.7-0.2c0.2-0.1,0.5-0.4,0.7-0.4c0.1,0,0.3,0,0.3,0c0.7,0,1.2-0.3,1.8-0.3c0.9,0,1.4,0.5,1.5,1.2
		c0,0.4-0.1,0.9,0.2,1.4c0.2,0.4,0.7,0.5,1,0.8c0,0,0,0,0,0c-0.2,0-0.4,0-0.6,0l-0.1,0c0,0,0,0,0,0c-0.2-0.1-0.2-0.3-0.3-0.5
		c-0.1-0.1-0.2-0.2-0.3-0.3c-0.4-0.6-0.7-1.3-1.7-1.4c-0.4,0-0.9,0.1-1.3,0.1c-0.2,0-0.2-0.1-0.4-0.1c-0.3,0-0.7,0.1-1,0.3
		c-0.2,0.1-0.6,0.3-0.4,0.7c0.4-0.1,0.7-0.5,1.3-0.5c0.2,0,0.4,0.1,0.6,0.1c0.7,0.1,1.5-0.1,1.9,0.3c0.7,0.6,0.5,1.9,1.2,2.6
		c0.2,0.2,0.5,0.3,0.8,0.5c0,0,0,0,0,0c0,0-0.1,0.1-0.1,0.1c-0.1,0.1-0.2,0.1-0.4,0.2c-0.3,0.1-0.7,0-0.9-0.3
		c-0.2-0.3-0.3-0.8-0.5-1.2c-0.5-0.7-1.5-1.9-2.7-1.1c0.1,0.3,0.4,0.2,0.6,0.2c0.5,0.1,0.8,0.3,1.1,0.7c0.2,0.2,0.4,0.4,0.6,0.5
		c0.1,0.1,0.1,0.3,0.1,0.4c0.1,0.2,0.2,0.4,0.3,0.6c0.3,0.6,0.6,1.4,1.6,1.4c0,0,0.1,0,0.1,0c0.2,0,0.4,0,0.5-0.1c0,0,0.1,0,0.1,0
		c-0.2,0.6-0.7,1.1-1.4,1.2c-0.2,0-0.7,0.1-0.9-0.1c-0.2-0.1-0.3-0.6-0.5-0.8c-0.3-0.3-0.8-0.6-1.2-0.6c-0.3,0-0.7,0.1-0.8,0.5
		c0.3,0.1,0.5-0.1,0.7-0.1c0.6,0,1.1,0.6,1.2,1.2c0.1,0.4-0.1,0.8-0.1,1.3c0,0,0,0,0,0c0,0,0,0.1,0,0.1c0,0,0,0.1,0,0.1c0,0,0,0,0,0
		c0,0.2,0,0.4,0.1,0.6c0,0,0,0.1,0,0.1c-0.5,0.3-1.2,0.4-1.4,0.9c0.2,0.2,0.4,0,0.6-0.1c0.3-0.1,0.6-0.3,1.1-0.2
		c0.5,0.1,1,0.6,1.1,1.1c0.1,0.5-0.1,1.5-0.4,1.5c-0.2,0-0.3-0.3-0.4-0.4c-0.1-0.1-0.4-0.4-0.7-0.4c-0.3,0-0.7,0.5-1.1,0.6
		c-0.3,0-0.5-0.1-0.5-0.3c-0.1-0.5,0.9-0.6,0.3-1.1c-0.6-0.1-0.7,0.6-1.2,0.7c-0.3,0.1-0.5-0.2-0.8-0.1c-0.3,0.1-0.2,0.5-0.2,0.8
		c0,0.7-0.2,1.2-0.3,1.8c0,0.1-0.1,0.3-0.2,0.5c0,0-0.1,0.1-0.1,0.1c0,0,0,0,0,0c0,0,0,0-0.1,0c-0.2,0-0.5-0.3-0.6-0.4
		c-0.2-0.1-0.5-0.3-0.9-0.3c-0.3,0-0.5,0-0.5,0.3c0,0.2,0.5,0.2,0.5,0.2c0.6,0.2,1.2,0.7,1.2,1.5c0,0.6,0.1,1.8-0.8,1.4
		c-0.4-0.7-0.6-1.7-1.8-1.4c-0.2,0-0.6,0.2-0.8,0.3c-0.3,0.2-0.4,0.4-0.6,0.4c-0.4,0-0.7-1-0.1-1.1c0.2,0,0.3,0.1,0.4,0.1
		c0.1,0,0.3-0.2,0.3-0.3c0-0.2-0.1-0.3-0.1-0.5c0-0.4,0.7-0.9,0.9-1.1c0.2-0.1,0.4-0.2,0.6-0.3c0.1-0.1,0.4-0.3,0.4-0.5
		c0-0.3-0.7-0.8-1.2-0.7c-0.2,0.1-0.6,0.7-0.7,0.9c-0.2,0.3-0.5,0.6-0.8,0.8c-0.1-0.2-0.1-0.6-0.3-1c-0.1-0.3-0.3-0.8-0.4-0.8
		c-0.3,0-0.3,0.5-0.1,0.7c-0.1,0-0.2-0.2-0.3-0.3c-0.1-0.1-0.2-0.2-0.4-0.3c-0.2-0.1-0.9-0.4-0.9,0c0,0.2,0.4,0.3,0.6,0.4
		c0.2,0.2,0.6,0.6,0.7,1.1c0.1,0.8-0.3,1.6-0.7,1.8c-0.4,0.2-1-0.1-1.1-0.4c0-0.2,0.1-0.4,0.2-0.6c0.3-0.7,0.2-1.5-0.5-1.8
		c-0.3-0.1-1.4-0.2-1.4-0.5c0-0.1,0.1-0.3,0.2-0.4c0.1-0.1,0.2-0.1,0.4-0.1c0.2,0,0.4,0,0.6,0c0.6-0.1,1-0.4,1.6-0.5
		c0.8-0.1,2.8,0.2,2.9-0.6c0-0.5-0.5-0.4-1-0.5c0-0.3,0.3-1.1-0.1-1.1c-0.3,0-0.2,1.1-0.4,1.3c-0.1,0.1-0.3,0.1-0.4,0
		c0-0.4,0.2-0.8,0.1-1.3c0-0.3-0.2-1.1-0.4-1.1c-0.2,0-0.1,0.4-0.1,0.6c0,0.8-0.1,1.7-0.6,2c-0.4,0.2-1.3,0.3-1.3-0.3
		c0.8,0,1.4-0.6,1.4-1.4c0-0.6-0.4-1.1-0.7-1.4c-0.3-0.2-0.7-0.4-0.5-0.9c0.1-0.3,0.5-0.5,0.9-0.5c0.7,0.1,1.2,0.6,1.8,1
		c0.6,0.4,1.3,0.8,1.9,0.8c1.5,0.2,1.4-1.3,1.4-2.6c0-0.5,0-0.9,0-1.4c-0.1-2.2-0.2-4.4-1.4-5.7c-0.6-0.6-1.4-1.1-2.1-1.4
		c-0.1-0.1-0.3-0.1-0.4-0.2c-0.4-0.2-0.8-0.4-1.2-0.5c-0.7-0.2-1.5-0.3-2.1,0.1c-0.8,0.6-1.1,2-0.7,3.3c0.1,0.2,0.2,0.4,0.3,0.7
		c-0.4-0.1-0.8-0.2-0.9-0.6c-0.3-0.6,0.2-1.4,0-2c-0.6,0-0.7,1-1.3,1.1c-0.8,0.1-1.6-0.4-1.5-1.2c0.3,0.3,0.5,0.7,1,0.7
		c0.5,0,0.9-0.4,1.2-0.7c0.1-0.2,0.3-0.4,0.1-0.6c-0.5,0.1-0.6,1-1.3,0.9c-0.2,0-0.4-0.1-0.4-0.4c0.1-0.2,0.4-0.1,0.5-0.2
		c1.2-0.3,1.8-1.5,1.7-3.1c-0.1-1.6-1.4-2.5-1.9-3.8c-0.2-0.5-0.4-1-0.4-1.5c0-0.1,0-0.3,0-0.3c0-0.2-0.1-0.3-0.2-0.4
		c-0.2-0.6-0.2-1.2-0.4-1.8c-0.6-1.7-1.7-2.5-3.4-3.2c-1.5-0.6-3.2-1.3-4.7-1.9c-0.3-0.1-0.5-0.2-0.8-0.3c-0.3-0.1-0.6-0.1-0.9-0.2
		c-0.1-0.1-0.2-0.3-0.4-0.4c-0.2,0-0.5,0.3-0.6,0c-0.1-0.2,0.2-0.3,0.1-0.5c-0.5-0.4-0.5,0.5-0.8,0.6c-0.2,0-0.3-0.1-0.3-0.2
		c-0.2-0.5,0.5-0.9,0.4-1.3c-0.1-0.4-0.6,0.1-0.6,0.3c-0.1,0.2-0.2,0.4-0.3,0.6c-0.1,0-0.4,0.1-0.5,0c-0.1-0.4,0.1-0.6,0.3-0.9
		c0.1-0.1,0.5-0.8,0.1-0.9c-0.2,0-0.2,0.3-0.3,0.4c-0.2,0.3-0.6,0.7-0.7,1.2c0,0.2,0.1,0.5,0,0.6c-0.3-0.1-0.7-0.3-0.7-0.6
		c-0.1-1,1.1-1.5,1.2-2.4c0-0.3-0.1-0.6-0.2-0.6c-0.2,0-0.2,0.3-0.2,0.5c-0.3,0.6-1.2,1.2-1.3,2c0,0.1,0,0.3,0,0.4
		c0,0.2-0.2,0.6-0.4,0.7c-0.3,0.1-0.5-0.5-0.4-0.8c0.2-0.9,1-1.6,1.3-2.4c0.1-0.3,0.2-1-0.2-1.2c-0.3,0.1-0.1,0.4-0.2,0.6
		c-0.2,1.2-1.5,2-1.6,3.2c0,0.3,0.1,0.5,0.1,0.8c-0.6,0-1-0.5-0.8-1.2c0.2-1,1.4-2,1.4-3.1c0-0.2-0.1-0.4-0.1-0.5
		c0-0.1,0.2-0.3,0.3-0.4c0.1-0.2,0.5-0.3,0.4-0.5c0-0.3-0.4-0.1-0.5-0.1c-0.3,0.2-0.6,0.5-0.6,0.8c0,0.2,0.1,0.5,0,0.7
		c-0.2,0.6-0.7,1.2-1,1.8c-0.2,0.3-0.3,0.6-0.4,0.9c-0.1,0.3-0.1,0.7-0.3,1c-0.4-0.2-0.2-0.6-0.2-0.9c0.1-0.3,0.2-0.6,0.3-0.9
		c0.2-0.6,0.6-1.5,0.4-2c-0.1-0.3-0.4-0.4-0.2-0.8c0-0.2-0.3-0.1-0.4-0.2c0-0.6,0.6-0.8,0.7-1.4c0,0-0.1,0-0.1-0.1
		c-0.6,0.1-0.7,0.8-1,1.2c-0.2,0.2-0.5,0.4-0.8,0.5c-0.2-0.6,0.2-1.1,0.6-1.4c0.1-0.1,0.4-0.2,0.4-0.4c0-0.3-0.4-0.1-0.6,0
		c-0.2,0.1-0.4,0.4-0.4,0.4c-0.3,0.4-0.9,1.3-0.2,1.5c-0.2,0.5,0.3,0.6,0.4,0.9c0.1,0.6-0.4,1.4-0.6,1.8c-0.2,0.3-0.3,0.6-0.4,0.8
		c-0.1,0.3-0.3,0.5-0.4,0.8c-0.1,0.2-0.1,0.4-0.2,0.4c-0.3,0.1-0.5-0.4-0.5-0.7c0.1-1,1.2-1.7,0.9-3c0-0.1-0.1-0.3-0.1-0.4
		c0-0.3,0.4-0.4,0.4-0.7c-0.2-0.3-0.5,0-0.6,0.2c-0.1,0.2-0.3,0.4-0.3,0.7c0,0.2,0.2,0.3,0.3,0.5c0.1,0.3-0.1,0.8-0.1,1
		c-0.1,0.3-0.2,0.5-0.5,0.6c-0.1-0.3,0-0.7-0.1-1.1c0-0.1-0.1-0.3-0.2-0.4c-0.1-0.7,0.3-1.4,0.9-1.5c0-0.5,0.4-0.8,0.7-1.1
		c0.2-0.2,0.5-0.4,0.3-0.8c-0.3,0.1-0.6,0.5-0.8,0.7c-0.2,0.2-0.5,0.5-0.6,0.9c-0.4,0.3-0.7,0.6-0.9,1.3c0,0.1-0.1,0.3-0.1,0.4
		c0,0.2,0.3,0.4,0.3,0.6c0.1,0.6-0.2,0.9-0.5,1.3c-0.2,0.3-0.4,0.6-0.6,0.6c0-0.6,0.2-1,0.1-1.4c0-0.2-0.1-0.3-0.1-0.5
		c0-0.2,0.1-0.5,0.1-0.7c0.2-0.5,0.6-0.8,0.7-1.2c0-0.1,0-0.2,0-0.3c0.1-0.4,0.3-0.9,0.5-1.1c0.1-0.1,0.5-0.1,0.4-0.3
		c-0.1-0.3-0.7,0.1-0.7,0.1c-0.2,0.2-0.6,0.7-0.6,1c0,0.1,0.1,0.3,0.1,0.4c0,0.3-0.4,0.6-0.6,0.8c-0.1,0.2-0.4,0.7-0.4,1
		c0,0.3,0.1,0.6,0.1,1c0,0.5-0.3,0.9-0.5,1.3c-0.4,0.5-1.2,1-1.1,2c0,0.2,0.2,0.4,0.2,0.6c-0.1,0-0.1,0.1-0.1,0.1c0,0,0,0,0,0
		c-0.4,0-0.6-0.5-0.5-1c0.2-0.6,0.6-0.9,0.9-1.5c0.1-0.3,0.2-0.6,0.2-1c0-0.3-0.2-0.6-0.2-1c0-0.4,0.4-1.2,0.5-1.5
		c0.1-0.2,0.4-0.2,0.4-0.4c-0.3-0.3-0.6,0.1-0.8,0.3c-0.2,0.3-0.3,0.7-0.5,0.9C25.2,44.8,25,44.9,25,45c0,0.1,0.1,0.4,0.2,0.5
		c0.1,0.3,0.1,1.1,0,1.4c-0.2,0.7-1,1.2-1.1,2.1c0,0.2,0,0.4-0.1,0.6c-0.1,0-0.2,0-0.2-0.1c0,0-0.1-0.1-0.1-0.1c0-0.1,0-0.1,0-0.2
		c0-0.1-0.1-0.3-0.2-0.4c0-0.1,0-0.2,0-0.3c0-0.3,0.3-0.6,0.3-1c0-0.3,0-0.8-0.1-1.2c0-0.1-0.2-0.3-0.2-0.4c0-0.3,0.1-1.1-0.2-1.1
		c-0.3,0-0.1,0.4-0.1,0.6c0,0.2-0.1,0.5,0,0.7c0,0.2,0.2,0.3,0.3,0.5c0.1,0.4,0,1-0.1,1.3c-0.1,0.4-0.5,0.6-0.8,0.9
		c-0.2,0.1-0.2,0.4-0.5,0.4c0-0.3,0.2-0.6,0.3-0.9c0.1-0.3,0.3-0.6,0.1-0.9c-0.4,0.1-0.4,0.5-0.6,0.8c-0.3,0.5-1,0.6-1.3,1
		c-0.1,0.2-0.1,0.4-0.2,0.5c-0.3-0.1-0.3-0.6-0.2-0.8c0-0.2,0.3-0.4,0.4-0.7c0.2-0.3,0.3-0.5,0.4-0.7c0.1-0.1,0.5-0.2,0.4-0.4
		c-0.1-0.3-0.5,0-0.7,0.1c-0.5,0.3-0.8,0.8-1,1.3c-0.1,0.2-0.1,0.4-0.3,0.4c0,0,0,0,0,0c-0.3-0.1-0.7-0.1-0.9-0.1c0,0-0.1,0-0.2,0
		c-0.3,0-0.6,0.2-0.8,0.5c-0.2,0-0.3-0.6-0.7-0.5c0,0-0.2,0.1-0.2,0.2c0,0.3,0.5,0.3,0.3,0.7c-0.3,0-1-0.5-1.3,0
		c0.2,0.4,0.8,0.2,1,0.6c0.1,0.3,0.1,0.8,0,1.2c-0.1,0.6-0.5,1.3-1,1.2c-0.1-0.3,0.2-0.6,0.2-1c0-0.6-0.4-1.4-1.2-1.3
		c-0.3,0-0.3,0.2-0.6,0.2c-0.5-0.1-0.7-2.2,0.1-2.1c0.3,0,0.2,0.6,0.5,0.6c0.2,0,0.3-0.1,0.2-0.5c-0.1-0.4-0.5-0.8-1.2-0.8
		c-0.2,0-0.9,0.1-0.9,0.3c0,0.2,0.3,0.2,0.5,0.3c0,0.5-0.2,0.9-0.5,1.1c-0.1,0-0.2,0-0.2,0.1c-0.1,0-0.1,0-0.2,0.1
		c-0.1,0-0.1,0-0.2,0c0,0,0,0,0,0c0-0.3,0.3-0.9-0.1-1c-0.3,0.1-0.2,0.6-0.3,0.9c0,0.1-0.1,0.2-0.2,0.2c0,0,0,0,0,0
		c-0.1,0-0.2,0.1-0.3,0.1c-0.1,0-0.1,0.1-0.2,0.1c-0.2-0.3,0.2-1-0.2-1c-0.4,0-0.2,0.5-0.3,0.8c0,0.1-0.1,0.3-0.1,0.4
		c-0.1,0.1-0.2,0.2-0.3,0.2c0,0-0.1,0.1-0.1,0.1c-0.3-0.4-0.3-0.9-0.9-1c-0.2-0.1-0.6,0-0.6,0.2c0,0.2,0.4,0.3,0.6,0.5
		c0.6,0.6,0,1.9-0.9,1.7c0.1-0.4,0.3-0.5,0.2-1c-0.1-0.6-0.9-1.3-1.4-1.5c-0.2-0.1-0.5,0-0.7-0.2c0-0.4,0.5-0.5,0.8-0.6
		c0.4-0.1,0.8-0.2,1.2-0.3c0.8-0.2,1.8-0.2,2.4-0.6c0.3-0.2,0.8-0.8,0.6-1.2c-0.3,0-0.3,0.6-0.6,0.5c-0.2-0.2,0.2-0.6,0-0.8
		c-0.3,0.1-0.3,0.5-0.5,0.7c-0.2,0.2-0.4,0.3-0.6,0.3c-0.1-0.3,0.4-0.8,0-1c-0.3,0-0.3,0.4-0.5,0.7c-0.2,0.2-0.6,0.4-1,0.3
		c0-0.4,0.3-0.7,0.2-1.2c0-0.2-0.1-0.4-0.2-0.4c-0.3,0-0.4,0.8-0.5,1.1c-0.2,0.4-0.3,0.8-0.8,0.7c-0.2-0.3,0.1-0.7,0.1-1.1
		c0-0.3,0.1-1.2-0.2-1.2c-0.2,0-0.3,0.8-0.3,1c-0.1,0.7-0.3,1.4-0.9,1.5c-0.3,0.1-0.7-0.1-0.9-0.2c-0.1-0.1-0.3-0.4-0.3-0.7
		c0-0.2,0.4-0.2,0.5-0.3c0.5-0.4,0.8-1.7,0.4-2.4c-0.1-0.2-0.6-0.3-0.6-0.6c0-0.1,0.1,0.1,0.2,0C5,43.4,5.4,43.7,6,43.7h0
		c0.5,0,0.7,0.1,1.2,0.4c0.6,0.4,1.1,0.6,2,0.8c0.4,0.1,1.4,0.2,1.3-0.4c0-0.3-0.7-0.3-1.2-0.4c-0.3,0-0.6-0.1-0.9-0.3
		c-0.2-0.1-0.6-0.4-0.6-0.6c0-0.2,0.5-0.4,0.6-0.4c0.1-0.1,0.2-0.3,0.4-0.4C8.8,42.3,9,42.1,9,41.9c-0.2-0.1-0.4,0.1-0.5,0.2
		c-0.1,0.1-0.3,0.2-0.5,0.3c-0.2,0.1-0.9,0.5-1.2,0.2c-0.1-0.1-0.1-0.3-0.1-0.4c0-0.2,0.1-0.3,0.1-0.5c0-0.1,0.1-0.1,0.1-0.1
		c0.2-0.1,0.4,0.1,0.6,0.1c0.2,0,0.5-0.3,0.8-0.5c0.4-0.2,0.9-0.5,1-1c0.1-0.5-0.3-0.8-0.8-1c0.1-0.1,0.3-0.2,0.5-0.2c0,0,0,0,0.1,0
		c0.1,0,0.1,0,0.2,0c0,0,0.1,0,0.1,0c0.1,0,0.2,0,0.2,0.1c0.3,0.1,0.5,0.6,0.5,1c0,0.3-0.2,0.6-0.2,0.9c0.1,0.7,0.9,0.9,1.4,1.2
		c0.3,0.2,0.4,0.5,0.7,0.7c0.1,0.1,0.2,0.2,0.4,0.3c0.2,0.2,0.5,0.4,0.9,0.6c0.1,0,0.3,0.1,0.4,0.1c0.2,0.1,0.3,0.1,0.5,0.1
		c0.1,0,0.2,0,0.4,0c0.1,0,0.1,0,0.2,0c0.1,0,0.3,0,0.4,0c0.1,0,0.3,0,0.4,0c0.2,0,0.4,0,0.6,0c0.6-0.1,1.3-0.3,2-0.5
		c0.3-0.1,0.5-0.2,0.8-0.3c0.9-0.2,1.8-0.6,2.9-1.2c0.1,0,0.1-0.1,0.2-0.1c0.1-0.1,0.3-0.1,0.4-0.2c0.8-0.4,1.5-0.8,2.3-1.3
		c1.2-0.8,2.2-1.5,3.2-2.6c0.2-0.2,0.4-0.5,0.5-0.6c0.3-0.2,0.8-0.2,1.1-0.2c0.1,0.2-0.1,0.5-0.1,0.7c0,0.8,0.5,1.6,0.9,2.2
		c0.1,0.1,0.4,0.5,0.6,0.4c0.2,0,0.1-0.3,0.2-0.6c0-0.4,0.3-0.9,0.5-1.2c0.3-0.3,0.6-0.6,0.9-0.8c0.1,0.2,0,0.4,0,0.7
		c0,1.4,0.8,2.2,1.9,2.7c0.2,0.1,1.1,0.4,1.1,0c0-0.2-0.4-0.3-0.6-0.5c-0.4-0.5-0.6-1.9,0.2-2.2c0,1.5,1,2.8,2.4,2.8
		c0.4,0,0.7-0.1,0.8-0.3c-0.1-0.3-0.3-0.2-0.5-0.3c-0.2-0.1-0.4-0.5-0.4-0.8c0-0.3,0.3-0.9,0.5-0.9c0.2,0,0.2,0.3,0.4,0.4
		c0.5,0.7,1.9,1.3,3.1,0.8c0.2-0.1,0.3-0.2,0.6-0.3c0.3-0.1,0.7,0.1,0.8-0.3c-0.1-0.3-0.5-0.3-0.7-0.6c-0.2-0.3-0.1-0.9,0.1-1.1
		c0.3,0.1,0.3,0.3,0.5,0.4c0.3,0.2,0.8,0.3,1.2,0.2c0.1,0,0.3-0.1,0.5-0.1c0.1,0,0.1,0,0.2,0.1c0.1,0.1,0.3,0.3,0.5,0.4
		c0.1,0.1,0.1,0.1,0.2,0.2c0.1,0.1,0.3,0.2,0.5,0.3c0.4,0.3,0.6,0.5,1.1,0.8c0,0.1,0.1,0.3,0.2,0.4c0.3,0,0.9,0.2,0.9,0.5
		c0,0.3-0.6,0.6-0.2,0.8c0.3-0.1,0.3-0.5,0.6-0.5c0.2,0,0.8,0.5,0.8,0.7c0,0.2-0.2,0.4-0.3,0.7c-0.1,0.3,0,0.5,0,0.7
		c0.6,0,0.1-1,0.7-1c0.2,0,0.6,0.4,0.6,0.6c0,0.3-0.4,0.4-0.2,0.7c0.4,0.1,0.3-0.3,0.6-0.3c0.2,0,0.8,0.7,0.8,0.9
		c0,0.3-0.3,0.4-0.2,0.6c0.3,0.1,0.3-0.2,0.6-0.2c0.2,0.2,0.6,0.4,0.6,0.7c0,0.2-0.3,0.4-0.1,0.6c0.2,0.1,0.2-0.1,0.4-0.1
		c0.1,0,0.4,0.2,0.4,0.4c0,0.2-0.1,0.3-0.1,0.4c0.1,0.2,0.3,0,0.4,0.1c0.2,0,0.4,0.3,0.4,0.5c0,0.3-0.4,0.6-0.1,0.8
		c0.4,0,0.3-0.4,0.6-0.5c0.4,0,0.3,0.5,0.5,0.8c0.2,0.1,0.2-0.2,0.4-0.2c0.3,0,0.4,0.2,0.5,0.4c0.3,0,0.5,0,0.7,0.2
		c0.1,0.1,0.2,0.3,0.3,0.3c0.2,0,0.3-0.1,0.4-0.2c0.1,0,0.3,0,0.4,0.1c1.2,0.1,2.5-0.3,3.4-0.7c1.5-0.7,2.7-1.7,3.7-3.1
		c0.2-0.2,0.3-0.5,0.5-0.8c0-0.1,0.1-0.1,0.1-0.2c0-0.1,0.1-0.2,0.1-0.2c0,0,0,0,0-0.1c0.4-0.9,0.8-2,0.8-3c0-1.3-0.6-2.4-1.1-3.3
		c-0.6-0.9-1.3-1.6-2-2.4c-0.2-0.2-0.5-0.2-0.5-0.5c0-0.2,0.4-0.8,0.6-0.8c0.1,0,0.2,0,0.3,0.1c0.1,0.1,0.3,0.2,0.4,0.3
		c0,0,0.1,0.1,0.1,0.1l0.3,0.2c0.2,0.1,0.4,0.3,0.6,0.4c0.8,0.7,1.3,1.4,1.8,2.5c0.1,0.1,0.1,0.2,0.2,0.4c0,0.1,0.1,0.2,0.1,0.3
		c0,0,0,0.1,0.1,0.1c0.1,0.2,0.3,0.7,0.5,0.7c0.2,0,0.3-0.2,0.4-0.3c0.1,0,0.2,0,0.2-0.1c0.1,0,0.2-0.1,0.2-0.1l0.1,0
		c0.1,0,0.3,0,0.4,0c0.5,0.1,1,0.4,1.2,0.7c0.1,0.2,0.2,0.4,0.3,0.6c0,0,0,0.1,0,0.1c-0.4,0-0.8,0-1.2-0.2c-0.3-0.1-0.5-0.4-0.9-0.3
		c-0.3,0-0.6,0.2-0.6,0.5c-0.1,0.3,0.1,0.6,0.4,0.6c0.5,0.1,0.9-0.3,1.5-0.2c0.2,0,0.5,0.1,0.7,0.2c0.3,0.2,0.6,0.7,0.8,1
		C71.1,41.5,70.8,41.7,70.6,41.7z M68.1,63.9C68.1,63.9,68.2,63.9,68.1,63.9c0-0.1,0.1-0.1,0.1-0.1c0.6,0.2,1.3,0.5,2.2,0.5
		C69.9,65.3,68.3,64.7,68.1,63.9z M59.9,58c0.2-0.2,0.5-0.3,0.9-0.2c0,0.1,0,0.1-0.1,0.2c-0.1,0.1-0.2,0.1-0.3,0.2
		C60.2,58.3,60,58.3,59.9,58z M61.4,51.2c0,0-0.1,0.1-0.1,0.1c-0.5,0.2-1.2,0.1-1.7-0.1l0.1,0c0.2,0,0.3,0,0.5,0
		c0.4,0,0.7,0.1,1.1,0C61.3,51.2,61.4,51.1,61.4,51.2C61.5,51.1,61.5,51.2,61.4,51.2z M67.3,63.9c-0.3,0.1-0.8,0.1-1.1,0.2
		c-0.4,0.1-0.6,0.3-0.9,0.3c0-0.2-0.4-0.3-0.4-0.5c0-0.3,0.8-0.7,1.3-0.7C66.8,63.3,67.2,63.5,67.3,63.9z M17,68.4
		C17,68.3,16.9,68.3,17,68.4c0.5,0.1,1,0.1,1.4,0.3c0.2,0.1,0.2,0.3,0.3,0.5c0.3,0.3,0.6,0.4,0.9,0.6c-0.2,0.2-0.5,0.2-0.8,0.2
		C17.9,69.9,17,69.3,17,68.4C17,68.4,17,68.4,17,68.4z M14.8,67.2c0.1,0,0.2-0.1,0.3-0.1l0.1-0.1c0.1-0.1,0.2-0.1,0.3-0.1
		c0,0.1,0,0.3,0.1,0.4c-0.2,0-0.4-0.1-0.7,0c-0.1,0-0.2,0-0.3,0C14.7,67.3,14.8,67.3,14.8,67.2z M13.9,72c0,0-0.1-0.1-0.1-0.1
		c0,0,0-0.1-0.1-0.1c0,0,0-0.1,0-0.1c0-0.4,0.6-0.5,0.9-0.7c0.2-0.2,0.7-0.8,0.6-1.3c0-0.2-0.3-0.5-0.5-0.6
		c-0.1-0.1-0.5-0.2-0.5-0.3c-0.1-0.4,0.8-0.5,1.2-0.5c0.6,0.1,1,0.5,1.1,1.1c0,0.4-0.1,0.9-0.2,1.2c-0.1,0.3-0.3,0.9-0.1,1
		c0.2,0.1,0.5-0.4,0.6-0.6c0.2-0.3,0.2-0.7,0.4-0.8c0.2,0.4-0.1,0.9,0,1.2c0.5,0.1,0.3-0.8,0.6-1c0.6,0,0,0.8,0.3,1
		c0.4-0.1,0.1-1,0.7-0.8c0.2,0.1,0,0.4,0.2,0.6c0.3,0,0.2-0.4,0.3-0.6c0.1-0.1,0.5-0.1,0.7-0.2c0.2-0.1,0.6-0.3,0.5-0.7
		c-0.1-0.4-0.4-0.4-0.8-0.4c-0.3,0-0.6-0.2-0.6-0.4c0-0.2,0.4-0.3,0.6-0.4c0.3-0.2,0.7-0.7,0.1-0.7c0-0.2,0-0.3-0.1-0.4
		c-0.6,0.2-1.2,0.8-2,0.7c-0.2,0-0.4-0.1-0.6-0.2c-0.1-0.1-0.2-0.2-0.3-0.4c0-0.1-0.1-0.3-0.1-0.4c0-0.1,0-0.2,0.1-0.2
		c0.4,0.1,0.3,0.5,0.9,0.4c1.1-0.1,2.5-1.3,1.7-2.5c-0.1-0.2-0.4-0.2-0.4-0.5c0.9-0.3,1.4,0.4,1.6,1.2c0.1,0.5-0.2,0.9-0.1,1.3
		c0.4,0.1,0.3-0.5,0.6-0.5c0.1,0,0.2,0.1,0.3,0.2c0.1,0.1,0.1,0.2,0.2,0.3c0.1,0.1,0.2,0.3,0.2,0.4c0,0.1,0.1,0.1,0.2,0.2
		c0.1,0.2,0.2,0.4,0.4,0.6c0.3,0.3,0.9,0.6,1.4,0.8c0.6,0.2,1.2,0.4,1.8,0.4c1.1,0,2.2-0.5,3.1-0.9c0.8-0.4,1.7-1,2.3-1.7
		c1-1.1,1.7-2.2,2.7-3.3c0.4-0.4,0.9-0.9,0.8-1.7c-0.1-0.5-0.5-0.9-0.4-1.6c0.1-0.3,0.3-0.6,0.6-0.8c0.2-0.2,0.7-0.5,0.6-0.8
		c-0.1-0.3-0.9-0.1-1.2,0c-0.6,0.2-1.4,0.5-1.8,0.9c-0.2,0.2-0.3,0.6-0.6,0.7c-0.1-0.8,0.3-1.6,0.8-2.1c0.1-0.1,0.3-0.2,0.4-0.3
		c0.3-0.1,0.9-0.1,0.9-0.4c0-0.2-0.4-0.2-0.6-0.3c-0.4-0.2-0.7-0.4-0.8-0.9c-0.1-0.7,0.2-1.5,0.6-1.8c0.3-0.2,1-0.3,1.5-0.1
		c-0.1,0.3-0.5,0.4-0.6,0.6c-0.6,0.8,0.2,2,1.2,2c1,0,1.7-1.1,2.3-1.7c0.7-0.6,1.6-1,2.5-1.4c2-0.9,3.9-1.5,6.3-1.7
		c0.3,0,0.6,0,0.7,0.2c0,0.3-0.5,0.5-0.7,0.6c-0.4,0.1-0.6-0.1-0.9,0c-0.4,0.1-0.8,0.5-0.6,1c0.3,0.7,0.8,0.5,1.7,0.6
		c0.4,0,0.7,0.3,0.9,0.7c0.1,0.2,0.3,0.3,0.3,0.5c0,0.3-0.3,0.6-0.3,0.9c-0.1,0.4-0.1,0.6-0.2,1c-0.1,0-0.2,0.1-0.3,0
		c-0.2-0.3-0.1-0.8,0-1.2c0.1-0.4,0.3-0.8,0.2-1.2c-0.3,0.1-0.4,0.4-0.5,0.7c-0.1,0.3-0.1,0.7-0.2,1c-0.1,0.2-0.2,0.4-0.2,0.6
		c-0.1,0.2-0.1,0.5-0.3,0.6c-0.3-0.5-0.1-1.3,0.1-1.9c0.1-0.3,0.3-0.6,0.2-0.9c-0.3,0-0.4,0.3-0.5,0.5c-0.2,0.4-0.4,0.8-0.5,1.4
		c0,0.2-0.1,0.6-0.3,0.6c-0.4,0-0.2-0.9-0.1-1.1c0.1-0.4,0.2-0.8,0.3-1.1c0.1-0.2,0.3-0.4,0.2-0.6c-0.3-0.1-0.4,0.3-0.4,0.5
		c-0.2,0.5-0.4,0.9-0.5,1.4c-0.1,0.3,0,0.5-0.1,0.8c-0.1,0.3-0.3,0.8-0.4,1.2c-0.1,0.4-0.3,0.9-0.3,1.3c0,0.5,0.1,0.9-0.5,0.9
		c-0.4-0.5-0.1-1.1,0-1.7c0.1-0.3,0.1-0.6,0.2-0.8c0.1-0.2,0.3-0.4,0.3-0.6c0-0.2-0.2-0.3-0.2-0.4c-0.1-0.3,0.1-0.7,0.2-1.1
		c0.1-0.3,0.3-0.7,0.1-1c-0.3,0.2-0.4,0.6-0.5,1c-0.1,0.4-0.2,0.8-0.2,1.3c0,0.2,0.1,0.4,0.1,0.6c0,0.3-0.3,0.7-0.4,1.1
		c-0.1,0.4-0.2,0.8-0.3,1.2c0,0.2,0.4,0.4,0.4,0.6c0,0.2-0.4,0.3-0.6,0.5c-0.2,0.2-0.5,0.3-0.6,0.4c-0.3,0.3-0.9,0.8-0.8,1.3
		c0,0.5,0.7,0.6,0.7,1c0.1,0.5-0.7,1.2,0,1.7c0.6-0.1,1.1,0,1.1,0.6c0,0.2-0.2,0.7-0.3,0.8c-0.2,0.1-0.5-0.2-0.8-0.2
		c-0.4,0-0.7,0.1-0.9,0.3c-0.2,0.2-0.1,0.5-0.4,0.5c-0.1,0-0.1-0.1-0.2-0.1c0-0.4,0.8-0.7,0.5-1.2c-0.4,0-0.4,0.8-0.9,0.7
		c-0.3,0-0.2-0.3-0.4-0.4c-0.3,0.2,0.1,0.4,0.1,0.7c0,0.1-0.1,0.1-0.1,0.2c0,0,0,0-0.1,0.1c-0.1,0.1-0.2,0.1-0.3,0.2
		c-0.3,0.3-0.7,1.4-0.7,2.1c0,0.4,0.2,0.6,0.2,1c-0.4,0-0.9-0.3-1-0.7c-0.2-0.6,0.3-1.3,0.1-1.9c-0.4-0.1-0.6,0.2-0.8,0.5
		c-0.2,0.3-0.3,0.7-0.4,1.1C35.7,70.5,36,71,36,71.4c-0.2,0.2-0.5,0-0.7-0.1c-0.1-0.1-0.4-0.2-0.4-0.4c-0.2-0.5,0.3-1.5-0.2-1.7
		c-0.1-0.1-0.5,0-0.6,0.1c-0.1,0.1-0.1,0.2-0.2,0.4c-0.2,0.4-0.5,1-0.5,1.5c0,0.4,0.2,0.7,0.2,1.1c-0.4,0-0.7-0.2-0.9-0.4
		c0-0.1-0.1-0.1-0.1-0.2c-0.1-0.1-0.1-0.2-0.1-0.3c-0.1-0.5,0.2-1,0.1-1.4c-0.1-0.1-0.4-0.1-0.6,0.1c-0.2,0.2-0.5,0.6-0.6,1
		c-0.1,0.2-0.1,0.5-0.1,0.7c0,0.5,0.3,1,0.4,1.5c-0.2,0-0.3,0-0.5-0.1c0,0-0.1,0-0.1-0.1c0,0-0.1-0.1-0.1-0.1
		c-0.1-0.1-0.1-0.1-0.2-0.2c-0.2-0.2-0.4-0.5-0.5-0.8c0-0.4,0.5-1.3,0.1-1.3c-0.3-0.1-0.6,0.4-0.8,0.8c-0.2,0.6,0,1.4-0.3,1.8
		c-0.1,0.1-0.2,0.2-0.2,0.2c0,0-0.1,0-0.1,0.1c-0.1,0-0.1,0.1-0.2,0.1c-0.2,0.1-0.4,0.2-0.6,0.2c-0.3,0-1-0.8-1.4-0.1
		c0.1,0.4,0.5,0.2,0.8,0.4c0.3,0.2,0.5,0.9,0.4,1.3c0,0.1,0,0.2-0.1,0.3c0,0,0,0,0,0.1c-0.2,0.3-0.4,0.4-0.7,0.5
		C27,76,27.1,75.8,27,75.6c-0.4-0.7-1.7-0.7-1.8,0c0,0.2,0.1,0.3,0,0.5c-0.5,0.1-1-0.2-0.9-0.8c0-0.2,0.1-0.3,0.3-0.5
		c0.1-0.2,0.2-0.4,0.3-0.5c0.1-0.1,0.4-0.2,0.4-0.3c-0.2-0.3-0.5,0.1-0.7,0.1c-0.2,0-0.3-0.1-0.5-0.2c-1.3-0.4-2.3,0.2-3.1,0.8
		c-0.1,0.1-0.3,0.3-0.4,0.3c-0.2,0-0.2-0.5-0.3-0.5c-0.2,0-0.3,0.3-0.3,0.5c0,0.5,0.4,0.8,0.2,1.3c-0.1,0.2-0.4,0.5-0.6,0.7
		c-0.3,0.3-0.7,0.6-1.2,0.4c0.1-0.4,0.3-0.7,0.2-1.2c-0.1-0.6-0.6-1.3-1.1-1.4c-0.5-0.1-0.9,0.1-1.4,0.2C16,75,16,74.9,15.9,74.8
		c0,0,0-0.1-0.1-0.1c-0.1-0.6,0.4-1.1,1.2-1c0.9,0.1,1.7,0.7,1.7,1.5c0,0.4-0.1,1.1,0.2,1.2c0.4,0.1,0.5-0.9,0.4-1.2
		c-0.1-0.7-0.4-1-0.9-1.4c-0.1-0.1-0.3-0.2-0.3-0.4c0-0.3,0.5-0.6,0.7-0.6c0.2,0,0.5,0.1,0.8,0.1c0.2,0,0.3,0,0.4,0
		c0.2,0.1,0.4,0.4,0.6,0.2c0.1-0.2-0.1-0.4-0.2-0.6c0-0.2,0.1-0.5-0.2-0.6c-0.2,0-0.3,0.3-0.4,0.4c-0.3,0.1-0.6-0.2-0.9-0.2
		c-0.4,0-0.8,0.3-1.3,0.4c-0.4,0-0.9,0-1.3,0c-0.1-0.1-0.3-0.1-0.4-0.1c-0.1,0-0.2,0-0.2-0.1c-0.1,0-0.1,0-0.2-0.1
		c-0.1,0-0.1-0.1-0.2-0.1c0-0.2,0.2-0.3,0.1-0.5c-0.3-0.1-0.5,0.2-0.8,0.3c-0.1,0-0.2,0-0.2,0.1c0,0-0.1,0-0.1,0
		C14.1,72.1,14,72.1,13.9,72z M30.8,44.2c0-0.1-0.2-0.3-0.2-0.4c0-0.3,0.3-0.6,0.7-0.4c-0.2,0.5,0.1,0.6,0.4,0.8
		c0,0.8-0.3,1.6-0.6,2.3c-0.1,0.2-0.2,0.6-0.3,0.7c-0.1,0.2-0.4,0.2-0.5,0.4c-0.2,0.3-0.1,0.6-0.2,0.9c-0.4-0.1-0.4-0.5-0.3-0.9
		C29.9,46.5,31.2,45.6,30.8,44.2z M33.1,61.7c0,0.1-0.1,0.3-0.2,0.4c0-0.2-0.1-0.5-0.2-0.7c0-0.1-0.1-0.1-0.1-0.2
		c-0.1-0.5,0-0.9,0.1-1.3c0,0.4,0.1,0.7,0.2,0.9C33.1,61.2,33.2,61.4,33.1,61.7z M57.8,82c0.1,0,0.1,0,0.2,0.1
		c0,0.4-0.3,0.3-0.4,0.4c-0.3,0.2-0.5,0.5-0.5,0.9c0,0.8,0.6,1.2,1.2,1.4c0,0.3,0.2,0.8,0.1,1c-0.7,0.1-1.2-0.4-1.7-0.7
		c-0.2-0.2-0.5-0.4-0.7-0.6c-0.2-0.2-0.5-0.4-0.5-0.7c0.4-0.2,0.7-0.2,1-0.5c0.3-0.2,0.3-0.6,0.6-0.8C57.1,82.5,57.8,82.1,57.8,82z
		 M57.1,80.7c0.1,0.1,0.1,0.2,0.1,0.4C57.1,81.1,57.1,80.9,57.1,80.7z M57.4,86.6c0.1,0,0.2,0.1,0.3,0.2c0,0.2-1.1,0.8-1.3,0.9
		c-1.2,0.6-2.4,1.1-3.8,1.6c-0.2,0.1-0.6,0.3-0.8,0.3c-0.3-0.1-0.2-0.5-0.6-0.5c-0.3,0.1,0.1,0.4,0.1,0.6c0,0.2-0.9,0.4-1.3,0.5
		c-3.1,0.8-6.9,1.2-10.8,1c-3.7-0.2-7-0.9-10-1.9c-0.4-0.1-1-0.3-1.3-0.4c-0.1-0.1-0.2-0.4-0.3-0.4c-0.2,0-0.2,0.1-0.4,0.1
		c-0.4,0-0.6-0.3-0.6-0.6c-0.2,0-0.2,0.2-0.4,0.2c-0.5,0-0.2-0.7-0.4-1c-0.3,0.1-0.1,0.5-0.3,0.6C25,87.9,25.1,87,25,86.6
		c-0.4-0.1-0.1,0.6-0.4,0.7c-0.4,0.1,0-0.9-0.2-1.1C24,86.2,24.3,86.9,24,87c-0.5,0.1-0.1-1-0.5-1.2c-0.3,0.1-0.1,0.6-0.2,0.8
		c-0.7,0.1-0.2-1-0.4-1.3c-0.4,0-0.1,0.7-0.4,0.8c-0.3,0,0-0.6-0.3-0.7c-0.3,0-0.1,0.3-0.3,0.3c-0.2,0-1-0.6-1-0.7
		c0-0.3,0.4-0.6,0.6-0.6c0.4-0.1,1.1,0.4,1.6,0.6c0.5,0.2,1,0.5,1.5,0.7c3,1.3,6.3,2.3,10,2.9c5.1,0.8,11.2,0.7,15.5-0.7
		c-2.3,0.2-4.9,0.7-7.5,0.6c-1.3-0.1-2.6-0.1-3.9-0.2c-5.5-0.6-10.1-2-14.4-4c-0.2-0.1-0.5-0.2-0.7-0.3c-0.3-0.1-0.6-0.2-0.7-0.3
		c-0.3-0.2-0.5-1.2-0.4-1.7c0.5,0.1,1.1,0.4,1.7,0.7c3.6,1.6,7.6,2.8,12.1,3.5c4.1,0.7,8.5,0.6,12.2-0.2c1.2-0.3,2.3-0.7,3.4-1
		c0.3,0.2,0.3,1.1,0.7,1.1c0.4,0,0.2-0.8,0.2-1.2c0-0.3,0.2-0.7,0.4-1c0.1-0.1,0.4-0.5,0.7-0.4c0.2,0,0.3,0.3,0.4,0.5
		C55.1,85.1,56,86,57.4,86.6z M18.7,88c0,0.3,0,0.7,0.3,0.7c0.4,0,0.2-0.5,0.3-0.7c0.4-0.2,0.7,0.2,0.7,0.5c0.2,1.1-0.9,2-1.9,1.8
		c-0.5-0.1-0.9-0.9-0.5-1.5c0.3,0.2,0.1,0.6,0.5,0.9c0.4,0.3,1.5,0.1,1.2-0.4c-0.3,0-0.5,0.1-0.7,0.1c-0.4-0.1-0.4-0.6-0.5-0.9
		c-0.1-0.1-0.3,0.1-0.4,0c0.2-0.9,0.7-1.6,1-2.4c0.4-0.8,0.6-1.6,0.7-2.7c0.2,0.1,0.2,0.3,0.4,0.3c0.2,0,0.2-0.2,0.2-0.5
		c0-0.2,0.3-0.5,0-0.6c-0.4-0.1-0.4,0.4-0.7,0.6c0-0.2-0.4-0.5-0.4-0.8c0-0.2,0.7-0.3,1-0.4c0.3-0.1,0.6-0.4,0.8-0.6
		c0.4-0.5,0.9-1.2,1.1-1.7c0.1-0.2,0.2-0.5,0.1-0.8c-0.1-0.7-0.8-0.7-0.9-1.2c0.4,0,0.8,0.1,0.8-0.1c0-0.2-0.4-0.2-0.5-0.3
		c-0.1-0.2,0-0.6,0-0.7c0.2-0.2,0.7-0.3,0.9-0.2c0.1,0,0.2,0.3,0.2,0.4c0,0.2,0,0.6,0.2,0.7c0.5,0.1,0.2-1.1,0.1-1.3
		c-0.3-0.5-1.1-0.4-1.7-0.2c0.2-0.4,0.8-0.8,1.4-0.7c0.1,0,0.6,0.2,0.8,0.3c0.8,0.7,0,2.3-0.3,2.9c-0.3,0.5-0.7,0.9-0.9,1.5
		c-0.4,1.1-0.6,2.7-0.2,3.8c-0.2,0.2-0.4,0.2-0.7,0.3c-0.6,0.3-1,0.9-1.4,1.5C19.3,86.1,18.7,87,18.7,88z M20.9,77.2
		c-0.3-0.1-0.3-0.9,0-1.1C21,76.4,20.8,76.9,20.9,77.2z M21.4,78.9c0,0.4-0.3,1.3-0.7,1.3c-0.3,0-0.7-0.4-1-0.5
		c-0.3-0.2-0.6-0.3-1-0.4c-0.3-0.1-0.6-0.3-1-0.4c-0.3-0.1-0.9-0.3-0.9-0.5c0-0.2,0.3-0.7,0.6-0.7c0.3,0,0.4,0.3,0.7,0.3
		c0.6,0.2,1.3-0.3,1.7-0.6c0,0,0-0.1,0.1-0.1c0.2,0.2,0.2,0.4,0.4,0.6C20.8,78.3,21.4,78.4,21.4,78.9z M20.3,80.8
		c0,0.3-0.8,0.8-1.1,0.6c0.1-0.3,0.3-0.8,0.6-0.9C19.9,80.5,20.2,80.7,20.3,80.8z M17.4,79.4c0,0.2-0.2,0.3-0.3,0.4
		C17,79.9,17,80.1,16.7,80c-0.1-0.2-0.2-0.9,0.1-1C16.9,79,17.4,79.2,17.4,79.4z M16.8,81.8c0.1-0.8,0.5-1.8,1-2.1
		c0.2-0.1,0.5,0,0.5,0.2c0,0.2-0.3,0.5-0.4,0.6c-0.3,0.4-0.5,0.8-0.7,1.3c-0.1,0.2-0.1,0.5-0.3,0.7C16.7,82.3,16.8,81.9,16.8,81.8z
		 M18.1,81.2c0.1-0.2,0.2-0.3,0.3-0.6c0.1-0.2,0.2-0.5,0.4-0.5c0.1,0,0.4,0.1,0.4,0.2c0.1,0.3-0.2,0.4-0.4,0.6
		c-0.1,0.2-0.2,0.5-0.3,0.7c-0.1,0.1-0.3,0.3-0.3,0.4c0,0.1,0.1,0.2,0.1,0.4c0,0.3-0.4,1.4-0.7,0.7c-0.1-0.1-0.1-0.7-0.1-0.8
		C17.6,81.9,17.8,81.6,18.1,81.2z M43.9,58.9c0.1-0.4,0.2-0.8,0.4-1.1c0.1-0.1,0.2-0.1,0.3,0c0,0.3-0.1,0.6-0.2,0.9
		c-0.1,0.6,0,1.2-0.6,1.3C43.5,59.8,43.8,59.3,43.9,58.9z M45.2,57.8c0.2,0,0.3,0,0.5,0c-0.1,0.6,0,1.6-0.7,1.6c0,0,0,0-0.1,0
		C44.8,59,44.9,58.2,45.2,57.8z M47.5,57.6c0.1,0.1,0.1,0.5,0,0.6C47,58.2,47.2,57.3,47.5,57.6z M48.2,57.8
		c-0.6-0.3-0.6-1.5-0.3-2.1c0.7,0,0.3,0.7,0.3,1.3C48.2,57.3,48.3,57.6,48.2,57.8z M59,66.9c0.8,1.2,0.7,2.9,0.7,4.8
		c0,0.3,0,0.6,0,1c0,0.1,0,0.3,0,0.4c0,0.3,0,1.1-0.1,1.3c-0.2,0-0.6-0.2-0.8-0.3c-0.3-0.1-0.5-0.3-0.7-0.4l-0.5-0.3
		c-0.6-0.4-1.3-0.8-2-0.8c-0.9,0-1.9,0.6-2,1.6c0,0.2,0,0.3,0,0.4c0,0.1,0,0.1,0,0.2c0,0.1-0.1,0.2-0.5,0.3
		c-0.2,0.1-0.4,0.1-0.5,0.2c-1.2,0.7-2,1.8-2.2,3.3c-0.1,0.4-0.1,0.8,0.2,1.1c0.1,0.2,0.3,0.2,0.6,0.2c0.6,0,0.8-0.6,0.8-0.8
		c0-0.1,0-0.1,0-0.2c0.1-0.2,0.5-0.4,1-0.5l0.2,0c0.1,0,0.3-0.1,0.4-0.1c0,0,0,0,0,0.1c0,0,0,0.1,0.1,0.1l0,0
		c-0.2,0-0.5,0.1-0.8,0.3c-0.5,0.3-1,0.9-0.9,1.6c0,0.2,0.2,0.4,0.3,0.5c0,0,0,0,0,0c-0.1,0.1-0.2,0.2-0.2,0.3
		c-0.3,0.4-0.3,1.3-0.3,2.2c0,0.1,0.4,0.1,0.4,0.2c0,0.1,0,0.1,0,0.2c0,0.1-0.9,0.2-1.5,0.4l-0.4,0c-1.9,0.6-3.8,0.9-5.6,1.1
		c-4.9,0.4-9.8-0.3-15.6-2.2c-2-0.7-3.9-1.4-5.6-2.2l-0.2-0.1c-0.1,0-0.1-0.1-0.2-0.1c0-0.1,0.1-0.4,0.3-0.8c0-0.1,0.2-0.3,0.3-0.5
		c0.1,0,0.2,0.1,0.3,0.1c0.3,0.1,0.5,0.1,0.8,0.1c1.5,0,2.4-1.3,2.6-1.7c0.1-0.1,0.1-0.2,0.2-0.4c0-0.1,0.1-0.2,0.1-0.3
		c0,0,0.1-0.1,0.2-0.1c0.1,0,0.3-0.1,0.4-0.1c0.8-0.5,1.2-1.3,1.1-2.3c0,0,0.1,0,0.1-0.1c0.4-0.2,0.8-0.4,1.1-0.9c0,0,0-0.1,0.1-0.1
		c0,0,0.1,0,0.1,0.1c0.1,0.1,0.1,0.1,0.2,0.2c0.3,0.2,0.7,0.5,1.2,0.5c0,0,0.1,0,0.1,0c0.2,0,0.3-0.1,0.5-0.2c0.1,0,0.1-0.1,0.2-0.1
		c0,0-0.2,0-0.2,0c0.2,0,0.5-0.1,0.5-0.7c0,0,0,0,0,0c0,0,0.8,0.3,0.9,0.3c0,0,0,0,0,0c0.2,0,0.3-0.2,0.4-0.2c0,0,0.1-0.1,0.2-0.1
		c0.1,0,0.4-0.1,0.5-0.1c0.2,0,0.1-0.1,1.1-0.7c0,0,0-0.1,0-0.1c0,0.1,0.2,0.1,0.4,0.1c0.4,0,0.6-0.2,0.7-0.3
		c0.1-0.1,0.1-0.3,0.2-0.4c0.3,0.1,0.6,0.2,1,0.2c0.4,0,1.1-0.3,1.2-0.9c0-0.6-0.4-0.8-0.6-0.8c0,0-0.1-0.1-0.1,0
		c-0.2-0.2,0-1,0.2-1.5c0,0,0.1-0.1,0.1-0.2c0.1,0.2,0.3,0.5,0.8,0.5c0.6,0,0.8-0.5,0.9-0.8c0-0.1,0.1-0.2,0.1-0.2c0,0,0.1,0,0.1,0
		c0.1,0.1,0.2,0.5,0.7,0.6c0.5,0,0.9-0.6,1.1-1c0.2-0.4,0.5-0.8,0.5-1.3c0-0.9-0.7-1.3-1.2-1.5c0,0,0-0.1,0-0.1c0.1-0.2,0.2-0.6,0-1
		c-0.1-0.3-0.3-0.5-0.4-0.6c0,0-0.1,0-0.1,0c0-0.1,0.2-0.2,0.5-0.5c1.6-1.1,3.3-2.2,4.9-2.9l0.3-0.2c0.6-0.3,1.2-0.6,1.8-0.7l0.1,0
		c0.1,0,0.1,0,0.1,0c0,0,0,0.1,0.1,0.1c0.1,0.1,0.3,0.4,0.5,0.5c0.1,0.2,0.2,0.3,0.3,0.5c0.6,0.8,1.1,1.6,1,2.7
		c0,0.3-0.1,0.6-0.2,0.8c-0.1,0.2-0.6,0.6-0.8,0.7c0,0,0,0-0.1-0.1c0,0,0-0.1,0-0.1c0-0.2-0.1-0.7-0.7-0.8c-0.1,0-0.3,0-0.5,0.2
		c-0.6,0.6-0.5,2.1-0.5,2.1c0,1.2,1.1,2.2,2.3,2.2c0.2,0,0.4-0.1,0.6-0.1c0,0.1,0,0.2,0.1,0.3c0.5,1,2.3,1.8,3.5,1.3
		c0.5-0.2,1.1-0.7,1-1.3c-0.1-0.6-0.8-0.6-1.1-0.6c-0.1,0-0.1,0-0.2,0c-0.5-0.1-0.8-0.6-0.7-1.4c0-0.3,0.3-1.2,1.3-1.1
		c0.6,0.1,1.2,0.4,1.7,0.8c0.1,0.1,0.3,0.2,0.4,0.2l0.3,0.2C58.2,66.1,58.7,66.4,59,66.9z M46.7,58.5c-0.1,0.1-0.2,0.2-0.5,0.2
		c-0.1-0.3,0-1.1,0.5-0.9C46.8,58,46.7,58.3,46.7,58.5z M25.9,77.8c-0.4,0.4-1,0.8-1.5,0.6c0.1-0.3,0.4-0.4,0.6-0.6
		c0.6-0.5,0.7-1.2,0.8-2.1c0.3-0.2,0.6,0.2,0.7,0.5C26.6,76.7,26.3,77.4,25.9,77.8z M24.1,77.7c0-0.4,0.2-0.7,0.2-1
		c0.2-0.1,0.6,0,0.7,0.2C25.1,77.1,24.4,77.7,24.1,77.7z M23,74.5c0.2-0.2,0.9-0.1,1,0.1C24,75.3,23.2,74.8,23,74.5z M48.7,57.3
		c-0.2-0.2-0.2-1.1,0.3-0.9c0.1,0.2,0.1,0.4,0.3,0.6c0.1,0.1,0.4,0.3,0.4,0.5C49.6,57.9,48.8,57.4,48.7,57.3z M49.1,55.1
		c-0.4,0.1-0.6-0.2-0.9-0.4c-0.1-0.1-0.3-0.2-0.4-0.3c-0.2-0.3-0.3-0.6-0.6-0.8c-0.3-0.2-0.6-0.2-1-0.3c-0.2,0-0.7,0.2-0.8-0.2
		c0.1-0.1,0.3-0.1,0.4-0.1c0.3,0,0.5-0.1,0.8-0.3c0.3-0.2,0.4-0.5,0.8-0.4c0.2,0,0.5,0.4,0.6,0.5c0.4,0.4,0.6,0.9,0.8,1.5
		C49.1,54.6,49.2,54.9,49.1,55.1z M14.2,80.9c-0.2,0-0.4-0.1-0.4-0.3c-0.1-0.4,0.6-1.5,0.9-1.6c0.5,0.3,0.1,0.8-0.1,1.2
		C14.5,80.4,14.4,80.9,14.2,80.9z M10.7,76.3c0.1,0.3-0.2,0.4-0.3,0.6c-0.4,0.5-0.6,1.3-0.9,2c-0.1,0.2-0.1,0.5-0.3,0.5
		c-0.3,0-0.2-0.6-0.1-0.9c0.2-0.8,0.8-1.8,1.4-2.1C10.6,76.3,10.6,76.3,10.7,76.3z M10.3,78.2c0.2-0.5,0.4-1.3,0.9-1
		c-0.1,0.4-0.3,0.6-0.5,1.1c-0.1,0.2-0.1,0.4-0.2,0.7c0,0.3,0,0.8-0.4,0.6C10.1,79.2,10.2,78.6,10.3,78.2z M13.6,77.8
		c0,0.2-0.2,0.4-0.4,0.5c-0.4,0.5-0.4,0.9-0.7,1.5c-0.2,0.5-0.5,0.1-0.4-0.4c0.1-0.7,0.4-1.4,0.8-1.8C13.1,77.5,13.6,77.5,13.6,77.8
		z M11.3,78.1c0.1-0.3,0.4-0.7,0.6-0.8c0.2-0.1,0.5,0.1,0.5,0.2c0,0.1-0.2,0.4-0.3,0.5c-0.3,0.5-0.4,1.2-0.5,1.8
		C10.7,79.8,11.1,78.6,11.3,78.1z M13.2,80.4c-0.7,0.1,0-1.2,0.1-1.3c0.1-0.3,0.5-1.1,0.9-1.2c0.3-0.1,0.6,0.1,0.5,0.5
		c0,0.2-0.3,0.3-0.4,0.5c-0.1,0.2-0.3,0.5-0.5,0.8C13.6,79.9,13.4,80.4,13.2,80.4z M15.3,80c0.2,0.1,0.4,0.2,0.4,0.4
		c0,0.2-0.2,0.4-0.3,0.5c-0.1,0.2-0.2,0.4-0.4,0.4c-0.2,0-0.3-0.2-0.3-0.5C14.8,80.6,15.1,80.2,15.3,80z M16.5,80.8
		c-0.1,0.4-0.1,0.8-0.2,1.1c-0.3,0-0.6-0.1-0.7-0.4C15.5,81.2,16.1,80.2,16.5,80.8z M5.1,41.9c0.1-0.1,0.2-0.1,0.2-0.1
		c0.1-0.1,0.3-0.1,0.4-0.1c0,0.1,0,0.1,0,0.2C5.5,41.9,5.2,41.9,5.1,41.9C5.1,41.9,5.1,41.9,5.1,41.9z M11.1,12.5
		c0.1-0.2,0.3-0.3,0.4-0.4c0,0,0,0,0.1,0c0.1,0,0.2,0,0.3,0.1c0,0,0.1,0,0.1,0.1c0,0,0.1,0,0.1,0c0.1,0,0.1,0.1,0.1,0.1
		c0.1,0.1,0.1,0.2,0.1,0.3c0.1,0.2,0.3,0.5,0.1,0.7c-0.3,0-0.5-0.4-0.8-0.1c0.1,0.3,0.5,0.3,0.5,0.6c-0.1,0.1-0.5,0-0.5,0.2
		c0.1,0.2,0.4,0.2,0.6,0.4c0.2,0.2,0.4,0.8,0.1,0.9c-0.2,0.1-0.4-0.2-0.6-0.3c-0.3-0.1-0.8,0.2-0.7,0.4c0.1,0.2,0.2,0.1,0.6,0.1
		c0.3,0.1,0.6,0.4,0.6,0.8c0.1,0.3,0.1,0.7-0.1,0.9c-0.2-0.3-0.1-0.6-0.2-0.9c-0.1-0.1-0.2-0.3-0.4-0.3c-0.2,0-0.5,0.3-0.7,0.4
		c-0.3,0.1-0.5,0.3-0.6,0.4c-0.2,0.2-0.1,0.5-0.3,0.6c-0.3,0.1-0.2-0.3-0.3-0.6c0-0.1-0.1-0.2-0.1-0.3c0-0.5,0.2-0.9,0.4-1.2
		c0.2-0.2,0.4-0.1,0.6-0.4c0.3-0.5,0.1-1.1,0.2-1.8c0-0.1,0-0.2,0.1-0.3C10.9,12.7,11,12.6,11.1,12.5z M43.6,11.1c0,0,0.1,0,0.1,0
		c0.3,0.3,0.7,0.7,0.6,1.1c-0.1,0.3-0.9,0.8-1.2,0.4c-0.2-0.2,0-0.5,0-0.8c0-0.2-0.2-0.5-0.5-0.5c-0.6-0.1-0.6,0.4-1.3,0.3
		c-0.3-0.6,0-1.1,0.4-1.2c0.5-0.1,1.1,0.1,1.6,0.4C43.3,11,43.4,11.1,43.6,11.1z M37.2,8.9c-0.1-0.4-0.7-0.2-1-0.2
		C35.9,8.6,36,8.1,36.1,8c0.4-0.2,0.6,0.1,0.9,0.4c0.1,0.1,0.4,0.2,0.4,0.5c0.3,0.1,0.7,0,0.8,0.3c0.2,0.5-0.4,0.9-0.9,0.6
		C37,9.5,37.2,9.1,37.2,8.9z M36.6,6.3c0.2,0.1,0.3,0.3,0.4,0.6c0,0.1,0.1,0.2,0.1,0.3c0,0.1,0,0.3-0.1,0.4c-0.3,0-0.4-0.1-0.7-0.1
		c-0.6,0-1.3,0.4-1.4,0.9c-0.1,0.5,0.3,1.1,0.8,1.2c0.3,0,0.4-0.3,0.8-0.2c0.1,0.3,0.1,0.6,0.2,0.8c0.3,0.4,1.2,0.3,1.6,0.1
		c0.4-0.3,0.5-1.2,0-1.6c-0.2-0.2-0.5-0.1-0.5-0.3C37.8,8.1,38,7.8,38,7.7c0.2-0.2,0.4-0.3,0.7-0.4c0.3-0.1,0.8-0.1,0.8,0.1
		c0.1,0.3-0.3,0.3-0.2,0.7c0.3,0.2,0.5-0.2,0.7-0.4c0.2-0.1,0.3-0.2,0.5-0.3c0.1-0.1-0.1-0.2-0.1-0.4c0.1-0.1,0.2-0.2,0.3-0.2
		c0,0,0,0,0,0c0,0,0.1,0,0.1,0c0.2-0.1,0.4-0.1,0.6-0.1c0.6,0,1.2,0.4,1,1.1c0,0,0,0.1-0.1,0.1c0,0.1-0.1,0.1-0.1,0.2
		c-0.2,0.2-0.5,0.4-0.4,0.7c0,0.1,0.3,0.2,0.5,0.2c0.1,0.1,0.2,0.1,0.3,0.2c0.4,0.3,0.6,0.4,0.6,0.8c0,0,0,0,0,0c0,0.1,0,0.1,0,0.2
		c-0.5,0-1-0.3-1.6-0.3c-0.3,0-0.6,0.2-0.7,0.4c-0.3,0.5-0.4,1.7,0.2,1.8c0.6,0.1,0.8-0.5,1.4-0.3c0.2,0.3,0,0.6,0.1,0.9
		c0.2,0.7,1.4,0.7,1.8,0.2c0.5-0.6,0.2-1.2-0.1-1.8c0.1,0,0.1-0.1,0.2-0.1c0.3-0.1,0.7-0.2,1.1-0.1c0.1,0,0.1,0,0.2,0.1
		c0.1,0.1,0.1,0.1,0.3,0.2c0.1,0.1,0.2,0.2,0.4,0.3c0.4,0,0.8-0.4,1.3-0.4c0.4,0,0.8,0,1.2,0.1c-0.1,0.1-0.3,0.2-0.4,0.3l-0.2,0.2
		c-0.2,0.1-0.4,0.3-0.5,0.7c-0.2,0.2-0.4,0.4-0.5,0.4c-0.4,0.1-0.8-0.3-1.1-0.3c-1-0.1-2,1-1.8,1.9c0,0.2,0.3,0.4,0.3,0.5
		c0,0.2-0.3,0.5-0.5,0.6c-0.1,0-0.3,0-0.5,0c-0.5,0-1,0.1-1.3,0c-0.2-0.2-0.2-0.4-0.3-0.6c-0.3-0.4-0.9-0.6-1.6-0.6
		c-0.2,0-0.5,0.1-0.7-0.1c0-0.3,0.3-0.3,0.4-0.6c0.2-0.4,0.2-1.1-0.2-1.3c-0.2,0.3,0,0.7-0.1,1c-0.1,0.2-0.5,0.7-0.7,0.8
		c-0.3,0.1-0.9-0.3-1.2-0.4c-0.4-0.2-0.8-0.3-1-0.6c0.1-0.5-0.2-0.9,0-1.3c0.1-0.4,0.5-0.3,0.7-0.7c-0.4-0.4-1,0.1-1.1,0.4
		c-0.2,0.4,0,0.8,0,1.3c-0.4,0-0.7-0.2-1-0.4c-1-0.4-1.7-1.1-2.5-1.7c-0.1-0.6,0.3-0.6,0.5-0.8c0.4-0.3,0.7-1.1,0.4-1.7
		c-0.1-0.2-0.4-0.2-0.5-0.5c-0.1-0.3,0-0.8,0.1-1.2c0-0.9,0-1.7-0.1-2.5c-0.1-0.4-0.2-0.7-0.2-1.1c0,0,0,0,0,0
		c1,0.5,1.5,1.4,1.5,2.8c0,0.1,0,0.1,0,0.2c-0.1,0.1-0.2,0.2-0.2,0.4c0,0.3,0.4,0.6,0.6,0.6c0.3,0,0.4-0.5,0.7-0.6
		c0.1-0.1,0.3-0.1,0.5-0.1c0.1,0,0.1,0,0.1,0C36.5,6.3,36.6,6.3,36.6,6.3z M64.7,18c0.2,0.1,0.4,0.3,0.5,0.4c0.6,0.5,1.2,1,1.7,1.5
		c0.1,0.1,0.1,0.1,0.2,0.2c0.1,0.1,0.2,0.2,0.3,0.3c0.7,1,1.2,2.2,1.4,3.7c0,0.6,0,1.2,0,1.7c-0.1,0.5-0.2,0.9-0.3,1.5
		c-0.1,0.2-0.1,0.4-0.2,0.6c-0.2,0.5-0.4,1-0.7,1.3c-0.1,0-0.3-0.1-0.4,0c-0.2,0.2-0.2,0.5-0.3,0.8c-0.6,1.1-1.7,1.8-2.7,2.6
		c-0.2,0.2-0.4,0.3-0.5,0.4c-0.1,0.1-0.1,0.1-0.2,0.2c-0.2,0.1-0.5,0.4-0.6,0.5c-0.2,0-0.3,0-0.5,0c-0.4,0.1-0.8,0.3-1,0.6
		c-0.1,0.2-0.1,0.4-0.2,0.6c-0.1,0.1-0.3,0.2-0.4,0.3c-0.4,0.3-0.8,0.7-0.8,1.3c-0.2,1.5,1.3,1.6,1.2,3c0,0,0,0.1,0,0.2
		c-0.1,0.2-0.1,0.3-0.2,0.5c0,0-0.1,0-0.1,0c-0.3,0-0.1-0.9-0.5-0.9c-0.2,0-0.4,0.3-0.4,0.4c-0.1,0.4,0,0.9-0.1,1.4
		c-0.1,0.6-0.4,1.2-0.7,1.5c-0.3,0.3-0.5,0.5-1,0.6c0.2-0.5,0.5-0.9,0.6-1.5c0.2-0.5,0.3-1.2,0.3-1.8c0-0.3-0.1-0.6-0.1-0.9
		c0-0.4,0.3-0.7,0.2-1.2c0-0.3-0.2-0.7-0.7-0.8c-0.4,0-0.8,0.3-0.8,0.7c0,0.2,0.2,0.3,0.3,0.5c0.8,1.5,0.5,4.5-1,5.1
		c-0.1-0.7,0.3-1.2,0.4-1.8c0.2-0.9,0.2-1.9-0.2-2.7c-0.1-0.2-0.2-0.3-0.3-0.4c0-0.2,0.1-0.4,0.1-0.6c0-0.4-0.2-0.8-0.5-0.8
		c-0.3,0-0.6,0.4-0.6,0.7c0,0.4,0.3,0.9,0.6,1.2c0.2,0.3,0.4,0.8,0.5,1.3c0.1,0.8-0.3,1.5-0.6,2c-0.1,0.1-0.2,0.4-0.4,0.4
		c-0.2-0.2-0.1-0.4-0.2-0.6c-0.1-0.6-0.3-1.1-0.5-1.7c-0.3-0.8-0.8-1.7-0.7-2.9c0.1-1.5,1.3-2.5,2.4-3.2c0.4-0.2,0.8-0.5,1.3-0.6
		c0.7-0.2,1.3-0.2,1.9-0.4c2.4-0.7,4.4-2.2,5.7-4.1c0.3-0.4,0.6-0.9,0.8-1.4c0.4-0.8,0.7-1.8,0.7-2.9c0-0.2,0-0.6,0-0.8
		c0-0.2-0.2-0.5-0.2-0.7c-0.3-1.1-0.9-2-1.6-2.7c-0.2-0.2-0.4-0.4-0.6-0.5c0,0,0,0,0,0c-0.2-0.1-0.4-0.3-0.5-0.4
		c-0.2-0.3-0.2-1-0.8-0.9c-0.3,0.1-0.2,0.4-0.4,0.7c-0.5,0-0.4-0.9-0.9-0.8c-0.3,0-0.2,0.4-0.1,0.7c0,0.3,0,0.5,0,0.8
		c-0.1,0.1-0.1,0.3-0.2,0.4c-0.1,0.2-0.2,0.4-0.3,0.6c0,0,0,0,0,0c-0.1-0.2-0.1-0.3-0.1-0.5c0-0.4-0.2-0.7-0.3-1.1
		c-0.1-0.3,0-0.6-0.1-0.9c-0.1-0.2-0.4-0.4-0.6-0.5c-0.3-0.1-1,0.1-1,0.4c0,0.6,0.5,0.5,0.6,1c0.1,0.3,0.1,0.6,0,0.9
		c-0.1,0.2-0.2,0.3-0.3,0.5c-0.1,0.2-0.2,0.3-0.3,0.5c0-0.3,0-0.7-0.3-1c-0.2-0.3-0.4-0.4-0.7-0.7c-0.3-0.2-0.5-0.5-1-0.6
		c-0.3,0-0.8,0.1-0.8,0.3c0,0.2,0.6,0.2,0.8,0.3c0.6,0.1,0.8,0.5,0.7,1.2c0,0,0,0,0,0.1c0,0,0,0,0,0c-0.1,0.3-0.2,0.6-0.3,0.9
		c-0.1,0.1-0.2,0.2-0.2,0.1c-0.1,0-0.1-0.1-0.1-0.2c0-0.3,0-0.6-0.2-0.8c0,0,0,0,0,0c-0.1-0.2-0.3-0.4-0.8-0.4
		c-0.2,0-0.4,0.1-0.5,0.2c-0.4,0.2-0.6,0.8-0.8,1.2c0,0.1-0.1,0.2-0.1,0.3c0,0.1-0.1,0.1-0.1,0.2c-0.1,0.1-0.1,0.1-0.2,0.2
		c-0.3,0.4-0.4,0.9-0.5,1.4c-0.1,0.4-0.2,0.8-0.1,1.3c0.1,0.9,0.5,1.7,0.8,2.4c0,0,0,0,0,0.1c0,0.1,0.1,0.2,0.1,0.3l0.2,0.3
		c0.3,0.6,0.6,1.2,1.1,1.6c0.3,0.3,0.6,0.4,1,0.6c0.1,0,0.2,0.1,0.3,0.1c0.3,0.1,0.6,0.3,0.8,0.5c0.2,0.2,0.5,0.4,0.7,0.5
		c0.3,0.2,0.7,0.3,1,0.6C60,33,59.7,33,59.5,33.1c-0.3,0.1-0.5,0.2-0.8,0.2c-0.5,0-1.2-0.4-1.7-0.6c-1-0.6-1.8-1.2-2.5-2.1
		c-0.4-0.5-0.8-1-1-1.7c-0.1-0.2-0.7-1.1-0.6-1.4c0.1-0.2,0.4,0,0.4-0.3c0-0.2-0.4,0-0.5-0.2c-0.2-0.3-0.3-0.8-0.2-1.2
		c0.2-0.1,0.4,0.1,0.5-0.1c0-0.3-0.4-0.2-0.5-0.3c-0.1-0.2-0.1-0.7,0-0.9c0.2-0.1,0.5,0.1,0.6-0.1c0-0.3-0.4-0.2-0.5-0.3
		c0-0.1,0-0.1,0-0.2c0.1-0.4,0.1-0.7,0.2-1c0,0,0-0.1,0.1-0.1c0.1,0,0.1,0.2,0.3,0.2c0.2,0,0.3,0,0.3-0.1c0-0.2-0.4-0.1-0.6-0.1
		c0-0.1,0-0.1,0-0.2c0.3-0.7,0.6-1.4,1-2c0.5-0.6,1-1.2,1.7-1.7c0.1-0.1,0.2-0.1,0.3-0.2c0.1-0.1,0.2-0.1,0.2-0.1
		c0.6-0.4,1.3-0.7,2-0.9c0.2-0.1,0.3-0.1,0.5-0.1c0.2-0.1,0.5-0.1,0.8-0.2c0.4,0,0.6,0.1,1,0.1c0.3-0.3-0.2-0.7-0.1-1
		c0.1-0.3,0.8-0.2,1.1,0c0.4,0.2,0.5,0.6,0.9,0.9c0.4,0.3,0.8,0.3,1.4,0.3c0.3,0.1,0.6,0.1,0.8,0.2c0,0,0.1,0,0.1,0.1
		C64.6,17.9,64.7,18,64.7,18z M43.1,37.8c-0.2-0.1-0.5-0.7-0.6-1c0-0.3,0.2-0.7,0.1-1c-0.1-1-0.5-2-1.5-1.9c0,0.3,0.4,0.3,0.5,0.5
		c0.4,0.4,0.6,1.1,0.4,1.9c-0.3-1-0.7-2-1.9-2c0,0.3,0.3,0.3,0.5,0.5c0.4,0.4,0.7,0.8,0.7,1.4c0.1,0.7-0.3,1.4-0.2,2.3
		c0,0.2,0.1,0.4,0,0.5c-0.3-0.1-0.4-0.3-0.4-0.6c-0.1-0.8,0.3-1.4,0.2-2.2c-0.1-0.6-0.4-1-0.7-1.3c-0.3-0.2-1-0.5-1-0.7
		c-0.1-0.2,0.3-0.7,0-0.8c-0.2,0.1-0.2,0.3-0.3,0.6c-0.2,0.4-0.4,0.9-0.1,1.4c0.1,0.1,0.2,0.4,0.4,0.3c0.3-0.1-0.2-0.5,0-0.8
		c0.3,0,0.6,0.3,0.8,0.5c0.2,0.3,0.4,0.6,0.4,1.1c0,0.6-0.2,1.2-0.3,1.7c0,0.2,0,0.4-0.1,0.6c-0.6-0.2-0.2-1.2-0.3-1.8
		c0-0.3-0.2-0.5-0.4-0.6c-0.2,0.2,0,0.5,0.1,0.7c0,0.4-0.1,0.7-0.1,1.1c0,0.4,0.3,0.7,0.3,1c-0.6-0.1-1-0.8-0.9-1.5
		c0-0.8,0.3-1.4-0.1-1.9c-0.2-0.2-0.6-0.4-0.7-0.6c-0.1-0.5,0.7-0.9,0.4-1.3c-0.2,0-0.3,0.3-0.4,0.5c-0.3,0.5-0.8,1.2-0.9,1.9
		c0,0.4,0.1,1.1,0.4,1.1c0.3-0.1-0.2-1.3,0.3-1.4c0.8,0.2,0.6,1.8,0.2,2.4c-0.1,0.2-0.3,0.4-0.5,0.6c-0.2,0.2-0.3,0.5-0.5,0.5
		c-0.3-0.6,0.3-1,0.1-1.4c-0.5,0.1-0.7,0.9-0.4,1.4c0.1,0.1,0.3,0,0.3,0.1c0,0.4,0.2,0.6,0.2,0.9c-0.6,0-1.1-0.8-1.2-1.4
		c0-0.2,0-0.4,0-0.6c0.1-0.6,0.6-1,0.7-1.7c0-0.2,0-0.4-0.1-0.6c0-0.2-0.1-0.4-0.1-0.6c0-0.3,0.3-0.4,0.4-0.7c0-0.1,0.3-0.8,0-0.8
		c-0.2,0-0.2,0.4-0.3,0.5c-0.3,0.7-1.3,1-1.7,1.5c-0.2,0.2-0.5,0.7-0.2,0.9c0.5-0.2,0.6-0.7,1.1-0.8c0,0.7-0.5,1.1-0.9,1.6
		c-0.4,0.5-0.8,0.9-0.8,1.7c0,0.2,0.1,0.5,0,0.7c-0.3,0-0.5-0.3-0.6-0.5c-0.3-0.5-0.3-1.4-0.2-2.2c0.1-0.4,0.3-0.7,0.3-1
		c0.1-0.7-0.1-1.4-0.3-1.9c-0.1-0.2-0.3-0.8-0.6-0.7c-0.3,0.1,0,0.6,0,0.7c0.1,0.5,0.2,0.9,0.2,1.5c-0.1,1-0.9,1.6-1.5,2.1
		c-0.2,0.2-0.4,0.4-0.7,0.5c-0.1-0.7,0.4-1.4,0.8-1.8c0.3-0.3,0.7-0.4,0.7-0.9c-0.3,0-0.4,0.3-0.5,0.4c-0.2,0.1-0.4,0.2-0.6,0.4
		c-0.4,0.4-0.5,0.9-0.9,1.2c-0.2-0.3,0-1,0.2-1.2c0.2-0.2,0.6-0.4,0.8-0.7c0.1-0.1,0.3-0.3,0.4-0.6c0.1-0.2,0.2-0.6,0-0.7
		c-0.2,0-0.3,0.3-0.4,0.4c-0.1,0.1-0.3,0.3-0.5,0.4c-0.2,0.2-0.3,0.4-0.5,0.4c-0.5,0.2-1.1,0.4-1.7,0.5c-0.6,0.1-1.2,0.3-1.8,0.3
		c0.1-0.3,0.4-0.5,0.7-0.6c0.5-0.3,1.2-0.5,1.8-0.8c0.3-0.1,0.6-0.2,0.8-0.4c-0.2-0.2-0.4,0-0.6,0.1c-1,0.3-2,0.6-2.8,1.2
		c-0.3,0.2-0.6,0.5-0.9,0.7c0-0.2,0.1-0.4,0.3-0.6c0.5-0.6,1.6-0.9,2.4-1.4c0.4-0.3,0.7-0.6,1.1-0.8c0.4-0.3,0.8-0.5,1.2-0.7
		c0.5-0.3,0.7-0.8,0.8-1.4c0.2,0,0.2,0.2,0.4,0.1c0.1-0.4-0.3-0.7-0.6-0.7c-0.6-0.1-1.6,0.5-1.3,1c0.5,0,0.5-0.6,1-0.4
		c0,0.3-0.3,0.6-0.5,0.8c-0.2,0.2-0.6,0.3-0.9,0.5c-0.3,0.2-0.6,0.5-0.9,0.6c-0.3,0.1-0.6,0-0.8,0c-0.6,0-1,0.2-1.4,0.3
		c-0.2-0.4,0.1-0.7,0.2-0.9c0.2-0.2,0.4-0.4,0.8-0.5c0.6-0.2,1.5-0.2,1.9-0.6c0.5-0.5,0.2-1.5,0.6-1.9c0.1-0.1,0.5-0.4,0.7-0.4
		c0.2,0,0.9,0.2,0.9-0.2c0-0.2-0.7-0.3-0.8-0.4c-0.2-0.2-0.3-0.4-0.1-0.7c0.3,0,0.3,0.2,0.6,0.2c0.3,0,0.3-0.2,0.5-0.3
		c0.1,0,0.5-0.1,0.8,0c0.6,0.1,1,0.5,1.3,0.8c0.4,0.3,0.8,0.7,1.4,0.7c0.4,0,0.9-0.2,1.2-0.5c0.8-0.8,1.3-2.7,1.2-4.1
		c0-0.1,0-0.2,0-0.3c-0.1-0.6-0.4-1.3-0.8-1.9c-0.1-0.1-0.2-0.2-0.2-0.3c0,0-0.1-0.1-0.1-0.1c0,0-0.1-0.1-0.1-0.1
		c-0.1-0.1-0.2-0.1-0.3-0.2c-0.1-0.1-0.1-0.1-0.2-0.2c0,0-0.1,0-0.1-0.1c-0.5-0.3-1-0.5-1.6-0.5c-0.5,0-0.8,0.1-1.2,0.2
		c-0.1,0-0.2,0-0.3,0c-0.2,0.1-0.4,0.2-0.6,0.3c-0.4,0.2-0.7,0.4-1.1,0.6c-0.1,0-0.2,0.1-0.2,0.2c0,0-0.1,0-0.1,0
		c-0.1,0-0.2,0-0.3,0c-0.1-0.4,0.3-0.6,0.6-0.8c0.3-0.2,0.6-0.4,1-0.5c0.9-0.4,1.8-0.8,3.1-0.7c0.5,0.1,1.1,0.5,1.3,0.9
		c0.1,0.2,0.2,0.6,0.5,0.5c0.2-0.1,0.1-0.2,0.2-0.5c0.5-0.3,1,0.1,0.8,0.6c-0.1,0.1-0.3,0.2-0.4,0.3c-0.1,0.2,0.1,0.7,0.1,0.9
		c0.1,0.3,0.2,0.6,0.2,0.8c0,0.2,0,0.4,0,0.6c0,0.4,0.2,0.7,0.2,1.1c0.1,1.8-0.6,3.6-1.6,4.5c-0.3,0.3-1,0.6-1.5,0.3
		c-0.3-0.2-0.6-0.7-0.9-1c-0.2-0.1-0.4-0.3-0.6-0.4c-0.2-0.1-0.5-0.2-0.7,0c0.2,0.3,0.5,0.4,0.7,0.6c0.6,0.5,1.1,1.5,2.2,1.6
		c0.5,0,1-0.4,1.3-0.7c1-1,1.9-2.7,1.8-4.8c0-0.8-0.3-1.7-0.6-2.4c-0.1-0.2-0.2-0.6-0.2-0.8c0-0.3,0.5-0.4,0.5-0.9
		c0-0.5-0.5-0.9-1.1-0.9c-0.2,0-0.5,0.2-0.7,0.2c-0.2,0-0.3-0.3-0.4-0.4c-1.2-1.1-3.7-0.4-4.9,0.3c-0.2,0.1-0.3,0.3-0.6,0.3
		c0-0.3,0.3-0.3,0.5-0.4c0.3-0.2,0.6-0.5,0.9-0.7c0.1-0.1,1.2-0.2,1.2-0.4c0-0.4-0.9-0.1-1.2-0.1c-0.2,0-0.1-0.2-0.3-0.3
		c-0.4-0.1-0.8,0.8-1,0.9c-0.5,0.4-1,0.5-1.6,0.2c-0.4-0.2-0.7-0.4-0.7-0.9c0.2-0.2,0.9-0.2,0.8-0.5c-0.1-0.4-0.6,0.2-0.8,0.1
		c-0.1-0.1-0.1-0.6,0.1-0.7c0.3,0,0.9,0.1,0.9-0.2c0-0.4-0.7-0.1-0.9-0.3c0-0.5,0.9-0.1,1.1-0.4c0-0.5-0.7-0.1-0.8-0.4
		c0.1-0.5,1.1,0,1.1-0.4c0-0.2-0.4-0.1-0.5-0.3c0.1-0.5,0.6-0.7,0.6-1.2c0-0.3-0.2-0.5-0.2-0.8c0-0.6,0.4-1,0.8-1.3
		c0.1-0.1,0.2-0.1,0.3-0.2c0.1-0.1,0.1-0.3,0.2-0.4c0,0,0.1-0.1,0.1-0.1c0.3-0.2,0.7-0.4,1.2-0.6c0,0,0.1-0.1,0.1-0.1
		c0.2,0,0.4,0.1,0.5,0.2c0.4,0.2,0.8,0.7,1.1,0.9c0.9,0.7,2.1,1.4,3.3,1.7c0.2,0.1,0.5,0.1,0.7,0.3c-0.1,0.3-0.5,0.4-0.5,0.8
		c-0.1,0.4,0.2,1,0.4,1.2c0.2-0.2,0-0.4,0-0.7c0-0.2,0.2-0.5,0.3-0.6c0.3-0.4,1.4-0.8,2.2-0.8c0.7-0.1,1.4,0.1,1.3,0.9
		c-0.1,0.7-0.8,1.5-1.5,1.9c-0.2,0.1-0.5,0.2-0.7,0.2c-0.3,0-0.5-0.1-0.7,0.1c0.1,0.3,0.5,0.4,0.9,0.4c0.7,0,1.4-0.6,1.8-1
		c0.2-0.2,0.3-0.6,0.6-0.6c0.5-0.1,1,0.2,1.4,0.3c0,0.1,0,0.2,0,0.3c-0.1,0.3-0.1,0.7,0,1c0,0.1,0,0.2,0,0.2
		c-0.4,0.3-0.5-0.1-0.7-0.4c-0.1-0.2-0.6-0.5-0.7-0.2c0,0.2,0.3,0.2,0.4,0.4c0.1,0.1,0.3,0.8,0.2,1c0,0.1-0.3,0.2-0.3,0.4
		c0,0.3,0.9,0.1,1.1,0.2c0.3,0.1,0.4,0.4,0.7,0.3c0-0.5-0.7-0.6-1.1-0.8c-0.1-0.2,0-0.4,0.1-0.5c0.2-0.1,0.5,0,0.7,0
		c0.1,0.1,0.2,0.1,0.3,0.2c0.1,0,0.2,0.1,0.3,0.1c0.1,0.1,0.2,0.4,0.4,0.6c0,0.1,0.1,0.2,0.1,0.2c0,0.1,0.1,0.2,0.1,0.3
		c0.2,0.4,0.8,0.7,1.4,0.6c0.6-0.1,1.1-0.7,1-1.5c0.2,0.1,0.3,0.2,0.4,0.3c0,0.1,0,0.1,0,0.2c0.1,0.3-0.1,0.8-0.3,1.1
		c-0.1,0.1-0.1,0.1-0.2,0.2c-0.1,0.1-0.1,0.1-0.2,0.2c-0.1,0.1-0.2,0.2-0.3,0.3c-0.6,0.3-1.3,0.4-2,0.1c-0.2-0.1-0.4-0.4-0.6-0.6
		c-0.3-0.4-0.7-0.7-1.3-0.9c-0.3-0.1-0.7,0-0.9-0.2c-0.2-0.1-0.3-0.5-0.5-0.6c-0.2-0.1-0.6-0.2-0.6,0c0,0.1,0.5,0.2,0.6,0.4
		c0.2,0.4,0.1,1.4,0.5,1.7c0.4-0.1,0-0.8,0.2-1c0.6,0.1,1.1,0.4,1.4,0.7c0.6,0.5,0.8,1.2,1.6,1.4c0.2,0.1,0.5,0.1,0.6,0.3
		c-0.4,0.2-1,0.1-1.4,0c-0.1-0.1-0.2-0.2-0.4-0.3c-0.1-0.1-0.3-0.2-0.4-0.3c-0.3-0.2-0.7-0.3-1.2-0.2c0.1,0.3,0.3,0.2,0.5,0.3
		c0.5,0.2,0.8,0.7,1.2,1c0.4,0.4,0.9,0.5,1.5,0.7c-0.2,0.4-0.8,0.2-1.2,0.2c-0.1,0-0.3,0.1-0.4,0.1c-0.2,0-0.5-0.3-0.8-0.4
		c-0.4-0.2-1-0.4-1.3,0c0.1,0.2,0.4,0.1,0.6,0.1c0.7,0.1,1.2,0.8,1.9,1.1c0.3,0.1,0.6,0.1,1,0.2c0,0.1-0.1,0.1-0.1,0.2l-0.1,0.1
		c-0.1,0-0.1,0.1-0.2,0.1c-0.1,0-0.1,0.1-0.2,0.1c-0.2,0.1-0.4,0.1-0.5,0.2c-0.6,0.1-1.2-0.2-1.7-0.3c-0.3,0-1.2,0.1-1.2,0.3
		c0,0.2,0.5,0.1,0.7,0.2c0.5,0,0.8,0.1,1.2,0.3c0.4,0.3,0.8,0.6,1.3,0.7c0.3,0,0.6-0.1,0.8,0c-0.1,0.1-0.1,0.2-0.2,0.3
		c-0.1,0.1-0.1,0.1-0.2,0.2c0,0,0,0,0,0c-0.1,0.1-0.2,0.1-0.3,0.2c0,0-0.1,0-0.1,0c-0.4,0.1-0.8,0-1.1-0.1c-0.2,0-0.3,0-0.4,0
		c-0.3-0.1-0.6-0.3-1-0.3c-0.5,0-1,0.2-0.3,0.4c0.4,0.1,0.9,0.2,1.2,0.4c0.5,0.3,0.7,0.7,1.2,0.9c0.3,0.1,0.8,0.1,1.1,0.2
		c0,0.1-0.1,0.2-0.2,0.3c0,0,0,0,0,0c-0.3,0.3-0.7,0.5-1.2,0.3c-0.3-0.1-0.6-0.4-0.9-0.6c-0.3-0.2-0.8-0.3-1.1-0.1
		c0.1,0.3,0.3,0.2,0.6,0.3c0.9,0.4,1.4,1.3,2.6,1.4c0.2,0,0.4,0,0.5,0.1c-0.1,0.6-1.1,0.8-1.7,0.5c-0.2-0.1-0.5-0.5-0.7-0.7
		c-0.4-0.3-0.7-0.6-1.4-0.6c-0.2,0-0.4-0.1-0.6,0c0.1,0.3,0.5,0.4,0.8,0.5c0.3,0.1,0.6,0.2,0.8,0.4c0.1,0.1,0.2,0.3,0.3,0.4
		c0.1,0.1,0.2,0.2,0.3,0.3c0.3,0.3,0.5,0.7,0.8,0.9c0.1,0.1,0.2,0.1,0.3,0.2c0.1,0.2,0.3,0.4,0.6,0.5c-0.5,0.1-1-0.1-1.3-0.3
		c-0.6-0.5-0.8-1.3-2-1.4c-0.2,0-1.1,0.1-1.1,0.3c0,0.2,0.5,0.3,0.7,0.3c0.4,0.1,0.7,0.1,0.9,0.3c0.3,0.3,0.7,0.9,0.8,1.5
		c0,0,0,0.1,0,0.1c0,0.3,0,0.6,0,1c0,0.2,0,0.3,0.1,0.5c0,0.1,0,0.1,0.1,0.2c0,0.1,0,0.1,0.1,0.2c0,0,0,0,0,0.1
		c0.1,0.1,0.1,0.2,0.2,0.3c0,0,0.1,0.1,0.1,0.1c0,0,0.1,0.1,0.1,0.1c0.1,0.1,0.3-0.1,0.5-0.1c0.1,0,0.2-0.3,0.2-0.3c0,0,0,0,0,0
		L45,37c0,0,0,0.2-0.1,0.2c0,0.1-0.1,0.2-0.1,0.3C44.3,37.9,43.5,38.1,43.1,37.8z M24.8,38.8c0,0.2,0.3,0.5,0.3,0.7
		c0,0.2-0.6,0.5-0.8,0.5c-0.5,0-0.7-0.6-0.7-1.1c0-0.2,0.2-0.4,0-0.6c-0.6,0.1-0.5,1.1-0.3,1.5c0.1,0.2,0.3,0.3,0.3,0.5
		c0,0.2-0.5,0.4-0.7,0.4c-0.3-0.1-0.3-0.5-0.3-0.9c0-0.4-0.1-0.9,0-1.2c0-0.2,0.5-0.7,0.6-0.7c0.2,0,0.5,0.3,0.6-0.1
		c0.1-0.2-0.1-0.2-0.1-0.5c0-0.3,0.2-0.6-0.1-0.7c-0.5-0.1-0.2,1.3-0.8,1c-0.2-0.1-0.1-0.7,0-0.9c0.1-0.3,0.2-0.8,0-0.9
		c-0.3,0.1-0.3,0.5-0.3,0.7c-0.1,0.2-0.2,0.5-0.2,0.8c0,0.3,0.1,0.6,0.1,0.8c0,0.2-0.1,0.3-0.2,0.5c-0.2,0.5,0,1-0.1,1.6
		c-0.8-0.2-0.6-1.5-0.4-2.2c0.1-0.3,0.3-0.6,0.3-0.8c0-0.2-0.1-0.4-0.2-0.5c0-0.6,0.4-1.1,0.3-1.5c-0.3,0.1-0.4,0.4-0.5,0.7
		c-0.1,0.3-0.2,0.6-0.2,0.9c0,0.2,0.1,0.4,0.1,0.5c0,0.3-0.3,0.7-0.4,1c-0.1,0.4-0.1,0.8-0.3,1.1c-0.3-0.1-0.4-0.7-0.4-1.2
		c0.1-0.6,0.4-1.1,0.7-1.4c0-0.2-0.2-0.2-0.3-0.4c-0.1-0.8,0.9-1.4,0.7-2.1c-0.2-0.1-0.3,0.2-0.3,0.3c-0.2,0.3-0.3,0.5-0.5,0.9
		c-0.1,0.3-0.3,0.5-0.3,0.9c0,0.1,0.1,0.3,0.1,0.4c0,0.2-0.2,0.5-0.3,0.7c-0.1,0.3-0.1,0.5-0.3,0.8c-0.3-0.1-0.4-0.6-0.4-0.9
		c0-0.5,0.4-1.1,0.2-1.5c-0.3,0.1-0.5,0.6-0.6,1c-0.1,0.3,0,0.7-0.1,1c-0.6-0.2-0.8-1.6-0.5-2.3c0.1-0.2,0.3-0.3,0.3-0.5
		c-0.2-0.2-0.4,0.1-0.5,0.2c-0.2,0.1-0.3,0.2-0.4,0.3c-0.4,0.4-0.4,1.1-0.7,1.5c-0.5-0.1-0.7-0.7-0.5-1.3c0.1-0.2,0.2-0.3,0.3-0.6
		c0.1-0.3,0.2-0.7-0.1-0.7c-0.2,0-0.4,0.3-0.6,0.4c-0.2,0.2-0.3,0.4-0.4,0.6c-0.2,0.5-0.3,1.1-0.5,1.4c-0.8-0.3-0.5-2.5-0.1-3
		c0.1-0.2,0.5-0.2,0.5-0.4c0-0.3-0.5-0.3-0.9-0.2c-0.4,0.2-0.5,0.7-0.9,0.9c-0.1-0.4,0.1-0.8,0.2-1.3c0.2-0.4,0.6-1,0.4-1.2
		c-0.3-0.4-1.1,0.4-1.4,0.3c-0.2-0.2-0.1-0.6,0-0.8c0-0.3,0.1-0.6,0.1-0.8c0.1-0.5,0.3-1,0.3-1.6c0-0.7-0.2-1.4-0.3-2.2
		c-0.1-0.9,0-1.9,0-2.9c0-0.8-0.1-1.1,0.6-1.2c1-0.1,2.3,0.2,3.3,0.1c0,0.1,0.1,0.2,0.1,0.3c0.1,0.6,0.1,1.2,0.3,1.7c0,0,0,0,0,0
		c0.1,0.7,0.2,1.4,0.4,1.9c0.4,1.1,1,2.1,1.6,3.1c0.3,0.5,0.6,1,1,1.3c0.4,0.4,0.8,0.7,1.3,1c1,0.7,2,1.6,3.4,1.8
		c0.1,0.2,0.1,0.4,0.1,0.7c0,0.2-0.2,0.3-0.2,0.5c0,0.2,0.2,0.3,0.2,0.4c0,0.2-0.5,0.6-0.6,0.9C24.7,37,24.6,38,24.8,38.8z M18,37.4
		c-0.1-0.2,0-0.4,0-0.5c0.1,0.1,0.1,0.2,0.2,0.4C18.1,37.3,18,37.3,18,37.4z M13.1,12.4c0.1-0.7,0.6-1.4,1.3-1.4
		c0.8,0,0.4,1.2,0.6,1.9c0.1,0.1,0.2,0.3,0.3,0.4c0.1,0.2,0.1,0.6,0.2,0.8c0.1,0.3,0.3,0.5,0.3,0.7c0.1,0.5,0.1,1.6-0.2,1.9
		c-0.3-0.1-0.2-0.4-0.4-0.6c-0.2-0.1-1-0.2-1.3-0.1c-0.5,0.2-0.3,0.9-0.5,1.3c-0.5,0-0.9-0.6-0.8-1.3c0-0.2,0.2-0.3,0.3-0.5
		c0.1-0.3,0.2-0.6,0.2-0.9C13.3,13.9,13,13.2,13.1,12.4z M17.2,11c0.3,0.1,0.4,0.6,0.3,0.8c-0.1,0.4-1.1,0.4-0.9,1.1
		c0.3,0,0.3-0.2,0.5-0.4c0.3-0.2,1.1-0.4,1.1,0.2c-0.1,0.1-0.3,0.1-0.5,0.1c-0.5,0.1-1.1,0.4-1,0.9c0.3-0.1,0.5-0.4,0.9-0.5
		c0.2,0,0.6-0.1,0.8,0.1c0.1,0.1,0.2,0.5,0.3,0.7c0.1,0.3,0.2,0.5,0.2,0.7c-0.3,0.1-0.7,0-1,0.2c-0.1,0.1-0.3,0.2-0.3,0.4
		c0.1,0.3,0.7,0,1,0c0.2,0,0.5,0.3,0.7,0.5c0.3,0.5,0.4,1.3-0.1,1.6c-0.3-0.5-0.3-1.2-1-1.2c-0.7,0-0.9,0.5-1,1.1
		c-0.2,0.1-0.5,0-0.6-0.2c-0.1-0.2-0.3-0.7-0.2-1c0-0.1,0.4-0.3,0.4-0.6c0-0.2,0-0.4-0.1-0.6c-0.2-0.4-0.5-0.8-0.7-1.2
		c-0.1-0.3-0.4-1.1-0.3-1.5C15.6,11.8,16.4,10.6,17.2,11z M24.9,15.2c1.1,0.1,2.6,0.2,3.8,0.1c0.2,0,0.5-0.1,0.6,0.1
		c0.1,0.2-0.2,0.6-0.3,0.7c-0.2,0.2-0.4,0.5-0.6,0.5c-0.2,0-0.4,0-0.6,0c-0.3,0-0.6,0.1-0.9,0.1c-0.5,0-1,0-1.4,0
		c-0.1,0-0.2,0-0.3,0c-0.4,0-0.8,0-1.2,0.1c-0.1,0.1-0.3,0.1-0.4,0.2c-0.1,0.1-0.3,0.2-0.4,0.2c-0.1,0.1-0.3,0.2-0.4,0.2
		c0,0-0.1,0-0.1,0c-0.1,0.1-0.3,0.2-0.4,0.2c0,0,0,0.1-0.1,0.1c0,0,0,0,0,0c-0.1,0-0.1-0.1-0.2-0.1c-0.5-0.2-0.3-1.5-0.1-1.8
		c0-0.1,0.2-0.3,0.2-0.4c0-0.2-0.2-0.4-0.2-0.7c0-0.2,0.1-0.2,0.2-0.4c-0.1-0.2-0.4-0.2-0.4-0.4c0-0.3,0.4-0.4,0.4-0.7
		c-0.1-0.2-0.4,0.1-0.5-0.1c-0.2-0.4,0.3-0.9,0.6-0.9c0.6,0,1,0.5,1.5,0.7c0.5,0.2,1.1,0.4,1.7,0.5c0.7,0.2,1.4,0.3,2,0.2
		c0.6,0,1.3-0.2,2-0.1c0,0.3-0.2,0.4-0.3,0.6c-0.1,0.2,0,0.5-0.2,0.7c-1.2,0-2.8,0-4.1,0.1c-0.4,0-0.8,0-1.1,0.2
		C24,15.2,24.5,15.2,24.9,15.2z M17.4,21.9c0,0.1,0,0.1,0,0.2c-0.4,0.2-0.9,0.1-1.4,0c-0.8,0-1.8-0.1-2.4,0.1
		c-0.2,0.1-0.4,0.2-0.6,0.2c-0.2-0.4,0.2-1.1,0.5-1.2c0.6-0.1,1.1,0.2,1.7,0.2c0.8,0,1.6-0.2,2.2-0.2c0,0,0,0.1,0,0.2
		C17.4,21.7,17.4,21.8,17.4,21.9z M14.3,20.5c0.6,0.1,1.4,0.2,2.1,0.1c0.4,0,0.7-0.2,1-0.1c-0.2,0.5-0.9,0.5-1.5,0.6
		c-0.5,0-1,0-1.5-0.1c-0.5-0.1-0.9-0.1-1.1-0.3c-0.2,0-0.4,0.2-0.6,0.1C12.9,20.1,13.6,20.4,14.3,20.5z M36.1,27.3
		c-0.4-0.2-0.4-0.4-0.8-0.7c-1.3-1-3.5-1.1-5.4-0.6c-1,0.3-1.7,0.6-3,0.5c-0.7-0.1-1.4-0.4-1.8-0.9c-0.4-0.5-0.9-1.2-0.8-2
		c0-0.1,0.1-0.2,0.1-0.2c0,0,0,0,0.1,0c0.5,1.5,2.1,2,4.1,2c0.7,0,1.4-0.2,2.1-0.3c1.7-0.3,3.6-0.2,4.7,0.6
		C35.8,26.1,36.3,26.6,36.1,27.3z M36.2,25.1c-0.7-0.5-1.7-0.9-2.9-1.1c0.1-0.2,0.2-0.4,0.2-0.6c0.2,0.3,0.4,0.5,0.8,0.5h0
		c0.6,0,0.7-0.7,0.7-0.9c0-0.1,0-0.1,0-0.2c0,0,0-0.1,0-0.1c0.1,0,0.2,0.1,0.4,0.4c0.4,0.4,0.7,0.9,0.8,1.7l0,0.1
		c0,0.1,0,0.2,0.1,0.3C36.4,25.2,36.3,25.2,36.2,25.1z M30.2,24.2c-0.7,0.1-1.5,0.2-2.2,0.2c-0.7,0-1.2-0.1-1.6-0.3
		c-0.3-0.1-0.7-0.6-0.7-0.8c0-0.2,0-0.7,0.1-0.9c0.1-0.1,0.3-0.4,0.3-0.7c-0.1-0.3-0.3-0.6-0.7-0.6c-0.3,0-0.6,0.2-0.7,0.2
		c-0.8,0.5-1.3,1.3-1.4,2.3c0,1.2,0.5,2,1,2.6c0.6,0.7,1.3,1.2,2.2,1.4c1,0.3,2.2,0,3-0.2c0.3-0.1,0.5-0.2,0.8-0.2
		c0.6-0.2,1.1-0.4,1.6-0.4c0.1,0,0.3,0,0.4,0c1.1,0,2.5,0.3,3,1.7l0,0.1c0,0,0,0.1,0,0.1c-0.1,0-0.1,0-0.2,0
		c-0.3-0.1-0.6-0.3-0.8-0.6c-0.1-0.1-0.1-0.1-0.2-0.2c-0.3-0.2-1-0.8-1.9-0.8c-0.3,0-0.5,0-0.8,0.1c-0.1,0-0.2,0.1-0.3,0.2
		c0,0-0.1,0.1-0.1,0.1c0,0-0.1,0-0.1,0c-0.1,0-0.3-0.1-0.4,0c-0.3,0-0.5,0.2-0.7,0.5c-0.2,0.3-0.2,0.8-0.2,1.2
		c-0.1,0-0.1,0.1-0.2,0.1c-0.4,0.3-0.7,0.9-0.8,1.3c0,0.2,0,0.3,0,0.5c0,0.1,0,0.3,0,0.3c-0.1,0.1-0.6,0.2-0.8,0.3l-0.2,0
		c-0.5,0.1-1.2,0.3-1.6,0.7c-0.1,0.1-0.2,0.2-0.3,0.3c-0.2,0.2-0.2,0.2-0.4,0.2c-0.4,0-0.9-0.4-1.3-0.7l-0.2-0.2
		c-0.3-0.2-0.7-0.5-1-0.7l-0.3-0.2c-0.8-0.6-1.4-1.2-1.9-2.2c-0.1-0.2-0.3-0.5-0.4-0.7c-0.4-0.7-0.8-1.4-1-2.2
		c-0.3-1-0.5-2.2-0.6-3.6c0-0.6,0-1.4,0.2-1.8c0,0.1,0,0.3,0,0.5c0.1,0.8,0.8,1.4,1.8,1.4c0.3,0,0.7-0.1,1-0.2
		c0.7-0.3,1-0.9,1.1-1.7c0-0.5-0.1-1.3-0.2-1.6c-0.1-0.2-0.2-1.1-0.2-1.1c0,0,0.1,0,0.1,0c0.6,0,1,0.1,1.4-0.1
		c0.3-0.2,0.6-0.2,1-0.2c0.4,0,0.8,0.1,1.3,0.1c0.4,0,0.9,0.1,1.3,0.1c0,0.1-0.1,0.3-0.1,0.4c-0.1,0.4-0.3,1.5,0.1,2.3
		c0.3,0.6,0.9,1.2,1.6,1.5c0.1,0,0.2,0.1,0.3,0.1c0,0.1,0,0.3,0,0.4c0,0.1,0,0.2,0,0.3c0,0.1,0,0.2,0,0.2c0,0.3-0.1,0.7,0.2,1
		c0.1,0.1,0.3,0.3,0.7,0.3c0.4,0,0.6-0.2,0.8-0.4c0,0,0,0,0.1-0.1c0,0.1,0.1,0.2,0.1,0.3C30.7,24.1,30.5,24.1,30.2,24.2z M19.2,18.2
		c0-0.2,0.1-0.3,0.3-0.3C19.6,18.1,19.4,18.3,19.2,18.2z M26.5,34.7c0.2-0.1,0.5-0.3,0.8-0.2c-0.1,0.2-0.4,0.3-0.6,0.5
		c-0.2,0.1-0.5,0.3-0.7,0.3C26,34.9,26.3,34.8,26.5,34.7z M34.2,22.5c-0.1-0.1-0.2-0.2-0.2-0.3c0-0.1,0.2-0.2,0.4-0.1
		c0,0,0,0.1,0,0.1C34.3,22.3,34.2,22.4,34.2,22.5z M21.2,9c-0.2,0.8-0.4,1.3-0.4,2.2c0,0.4,0.1,0.9,0.1,1.2c0,0.2-0.1,0.3-0.1,0.5
		c0,0.9,0.2,1.9,0.1,2.9c0,0.4-0.1,0.8-0.1,1.2c0,0.6,0.2,1.2,0.3,1.7c0.1,0.6,0.6,1.7,0.1,2.2c-0.4,0.4-1.3,0.3-1.4-0.3
		c0-0.4,0.2-0.8,0.2-1.3c0.1-0.5,0.1-1.2,0.1-1.7c0-0.3-0.2-0.4-0.2-0.6c0-0.2,0-0.4,0-0.6c0-0.3,0-0.6-0.1-0.8
		c-0.1-0.2-0.2-0.4-0.3-0.6c-0.1-0.5,0.1-1.1,0.1-1.5c0.1-0.6,0-1,0.2-1.4c0.1-0.2,0.4-0.3,0.4-0.5c0-0.2-0.2-0.2-0.3-0.4
		c0-0.1,0-0.2,0-0.4c-0.1-0.4-0.1-1-0.2-1.6c-0.1-0.5-0.4-0.8-0.3-1.1c0.1-0.4,0.5-0.5,1-0.5c0.3,0,0.8,0,0.9,0.2
		C21.5,8.2,21.3,8.8,21.2,9z M13.2,17.9c0.2,0.1,0.4,0.1,0.5,0.2c0.2,0.1,0.2,0.7,0.4,0.9c0.2,0.3,0.4,0.7,0.6,0.7
		c0.6,0,0.7-1.3,0.9-1.7c0.1-0.1,0.3-0.4,0.4-0.4c0.2,0,0.6,0.3,0.9,0.4c0.1,0.5-0.7,0.8-0.6,1.3c0,0.2,0.3,0.3,0.6,0.2
		c0.3,0,0.6-0.3,0.9-0.5c0.4-0.3,0.7-0.7,1.4-0.7c-0.1,0.4-0.5,0.7-0.8,0.9c-0.4,0.3-1,0.8-1.7,0.8c-0.5,0-1-0.1-1.5-0.1
		c-0.5,0-1.1,0.1-1.5-0.1c-0.2-0.1-0.2-0.2-0.4-0.3c-0.2-0.1-0.4,0-0.5-0.2c-0.1-0.2,0-0.3,0-0.4c-0.1-0.1-0.3-0.2-0.5-0.3
		c-0.1-0.1-0.3-0.4-0.2-0.7c0-0.1,0.5-0.3,0.6-0.3C12.9,17.6,12.9,17.8,13.2,17.9z M27.3,37.4c-0.1,0.2-0.3,0.4-0.4,0.6
		c-0.2,0.2-0.3,0.3-0.5,0.5c-0.3,0.3-0.6,0.7-1.1,0.8c-0.1-0.5,0.2-0.9,0.6-1.3C26.2,37.7,26.8,37.3,27.3,37.4z M33.4,8.7
		C33.5,8.7,33.5,8.7,33.4,8.7c0.2,0.3,0.1,0.8-0.3,0.9C33.1,9.3,33.4,9,33.4,8.7z M32.7,11.3c0.5-0.2,1.1,0.5,1.5,0.9
		c0.4,0.4,1.1,0.6,1.5,0.8c0.6,0.2,1.1,0.5,1.6,0.8c0.5,0.3,1.1,0.5,1.5,0.8c-2-0.3-3.7-1-4.9-2.2c-0.2-0.2-0.4-0.4-0.6-0.6
		C33.1,11.8,32.8,11.7,32.7,11.3C32.7,11.4,32.7,11.4,32.7,11.3z M32.4,8.4c0.2,0,0.3,0.2,0.5,0.2c0.2,0.6-0.9,1.3-1,0.4
		C31.8,8.7,32.1,8.3,32.4,8.4z M44.6,16c0-0.4,0.3-0.7,0.7-0.9c0.1-0.1,0.4-0.2,0.6-0.2c0.2,0,0.4,0,0.7,0c0.3-0.1,0.5-0.4,0.8-0.4
		c0.2,0,0.6,0.1,0.9,0.1c2.3,0.1,4.7,0,7,0c2.4,0,4.8,0,7.1,0c0.3,0,0.6,0.1,0.9-0.2c-0.1-0.2-0.5-0.2-0.8-0.2c-2.3,0-4.7,0-7,0
		c-2,0-4-0.2-6-0.1c-0.6,0-1.3,0.1-1.9,0.1c-0.1-0.3-0.2-1,0.2-1.1c0.1,0,0.2,0.1,0.3,0.1c0.9,0.1,2,0,3,0c1.1,0,2.3,0,3.7,0l6.4,0
		c0.2,0,0.4,0,0.6,0c0.5,0,0.9,0,1.1,0c0.3,0.1,0.7,0.3,1,0.5c0.2,0.1,0.4,0.2,0.6,0.3c0.2,0.1,0.3,0.1,0.5,0.2
		c0.1,0,0.2,0.1,0.3,0.1c0,0,0,0,0,0.1c0,0,0,0,0,0.1c-0.2,0.1-0.3,0.1-0.5,0.2c-0.2,0.1-0.4,0.2-0.6,0.3c-0.2,0.1-0.4,0.2-0.6,0.3
		c-0.3,0.2-0.6,0.3-1,0.4c0,0-0.1,0-0.1,0c-0.1,0-0.2,0-0.4,0.1c-0.2,0-0.4,0-0.6,0c-0.8,0-1.7,0-2.6,0c0,0,0,0,0,0
		c-0.1,0-0.1,0-0.2,0c-0.3,0-0.5,0-0.8,0c-1.6,0-3.2,0.1-4.8,0.1c-2.2,0-4.5,0.1-6.8,0.2c-0.2,0-0.4,0-0.6,0c-0.1,0-0.1,0-0.2,0
		c-0.2,0-0.3,0-0.5,0C44.9,16.1,44.8,16.1,44.6,16z M45.4,13.2c-0.2,0.2-0.2,0.7-0.3,1c-0.4-0.1-0.2-0.6-0.1-0.7
		c0.2-0.2,0.5-0.5,0.7-0.6c0,0,0,0,0.1,0C45.7,13.1,45.6,13.1,45.4,13.2z M46.2,13.4c0.4-0.1,0.6,0.1,0.6,0.3
		c0.1,0.7-1.1,0.8-1.2,0.3C45.6,13.6,45.9,13.5,46.2,13.4z M62.9,45.9c-0.5,0.5-2.2,1.9-4.4,2.1c-1.9,0.1-3-0.8-4.1-1.9
		c-0.7-0.7-1.3-1.4-1.8-2.1c-0.3-0.3-0.6-0.7-0.8-1c-1-1.2-2-2.1-3-2.9c-0.6-0.5-1.3-0.9-1.9-1.3l-0.8-0.5c-0.1-0.1-0.2-0.2-0.4-0.3
		c0,0,0,0,0,0c0.2-0.2,0.4-0.5,0.3-0.9c0-0.2-0.2-0.4-0.4-0.6c0,0-0.1-0.1-0.2-0.1c-0.2,0-0.3,0-0.4,0l-0.3,0c-0.1,0-0.1,0-0.1,0
		c-0.3-0.1-0.4-0.8-0.3-1.5c0.2,0.1,0.5,0.2,0.9,0.2c1.2,0,1.8-1,2-1.3c0.1-0.1,0.3-0.3,0.2-0.6c0-0.1-0.1-0.2-0.1-0.3
		c-0.2-0.2-0.6-0.2-0.9-0.1c0,0,0,0,0,0c0.3-0.2,0.5-0.4,0.6-0.6c0.3-0.4,0.6-0.9,0.6-1.5c0-0.2-0.2-0.4-0.4-0.5c-0.1,0-0.3,0-0.4,0
		c0.3-0.3,0.6-0.8,0.6-1.4c0-0.2-0.1-0.4-0.4-0.5c-0.1,0-0.2,0-0.2,0c0.1-0.2,0.3-0.4,0.4-0.5c0.1-0.2,0.2-0.3,0.3-0.5l0.1-0.1
		c0.2-0.3,0.5-0.6,0.5-1.2c0-0.1-0.1-0.3-0.2-0.3c0,0-0.1,0-0.1-0.1c0.2-0.1,0.5-0.4,0.5-0.8c0-0.2-0.1-0.4-0.2-0.5
		c0,0-0.1-0.1-0.1-0.1c0.1-0.1,0.2-0.2,0.3-0.4c0.1-0.2,0.1-0.4-0.1-0.6c0,0,0,0,0,0c0.3-0.2,0.6-0.6,0.4-1c0-0.1-0.1-0.2-0.2-0.3
		c0.3-0.3,0.7-0.9,0.6-1.6c-0.1-0.9-0.7-1.8-1.7-1.9c-0.6-0.1-1.2,0.1-1.5,0.5c-0.1,0.1-0.2,0.3-0.2,0.4c-0.1-0.2-0.3-0.5-0.5-0.7
		c-0.1-0.1-0.3-0.2-0.4-0.2c-0.1,0-0.1-0.1-0.1,0c-0.2-0.3,0-0.9,0.1-1.2c2.8-0.1,5.8-0.2,8.6-0.3c1.5,0,3.1-0.1,4.6-0.1
		c-3.4,1-5.7,3.7-6.3,7.4c-0.4,2.5,0.4,4.9,1.4,6.3c0.9,1.4,2.2,2.6,3.4,3.3c0,0-0.1,0-0.1,0c-0.2,0.1-0.4,0.2-0.5,0.2
		c-0.5,0.3-0.9,0.6-1.1,0.9c-0.6,0.6-1.3,1.6-1.4,2.8c-0.1,1.2,0.3,2.2,0.7,3.1c0.3,0.7,0.5,1.3,0.6,2c0,0.5-0.1,0.8-0.2,1.2
		l-0.1,0.2c0,0.1,0,0.2,0,0.3c0,0.1,0.1,0.3,0.4,0.4c0,0.1,0,0.1,0.1,0.2c0.1,0.2,0.4,0.4,0.6,0.4c0.3,0,0.6-0.1,0.8-0.3l0.1-0.1
		c0.1-0.1,0.3-0.2,0.4-0.2c0.1-0.1,0.3-0.2,0.4-0.2c0.1,0,0.2,0,0.4,0c0.1,0,0.3,0,0.4,0c0.6-0.1,1.2-0.5,1.6-0.9
		c0.3-0.3,0.5-0.6,0.7-0.9c0.1-0.1,0.2-0.3,0.3-0.4c0.1-0.1,0.1-0.1,0.2-0.2c0.1-0.1,0.2-0.2,0.3-0.4c0.5-0.6,1.5-1.9,1-3.2
		c-0.1-0.3-0.4-0.6-0.5-0.8c-0.1-0.1-0.3-0.3-0.3-0.4c0-0.1,0-0.2,0.1-0.3c0-0.1,0-0.2,0.1-0.2c0-0.1,0-0.2,0.1-0.3
		c0-0.1,0-0.3,0.1-0.3c0,0,0.1-0.1,0.2-0.2c0.1,0,0.2,0.1,0.5,0.1c0.2,0,0.3,0,0.4-0.1c0.1,0.1,0.5,0.5,0.6,0.6
		c0.1,0.1,0.1,0.2,0.2,0.2l0.1,0.2c1.1,1.3,2,2.4,1.9,4.6C65,43.8,63.8,45.1,62.9,45.9z M43.6,16.5c-0.5,0-0.9-0.1-1.3-0.3
		c-0.1-0.5,0.4-0.3,0.8-0.2c0.3,0,0.6,0,0.7,0.1C43.8,16.3,43.7,16.4,43.6,16.5z M56.9,29.8c-0.3-0.3-0.6-0.8-0.8-1.3l-0.2-0.3
		c-0.2-0.4-0.4-0.8-0.6-1.2c-0.4-1.1-0.3-2.4,0.3-3.4c0.1-0.1,0.2-0.2,0.3-0.4c0.1-0.1,0.1-0.2,0.2-0.4c0.1-0.2,0.2-0.8,0.3-0.9
		c0,0,0-0.2,0.1-0.2c0,0,0,0,0,0s0,0.4,0,0.5c0,0.4,0,0.9,0.4,1.2c0.1,0.1,0.1,0.2,0.3,0.2c0.4,0,0.8-0.1,1.2-0.4c0,0,0,0,0.1,0
		c0,0,0,0.1,0.1,0.1c0.1,0.1,0.2,0.1,0.2,0.2c0,0,0.2,0,0.2,0c0.4,0,0.6-0.3,0.8-0.5c0.1-0.1,0.3-0.3,0.4-0.5c0,0.3,0,0.6,0.3,0.9
		c0.1,0.1,0.2,0.1,0.4,0.1c0.4-0.1,0.7-0.4,0.8-0.6c0,0,0-0.1,0.1-0.1l0.2-0.2c0,0,0.1-0.1,0.1-0.1c0,0.1,0,0.2,0.1,0.3
		c0.1,0.2,0.2,0.3,0.4,0.3c0,0,0.2,0,0.2,0c0.6,0,1.2-0.8,1.3-1c0.2-0.3,0.3-0.5,0.3-0.8c0.1,0.1,0.2,0.2,0.3,0.3
		c1,1.2,1.5,2.4,1.4,4c-0.1,2.4-1.9,4.1-3.3,5.2c-0.2,0.2-0.5,0.4-0.8,0.6l-0.1,0.1c-0.2,0.1-0.5,0.3-0.7,0.3
		c-0.1,0-0.1-0.1-0.2-0.1c-0.1-0.1-0.3-0.1-0.4-0.2c-0.2-0.1-0.4-0.1-0.6-0.2c-0.2-0.1-0.5-0.3-0.7-0.5c-0.4-0.2-0.7-0.5-1.1-0.7
		c-0.1-0.1-0.2-0.1-0.3-0.2C57.4,30,57.1,29.9,56.9,29.8z M63.2,21.1c-0.1-0.1,0-0.3,0-0.4C63.4,20.8,63.4,21.1,63.2,21.1z
		 M1.4,47.4c0-0.3,0.1-0.5,0.1-0.8C1.5,46.9,1.5,47.1,1.4,47.4c0,0.2,0,0.4,0,0.6c0,0,0,0,0,0V47.4z M35.7,54.8
		c-0.1,0.1-0.3,0.3-0.4,0.4c-0.2,0-0.4,0-0.6-0.1c0,0,0,0,0,0c0,0,0,0,0-0.1c0-0.1,0.1-0.1,0.3-0.1c0,0,0.1,0,0.1,0
		C35.3,54.9,35.5,54.9,35.7,54.8z M61,67.5c0.1,0,0.1,0,0.1,0.1c0,0-0.1,0-0.1,0.1C61,67.7,60.9,67.7,61,67.5
		C61,67.6,61,67.6,61,67.5z M40.5,60.6c0-0.6,0.2-1.9,0.6-1.9c0.1,0,0.1,0,0.2,0.1c0,0.5-0.4,1.2-0.3,1.9c0,0.2,0.2,0.4,0.1,0.6
		C40.8,61.5,40.5,61,40.5,60.6z M39.9,60.7c0,0.4,0.1,0.6,0.1,0.9c-0.7,0-0.4-1.5-0.2-2c0,0,0.1,0.1,0.1,0.1c0,0,0,0,0,0
		C40.2,59.7,39.9,60.3,39.9,60.7z M60.8,66.4c0-0.2,0.3-0.2,0.3-0.1C61.1,66.6,60.8,66.6,60.8,66.4z M40.6,56.9
		c0-0.1,0.1-0.1,0.2-0.1c0.2,0.2,0.3,1.4-0.2,1.3C40.5,58.1,40.5,57.2,40.6,56.9z M61,78.6c-0.1,0.2-0.4,0-0.4-0.1
		C60.6,78.3,61,78.2,61,78.6z M63.8,72.6c0,0.2-0.2,0.2-0.3,0.1C63.6,72.5,63.8,72.5,63.8,72.6z M64.5,75.2c0-0.2,0.2-0.2,0.3-0.1
		c0,0.1,0,0.1-0.1,0.2C64.6,75.3,64.5,75.2,64.5,75.2z M64.3,76.7c0.2-0.2,0.5-0.5,0.8-0.3c0,0.2-0.2,0.2-0.4,0.3
		c-0.2,0.2-0.3,0.7-0.6,0.7C63.9,77.4,64.2,76.9,64.3,76.7z M63.1,62.7c-0.2,0.1-0.3,0.3-0.5,0.3c-0.1-0.5,0.8-0.8,1.3-0.8
		c0.2,0,0.4,0,0.5,0.2C64.1,62.7,63.5,62.5,63.1,62.7z M63.6,71c0-0.1,0.1-0.2,0.3-0.3c0.2,0,0.4,0,0.4,0.1
		C64.3,71.2,63.7,71.3,63.6,71z M63.7,71.5c0.1-0.1,0.3,0,0.4,0.1C64.2,72.1,63.1,71.7,63.7,71.5z M41.8,58.2
		c0.1-0.2,0.2-0.4,0.2-0.6c0-0.1-0.2-0.2-0.3-0.3c-0.2-0.4,0.2-1.6,0.4-1.6c0,0,0.1,0,0.2,0c0,0.4-0.1,0.8-0.2,1.2
		c0,0.1-0.1,0.3-0.1,0.5c0,0.1,0.2,0.2,0.2,0.3c0,0.2-0.3,0.8-0.3,1.1c-0.1,0.5-0.3,1.2-0.1,1.6c-0.2,0.5-0.7,0.2-0.6-0.4
		C41.4,59.4,41.6,58.6,41.8,58.2z M64.4,76c0.1,0,0.3,0,0.3,0.1c0.1,0.3-0.6,0.4-0.7,0.1C64,76.1,64.2,76,64.4,76z M63.2,69.7
		c0.1-0.4,0.9-0.7,1.1-0.3c0,0.2-0.3,0.2-0.5,0.3C63.6,69.7,63.3,69.9,63.2,69.7z M64.3,70.1c0.1,0.3-0.7,0.5-0.9,0.3
		C63.4,70,64.2,69.9,64.3,70.1z M60.7,76.9c0.1,0.1,0,0.3-0.1,0.3C60.2,77.4,60.3,76.7,60.7,76.9z M57.8,59.3
		c-0.2-0.1-0.2-0.4,0-0.5C58.3,58.6,58.3,59.5,57.8,59.3z M57.4,63.6C56.9,63.9,57.2,63,57.4,63.6L57.4,63.6z M55.9,62.7
		C55.9,62.7,55.9,62.8,55.9,62.7c0.1,0.3-0.2,0.3-0.3,0.2C55.6,62.7,55.8,62.6,55.9,62.7z M66.5,39.5c0,0,0.1,0,0.1,0
		c0,0,0,0.1,0,0.1C66.5,39.6,66.5,39.6,66.5,39.5z M57.4,58.1c0,0.3-0.1,0.6-0.3,0.7C56.5,58.8,57.1,57.8,57.4,58.1z M60.5,60.6
		c0,0.2-0.1,0.3-0.2,0.5c-0.1,0.2,0,0.5-0.3,0.5C59.6,61.5,60.1,60.2,60.5,60.6z M58.6,64.1c0-0.2,0.4-0.3,0.5-0.2
		C59.1,64.2,58.7,64.3,58.6,64.1z M61,79.9c-0.3-0.1-0.6-0.2-0.9-0.4C60.4,79,61.5,79.3,61,79.9z M14.3,26c0.1-0.3,0.5-0.6,0.8-0.4
		C14.9,25.8,14.5,26.2,14.3,26z M55.3,57.6c-0.1-0.1-0.1-0.2-0.1-0.4c0-0.4,0.8-1.4,1.2-1.4c0.5,0,0,0.3-0.1,0.4
		c-0.1,0.1-0.3,0.2-0.4,0.3C55.8,56.9,55.7,57.4,55.3,57.6z M61.9,75.8C61.9,75.9,61.8,75.9,61.9,75.8
		C61.3,75.9,61.9,75.3,61.9,75.8z M63.6,48.3c-0.2,0.1-0.3-0.1-0.3-0.2C63.3,47.7,63.8,47.9,63.6,48.3z M61,61.3
		c0.1,0,0.3,0.2,0.4,0.3c0.2,0.1,0.3,0.3,0.2,0.4c-0.2,0.1-0.3-0.2-0.5-0.2C60.6,62.2,60.6,61.3,61,61.3z M54.9,54.4
		c0.1-0.2,0.4-0.2,0.5-0.3c0.4-0.2,0.8-0.5,1.1-0.5c0.1,0,0.2,0,0.3,0.1c0,0.2-0.3,0.3-0.4,0.4c-0.4,0.2-0.7,0.3-1,0.6
		c0,0-0.3,0.3-0.4,0.3C54.7,54.8,54.8,54.5,54.9,54.4z M64.5,47c0,0.1,0,0.2-0.1,0.2C64.1,47.2,64.3,46.7,64.5,47z M55.4,52.1
		c0.4-0.1,0.8-0.2,1.2-0.1c0,0.2-0.3,0.2-0.5,0.2c-0.2,0-0.4,0.1-0.5,0.2c-0.3,0.1-0.7,0.4-1,0.2C54.6,52.4,55,52.2,55.4,52.1z
		 M46,39.9c0.1-0.1,0.4,0.1,0.2,0.2C46.1,40.2,46,40.1,46,39.9z M26.1,41.3c0.1,0.1,0.1,0.3-0.1,0.4C25.9,41.7,25.8,41.3,26.1,41.3z
		 M33.6,41.9c0,0.3-0.5,0.5-0.6,0.7c-0.1,0.2-0.1,0.5-0.4,0.5c-0.1,0-0.1-0.1-0.2-0.1c-0.1-0.5,0.5-1.2,0.9-1.3
		C33.4,41.7,33.6,41.7,33.6,41.9z M35.1,43.2c0,0.2-0.1,0.3-0.2,0.3C34.6,43.5,34.8,42.8,35.1,43.2z M24.9,41.9
		c0.2-0.1,0.4,0.1,0.3,0.3C25,42.3,24.8,42.1,24.9,41.9z M25.4,43.8c0,0.2-0.3,0.2-0.4,0.3c-0.2,0.1-0.4,0.4-0.5,0.6
		c-0.1,0.2-0.1,0.8-0.3,0.8c-0.1,0-0.3-0.1-0.3-0.2c-0.1-0.3,0.2-0.8,0.4-1c0.2-0.3,0.4-0.7,0.7-0.7C25.2,43.6,25.4,43.6,25.4,43.8z
		 M46.3,40.8c-0.1-0.3,0.4-0.2,0.2,0C46.5,40.9,46.4,40.9,46.3,40.8z M24.1,42c0.1,0.2,0.2,0.6,0,0.7C23.9,42.7,23.8,41.9,24.1,42z
		 M38.9,45.2c-0.1,0.1-0.4,0.8-0.6,0.8c-0.2,0-0.2-0.4-0.1-0.7c0.1-0.2,0.3-0.4,0.4-0.6c0.1-0.2,0.2-0.4,0.4-0.6
		c0.1-0.2,0.2-0.5,0.4-0.6c0.2-0.1,0.6-0.4,0.8-0.2c-0.2,0.3-0.5,0.4-0.7,0.7C39.3,44.5,39.1,44.9,38.9,45.2z M38.3,44.4
		c-0.1,0.2-0.2,0.8-0.5,0.7c-0.2,0-0.1-0.4-0.1-0.6c0.1-0.2,0.4-0.7,0.5-1c0,0,0-0.1,0.1-0.1c0.1,0,0.1,0,0.2,0
		C38.6,43.8,38.4,44.1,38.3,44.4z M39.5,58.5c0,0,0-0.1-0.1-0.1c0.1-0.2,0.2-0.6,0.4-0.5C40,58.1,39.9,58.5,39.5,58.5z M39.6,45.4
		c-0.1,0.2-0.1,0.3-0.2,0.6c0,0.1-0.1,0.5-0.3,0.5c-0.1,0-0.2-0.1-0.2-0.4c0-0.6,0.8-1.5,1.2-1.8c0.1,0,0.2,0,0.2,0.1
		C40.2,44.8,39.9,45,39.6,45.4z M22.2,46.7c-0.3-0.2-0.1-0.7-0.1-1.1c0-0.2-0.2-0.3-0.1-0.5C22.5,45.1,22.7,46.5,22.2,46.7z
		 M45.6,44c-0.1-0.2,0.1-0.7,0.4-0.6C46,43.8,45.8,44,45.6,44z M40.5,45.5c-0.2,0.2-0.3,0.5-0.4,0.8c-0.1,0.3-0.1,0.6-0.4,0.8
		c-0.5-0.6,0.2-1.5,0.5-2c0.1-0.1,0.3,0,0.3-0.2c0.2-0.4,0.1-1.3,0.3-1.3c0,0,0.1,0,0.1,0c0.2,0,0,0.6,0,1c0,0.1,0.1,0.3,0.1,0.4
		C41.1,45.3,40.7,45.3,40.5,45.5z M44.6,39.5c-0.2-0.1,0-0.4,0.2-0.3C44.9,39.4,44.8,39.5,44.6,39.5z M43.6,38.8
		c0.1,0,0.2,0.3,0.1,0.4C43.4,39.2,43.4,38.8,43.6,38.8z M9.5,42.4c0,0,0,0.1,0,0.1c0,0-0.1,0-0.1,0c0,0,0-0.1-0.1-0.1
		C9.3,42.5,9.4,42.4,9.5,42.4z M10.2,43.1c0.1,0,0.1,0,0.2,0c0,0.1-0.1,0.2-0.2,0.1C10.2,43.2,10.2,43.1,10.2,43.1z M12.7,45.2
		c0.1,0.2,0,0.4-0.2,0.4c0,0,0,0-0.1,0C12.3,45.4,12.5,45.1,12.7,45.2z M12,44.8c-0.1,0.4-0.2,0.8-0.6,0.9
		C11.3,45.3,11.6,44.7,12,44.8z M64.9,36.1c0,0.2-0.4,0.2-0.4,0C64.5,35.9,64.9,35.9,64.9,36.1z M66.2,38.1c0.1,0.1,0.1,0.3,0,0.4
		C66,38.5,66,38,66.2,38.1z M65.6,37.1c0,0,0,0.1,0,0.1c0,0-0.1,0-0.2,0C65.3,37.1,65.5,36.9,65.6,37.1z M19.5,45.6
		c-0.2,0-0.4,0-0.6-0.1C18.9,45.1,19.7,45.3,19.5,45.6z M13.6,45.2c0,0.1,0,0.2-0.1,0.2c-0.1,0-0.1,0-0.2-0.1
		C13.3,45.2,13.5,45.1,13.6,45.2z M21.2,46.7c-0.2-0.3,0-0.9-0.1-1.3c0-0.1,0.1-0.1,0.1-0.1C21.6,45.6,21.6,46.6,21.2,46.7z
		 M21.1,43.8c0-0.2,0.3-0.2,0.3-0.1C21.4,44,21.2,44,21.1,43.8z M18.3,48.1c0,0.1,0,0.1-0.1,0.1c-0.1,0-0.1,0-0.1-0.1
		c0-0.1,0-0.1,0.1-0.1C18.3,48,18.3,48.1,18.3,48.1z M14.1,46.4c0,0.1,0,0.2-0.1,0.2C13.7,46.6,13.8,46.2,14.1,46.4z M16.2,47.2
		c-0.1,0-0.1-0.1-0.2-0.1C16.1,46.7,16.5,47,16.2,47.2z M16.3,45.6c0.1,0.1,0.1,0.4,0,0.4C16,46.1,16,45.5,16.3,45.6z M52.1,57.9
		c0,0.2,0,0.8-0.3,0.8C51.5,58.7,51.7,57.7,52.1,57.9z M50,52.6c-0.6,0-0.2-0.6,0.1-0.1C50.1,52.5,50,52.5,50,52.6z M49.7,51.1
		c0,0.2-0.2,0.2-0.3,0.1C49.3,51,49.6,51,49.7,51.1z M41.4,45.9c-0.2,0.3-0.4,0.6-0.5,1.2c0,0.2,0,0.6-0.3,0.6
		c-0.2,0-0.2-0.2-0.2-0.4c0-0.7,0.4-1.2,0.7-1.6c0.1-0.1,0.4-0.2,0.4-0.4c0-0.1,0-0.3,0-0.4c0-0.4,0.1-0.9,0.3-1.1
		c0.1-0.1,0.3-0.3,0.4-0.1c0,0.2-0.2,0.3-0.2,0.5c-0.1,0.1-0.1,0.4-0.1,0.6c0,0.2-0.1,0.3-0.2,0.5c0,0.1,0,0.2,0,0.3
		C41.6,45.6,41.5,45.7,41.4,45.9z M49.6,50.4c0,0,0.1,0,0.1-0.1c0.1,0,0.2,0.1,0.2,0.2c0,0-0.1,0.1-0.1,0.1
		C49.7,50.6,49.6,50.6,49.6,50.4z M51.4,53.2C51.5,53.3,51.5,53.3,51.4,53.2c-0.1,0.3-0.1,0.6-0.4,0.8
		C50.9,53.7,51.1,53.3,51.4,53.2z M50.9,51c0,0.2-0.2,0.2-0.3,0.3c-0.2,0.2-0.3,0.5-0.6,0.6C49.6,51.7,50.5,50.7,50.9,51z M50.9,45
		C50.9,45.1,50.9,45.1,50.9,45c0.1,0.1,0.1,0.2,0,0.2C50.8,45.2,50.8,45.1,50.9,45z M49.9,54.1c-0.4-0.1,0.3-0.9,0.6-0.5
		C50.4,53.7,50.1,54.1,49.9,54.1z M59,76.6c0,0.2-0.1,0.2-0.2,0.2C58.7,76.7,58.9,76.4,59,76.6z M52.7,59.3c0,0.4-0.6,0-0.2-0.2
		C52.5,59.1,52.7,59.1,52.7,59.3z M53.9,60.5c-0.2,0-0.7-0.5-0.8-0.7c0.2-0.2,0.3,0.1,0.6,0.2C53.9,60.1,54.4,60.4,53.9,60.5z
		 M51.9,56.7c0,0.3-0.1,0.4-0.3,0.7c-0.1,0.1-0.3,0.6-0.4,0.5c-0.5-0.1,0.2-0.7,0.4-0.9c0.1-0.1,0.1-0.3,0.2-0.3c0,0,0,0,0.1,0
		C51.8,56.7,51.8,56.7,51.9,56.7z M50.2,55.4C50.2,55.4,50.2,55.3,50.2,55.4c0-0.5,0.5-0.6,0.6-0.9c0.1,0,0.1,0,0.2,0.1
		C50.9,55,50.6,55.2,50.2,55.4z M50.9,51.8c0.1-0.1,0.4-0.3,0.6-0.1c0,0.2-0.2,0.2-0.3,0.3c-0.2,0.2-0.2,0.7-0.6,0.8
		C50.5,52.5,50.7,52,50.9,51.8z M50.5,56.7c-0.2-0.3,0.6-1.2,0.9-0.9C51.3,56.2,51,56.5,50.5,56.7z M49.8,44c0-0.2,0.1-0.2,0.2-0.2
		C50,44.1,49.9,44.2,49.8,44z M43.8,45.7c-0.1,0.2-0.2,0.3-0.2,0.5c-0.1,0.4,0,0.9-0.3,1.1c-0.4-0.6,0.2-1.5,0.5-2c0,0,0,0,0.1,0
		c0,0,0,0,0,0C44,45.3,43.8,45.6,43.8,45.7z M44.1,48.1c0.1,0.3,0,0.7-0.2,0.7C43.5,48.9,43.7,47.8,44.1,48.1z M45,48.2
		c-0.2,0.1-0.4,0.6-0.3,0.9c0,0.2,0.2,0.2,0.2,0.3c0,0.3-0.6,0.2-0.6-0.1c-0.1-0.6,0.4-1.5,0.7-2c0.1-0.2,0.1-0.4,0.3-0.5
		c0.5-0.2,0.1,0.5,0.1,0.9c0,0.2,0.2,0.3,0.1,0.4C45.3,48.3,45.2,48.2,45,48.2z M51.7,55c-0.1-0.3,0.2-0.6,0.4-0.4
		C52.1,54.8,52,55,51.7,55C51.7,55,51.7,55,51.7,55z M42.8,46.9c0,0.3-0.2,0.5-0.3,0.8c0,0.1,0.1,0.3-0.1,0.4
		C41.7,48.3,42.4,46.5,42.8,46.9z M43.2,43.9c0,0.4-0.3,0.7-0.4,1.1c-0.1,0.4-0.2,0.8-0.3,1.3c-0.4,0.1-0.8,0.6-0.8,1.1
		c0,0.2,0.1,0.4-0.1,0.6c-0.7-0.1-0.3-0.9,0-1.3c0.2-0.2,0.5-0.5,0.6-0.7c0,0,0-0.1,0-0.1c0.2-0.8,0.4-1.5,0.8-1.9
		C43,43.9,43.1,43.9,43.2,43.9z M43.2,48.5c-0.4,0.1-0.3-0.8,0-0.8C43.6,47.6,43.3,48.5,43.2,48.5z M44.2,47.6
		c-0.3,0-0.4-0.2-0.4-0.5c0-0.5,0.6-1.2,0.9-1.4c0.5,0.2-0.3,0.7-0.4,1.3C44.2,47.2,44.4,47.4,44.2,47.6z M48.1,42.8
		C48.2,42.1,48.6,43.1,48.1,42.8L48.1,42.8z M48.9,49.9c0.1,0.2,0.3,0.7,0,0.7C48.5,50.7,48.4,49.8,48.9,49.9z M49.2,45.9
		c0,0.1,0,0.1,0,0.2c0,0-0.2,0-0.2,0C48.9,45.8,49.1,45.8,49.2,45.9z M48.1,45c0,0-0.1,0-0.2,0c0-0.1,0-0.1,0.1-0.1
		C48.1,44.9,48.1,45,48.1,45z M47.2,44.2c0.1,0.2-0.1,0.3-0.2,0.3C46.9,44.4,47,44.2,47.2,44.2z M47.9,50c0,0.1,0.2,0.2,0.1,0.4
		c-0.8,0.4-0.6-1.1-0.1-1C48.1,49.6,47.9,49.8,47.9,50z M47.2,48.6c0,0.2-0.2,0.2-0.3,0.4c-0.1,0.2-0.2,0.6-0.2,0.9
		c0,0.2,0.1,0.3,0,0.5c-0.4,0.1-0.4-0.4-0.5-0.6c-0.3,0-0.3,0.2-0.6,0.2c-0.2,0-0.4-0.2-0.4-0.4c0-0.2,0.3-1.1,0.5-1.4
		c0.1-0.1,0.4-0.3,0.6-0.2c0.2,0.7-0.7,0.7-0.5,1.5c0.1,0.1,0.3,0.2,0.4,0.1c0.2,0,0.2-0.4,0.3-0.5C46.7,48.7,46.9,48.3,47.2,48.6z
		 M59.2,60.4c0-0.3,0.4-0.7,0.6-0.7c0.5-0.1,0,0.4-0.1,0.6c-0.1,0.2-0.1,0.4-0.3,0.4C59.3,60.7,59.2,60.6,59.2,60.4z M30.6,14.1
		c0,0.2-0.2,0.3-0.2,0.5c0,0.2,0.2,0.2,0.2,0.4C29.8,15.3,30,13.8,30.6,14.1z M15.7,30.1c-0.2,0.3-0.2,0.7-0.4,0.9
		c-0.5-0.4,0.3-1.7,0.9-1.4C16.1,29.9,15.8,29.9,15.7,30.1z M31.9,16.6c-0.3-0.3,0.1-0.9,0.5-0.8C32.9,15.9,32.5,16.9,31.9,16.6z
		 M15,29.5c-0.1-0.3,0.4-0.9,0.7-1.2c0,0,0.1,0,0.2,0.1c0,0.3-0.2,0.5-0.4,0.6C15.4,29.2,15.3,29.5,15,29.5z M55.1,20.2
		c0,0.2-0.1,0.3-0.3,0.3C54.6,20.4,54.9,20,55.1,20.2z M37.2,19.7c0,0-0.2,0-0.2,0C36.8,19.5,37.2,19.4,37.2,19.7z M36.1,15.7
		c-0.1-0.1,0-0.4,0.2-0.3C36.4,15.5,36.3,15.8,36.1,15.7z M29.3,20.1c0,0.2-0.3,0.3-0.4,0.2c0,0,0,0,0-0.1
		C28.8,19.9,29.3,19.9,29.3,20.1z M36.5,18.5c0,0.1,0,0.1,0,0.2c0,0-0.1,0-0.1,0C36.2,18.6,36.3,18.4,36.5,18.5z M35.2,18.6
		c0.1,0.1,0,0.3-0.2,0.3C34.9,18.8,35,18.5,35.2,18.6z M34.4,15.8c-0.1,0.2,0.1,0.7-0.2,0.8c-0.3-0.4-0.3-1-0.7-1.4
		c-0.4-0.4-1.6-0.7-1.9-0.1c0,0.2,0.1,0.2,0.1,0.4c0,0.1-0.2,0.3-0.3,0.4c-0.2,0.4-0.2,0.9-0.5,1.2c-0.3,0.3-0.7,0.4-0.6,0.8
		c0,0.3,0.3,0.4,0.6,0.6c0.2,0.2,0.3,0.4,0.6,0.5c0.8,0.3,1.3-0.5,1.9-0.6c0.1,0.1-0.1,0.3,0,0.4c0.7-0.2,1.2-1.5,1.3-2.4
		C34.7,16.1,34.6,15.9,34.4,15.8z M31.1,17.5c0.2,0,0.3,0.1,0.3,0.2C31.2,17.8,31,17.7,31.1,17.5z M31.5,18.4c0.1,0,0.2,0,0.2,0
		C31.7,18.4,31.4,18.4,31.5,18.4z M32.6,17.1c-0.2,0.1-0.9,0.3-1.1,0.1c-0.3-0.2-0.1-1.1,0.2-1.3c0.5-0.7,1.9-0.5,1.8,0.7
		C33.3,16.8,33,17,32.6,17.1z M15.2,27.8C15,28,15,28.3,14.7,28.3c-0.2-0.3,0.5-1.3,0.9-0.9C15.5,27.6,15.3,27.7,15.2,27.8z
		 M32,14.2c-0.1-0.2,0-0.6,0.2-0.6c0.3-0.1,0.6,0.2,0.8,0.4c-0.1,0.3-0.4,0-0.5,0C32.2,14,32.2,14.2,32,14.2z M67.5,26.4
		c0.1,0.2,0,0.4-0.2,0.4c0,0,0,0-0.1,0C67.2,26.6,67.3,26.3,67.5,26.4z M67.6,25.5c-0.3,0,0-0.4,0.1-0.1
		C67.7,25.4,67.6,25.4,67.6,25.5z M59.4,35c0,0.1,0,0.2-0.1,0.2C59,35.2,59.2,34.8,59.4,35z M67.1,24.3c0-0.2,0.2-0.2,0.3-0.1
		C67.4,24.4,67.2,24.4,67.1,24.3z M57.2,36.1C57.8,35.8,57.3,36.8,57.2,36.1L57.2,36.1z M57.2,35.3c0,0.3-0.5,0.4-0.5,0.1
		C56.7,35.2,57.1,35.1,57.2,35.3z M16.6,30.8c-0.1,0.3-0.3,0.4-0.4,0.7c-0.1,0.2,0,0.3-0.2,0.4C15.5,31.8,16.2,30.6,16.6,30.8z
		 M42.1,18.6c-0.1,0.2-0.1,0.6-0.3,0.6C41.3,19.3,41.7,18,42.1,18.6z M42.6,23.1c-0.1-0.1,0-0.3,0.2-0.2c0,0.1,0,0.1,0,0.2
		C42.7,23.1,42.7,23.2,42.6,23.1z M66.9,22.7c-0.1,0-0.1-0.1-0.1-0.1C67,22.6,67,22.7,66.9,22.7z M65.8,21.1
		C65.8,21.1,65.8,21.1,65.8,21.1C65.7,20.7,66.2,21.1,65.8,21.1z M66.6,21.7C66.4,22.1,66.4,21.4,66.6,21.7L66.6,21.7z M31.1,14.6
		c-0.2-0.3,0-0.9,0.3-0.9C31.4,13.9,31.3,14.5,31.1,14.6z M40.8,31.1c-0.2,0.1-0.5-0.2-0.5-0.3C40.3,30.5,40.9,30.8,40.8,31.1z
		 M39,30c-0.2,0-0.5-0.6-0.3-0.8C38.9,29.1,39.4,30,39,30z M38.5,20.3c0,0.2-0.3,0.2-0.4,0C38.1,20.1,38.5,20.1,38.5,20.3z
		 M39.8,28.9c-0.2-0.3-0.9-0.5-1-1c0-0.1,0.1-0.1,0.2-0.1c0.2,0.5,1.4,0.6,1.2,1.3c0,0.1-0.1,0.2-0.2,0.2
		C39.9,29.3,39.8,29,39.8,28.9z M38.6,21.3c0.1-0.3,0.7-0.3,0.9-0.1C39.4,21.5,38.7,21.5,38.6,21.3z M38.4,16.9
		c0-0.3,0.5-0.7,0.8-0.8c0.3-0.2,0.8-0.4,1.1-0.4c0.2,0,0.4,0,0.5,0.1c0.1,0.7-0.4,1.2-0.9,1.4c-0.3,0.1-0.8,0.3-1,0.2
		C38.7,17.4,38.4,17.1,38.4,16.9z M40.3,32c-0.2,0-0.4-0.1-0.4-0.3C40,31.5,40.4,31.7,40.3,32z M38.6,62.3c0,0.1-0.1,0.1-0.1,0.2
		C38.1,62.5,38.5,61.9,38.6,62.3z M16.1,24c-0.1-0.1,0.1-0.2,0.2-0.2c0,0,0,0.1,0,0.1C16.3,24,16.2,24,16.1,24z M14.1,24.2
		c-0.1-0.2,0.3-0.3,0.5-0.1C14.6,24.4,14.1,24.3,14.1,24.2z M16.7,24.9C16.6,25,16.6,25,16.7,24.9C16.3,24.9,16.7,24.6,16.7,24.9z
		 M14.6,27.2c-0.2-0.4,0.4-1,0.8-0.8c0,0.2-0.2,0.2-0.3,0.3C15,26.8,14.9,27.1,14.6,27.2z M39.4,22.1c0.6,0,1.2,0.2,1.4,0.7
		c-0.2,0.2-0.5-0.1-0.7-0.2C39.9,22.4,39.5,22.4,39.4,22.1C39.4,22.1,39.4,22.1,39.4,22.1z M33.8,33.9c0-0.3,0.7-0.6,0.9-0.3
		C34.5,33.8,34.1,34,33.8,33.9z M31.6,33.4c-0.1,0.3-0.3,0.5-0.5,0.7c-0.2,0.2-0.5,0.4-0.8,0.4c0-0.2,0.4-0.3,0.6-0.5
		C31.1,33.7,31.3,33.2,31.6,33.4z M35.4,34.6c-0.3,0.4-1,0.8-1.3,0.5c0.1-0.3,0.4-0.4,0.6-0.5c0.4-0.2,0.6-0.5,0.8-1
		c0,0,0,0,0.1-0.1C36,33.7,35.6,34.5,35.4,34.6z M38.4,30.5c0.1,0.2-0.2,0.6-0.3,0.7C37.6,31,38.2,30,38.4,30.5z M34.9,32.8
		c0-0.2,0.2-0.2,0.2,0C35.1,32.9,35,32.9,34.9,32.8z M33.2,32.9c-0.3-0.1-0.1-0.6-0.4-0.6c-0.1,0-0.2,0.1-0.3,0.1
		c-0.2-0.3,0.1-0.5,0.4-0.5C33,32,33.5,32.5,33.2,32.9z M33.9,32.9C33.9,32.9,33.9,32.8,33.9,32.9C33.8,32.2,34.5,32.9,33.9,32.9z
		 M39.3,23.2c0.3,0,1.6,0.2,1.3,0.8c-0.2,0-0.3-0.2-0.5-0.3C39.9,23.5,39.4,23.6,39.3,23.2z M41.3,28.2c0.1,0.2,0,0.7-0.2,0.9
		C40.9,28.9,41.1,28.2,41.3,28.2z M40.2,26.9c0.2,0.2,0.6,0.5,0.5,0.8c-0.3,0.1-0.3-0.2-0.5-0.3c-0.1-0.1-0.3-0.2-0.5-0.3
		c-0.2-0.1-0.4-0.1-0.5-0.3C39.5,26.4,40,26.7,40.2,26.9z M40.9,26.6c-0.3,0.1-0.6-0.3-0.9-0.4c-0.3-0.2-0.7-0.3-0.7-0.7
		c0.1,0,0.1-0.1,0.1-0.1c0.2,0.1,0.6,0.3,0.9,0.5C40.6,26.1,41,26.3,40.9,26.6z M40.3,24.6c0.2,0.1,0.7,0.4,0.7,0.6
		c-0.1,0.4-0.8-0.2-0.9-0.2c-0.2-0.2-0.8-0.4-0.8-0.6c0-0.1,0.1-0.2,0.1-0.2C39.6,24.1,40,24.4,40.3,24.6z M40.6,30.1
		c0-0.3,0.4-0.1,0.4,0C41,30.3,40.7,30.2,40.6,30.1z M37.8,90.2c-0.2,0.1-0.3-0.1-0.4-0.2C37.5,89.7,37.8,90,37.8,90.2z M40.4,90
		c0.1,0.1,0,0.3-0.2,0.3C40.1,90.2,40.2,89.9,40.4,90z M38.7,90c0,0.1,0,0.1,0,0.2c-0.1,0-0.2,0-0.2-0.2C38.6,90,38.6,90,38.7,90z
		 M36.8,90.2c-0.3,0-0.6-0.5-0.4-0.8C36.7,89.6,36.9,90,36.8,90.2z M30.5,88.7c-0.1,0-0.3,0-0.3-0.2C30.3,88.5,30.5,88.6,30.5,88.7z
		 M29,88.3c0.1,0,0.1,0.2,0,0.3c-0.1,0-0.1,0-0.2,0C28.8,88.4,28.9,88.3,29,88.3z M21,82.9C20.6,83.4,20.6,82.5,21,82.9L21,82.9z
		 M49.3,86.6c0,0.2,0,0.2-0.2,0.2C49,86.7,49.2,86.4,49.3,86.6z M23,14c0,0,0,0.1,0,0.1c0,0-0.1,0.1-0.2,0C22.6,14,22.9,13.8,23,14z
		 M42,90.3c0,0.1,0,0.1-0.1,0.2c0,0-0.1,0-0.1,0C41.6,90.2,41.9,90.1,42,90.3z M52.8,88.6c0,0.2-0.2,0.3-0.4,0.2c0,0,0,0,0-0.1
		C52.4,88.5,52.8,88.5,52.8,88.6z M54.5,87.4c0,0.2-0.1,0.3-0.3,0.3C54.1,87.4,54.4,87.2,54.5,87.4z M24,14.4
		C23.3,14.3,24.2,13.9,24,14.4L24,14.4z M34.1,67.7c0.1-0.2,0.4-0.3,0.5-0.5c0,0,0.1,0,0.1,0c0.2,0.3-0.1,0.4-0.3,0.6
		c-0.1,0.2-0.1,0.5-0.3,0.7C33.8,68.4,34,67.9,34.1,67.7z M31.1,67.6c0-0.2,0.4-0.3,0.4,0C31.4,67.8,31.1,67.8,31.1,67.6z
		 M36.1,67.3c-0.2,0.2-0.2,0.6-0.3,0.8C35.3,68,35.7,66.9,36.1,67.3z M37.1,67c-0.1,0-0.1,0-0.2-0.1c0-0.2,0.1-0.3,0.2-0.2
		C37.2,66.9,37.1,66.9,37.1,67z M30.1,68.9c0-0.2,0.4-0.3,0.4-0.1C30.6,69,30.2,69.2,30.1,68.9z M38.3,63.7c0.1,0,0.2,0,0.2,0.1
		C38.5,64.1,38,63.8,38.3,63.7z M47,87.8c-0.2,0-0.2-0.1-0.2-0.3C46.8,87,47.4,87.5,47,87.8z M24,72.1c0.1,0,0.1,0,0.1,0
		c0,0,0,0.1,0,0.1C24,72.3,24,72.2,24,72.1z M28.1,72.5c0,0.1,0,0.2-0.1,0.2C27.7,72.8,27.9,72.3,28.1,72.5z M23.1,70.3
		c0.1,0.2,0.1,0.6-0.1,0.7C22.7,71,22.7,70.1,23.1,70.3z M25.5,74.8c-0.2-0.1,0.1-0.3,0.2-0.2c0,0,0,0.1,0,0.1
		C25.6,74.7,25.6,74.8,25.5,74.8z M26.1,71.5c0.1-0.1,0.3-0.2,0.5-0.2c0.7,0,0.2,0.9-0.2,0.9C26.1,72.2,25.9,71.7,26.1,71.5z
		 M20.9,34.1c-0.2,0.4-0.4,0.9-0.4,1.7c-0.4,0-0.4-0.4-0.4-0.7C20.2,34.7,20.6,33.9,20.9,34.1z M37.3,12.4c0,0.5,0.5,0.9,0.9,1
		c0.5,0.1,1.2-0.4,1.3-0.9c0.1-0.7-0.7-1.1-1.3-0.9C37.6,11.7,37.3,12,37.3,12.4z M38.3,12c0.3,0,0.6,0.1,0.6,0.4
		c0,0.6-1.1,0.6-1.1,0C37.8,12.2,37.9,12.1,38.3,12z M34.9,10.8C35.1,10.2,35.4,11.2,34.9,10.8L34.9,10.8z M17.1,26.4
		c-0.1,0.1-0.2,0-0.2,0C16.9,26.2,17.2,26.2,17.1,26.4z M17,31.7c-0.1,0.3-0.1,0.6-0.3,0.8C16.2,32.4,16.7,31.4,17,31.7z M39.9,9.1
		c-0.1-0.3,0.1-0.5,0.5-0.6c0.4-0.1,0.7,0.2,0.7,0.6C41,9.6,39.9,9.6,39.9,9.1z M38.2,10.8c0.3,0,0.7,0.1,0.7,0.4
		C38.8,11.5,38.1,11.2,38.2,10.8z M58.1,32.8c-0.1,0-0.1,0-0.2-0.1c0-0.2,0.1-0.2,0.2-0.1C58.2,32.7,58.2,32.8,58.1,32.8z
		 M41.5,13.8c-0.3-0.3,0.3-0.7,0.4-0.4C42.1,13.6,41.8,13.8,41.5,13.8z M54.2,29.4c0.2-0.1,0.3,0.3,0.1,0.3
		C54.1,29.7,54.1,29.5,54.2,29.4z M53.8,28.5c0,0.2,0,0.3-0.1,0.4c-0.1,0-0.2,0-0.3,0C53.4,28.5,53.6,28.2,53.8,28.5z M57.5,32.5
		C56.9,32.4,57.7,31.9,57.5,32.5L57.5,32.5z M56.3,31.9c-0.1-0.2,0.2-0.4,0.3-0.2C56.6,31.8,56.5,31.9,56.3,31.9z M17.8,30.6
		c0,0.1,0,0.1-0.1,0.1c-0.1,0-0.1,0-0.1-0.1c0-0.1,0-0.1,0.1-0.1C17.8,30.5,17.8,30.5,17.8,30.6z M21.6,33
		C21.2,32.8,22,32.6,21.6,33L21.6,33z M14.6,15c-0.1,0.2-0.7,0.3-1,0.3C13.6,14.9,14.3,14.7,14.6,15z M54.1,21.3
		c0,0.2,0,0.3-0.1,0.3C53.6,21.6,53.9,21,54.1,21.3z M20.9,32.3c0,0.3-0.2,0.4-0.4,0.5C20.2,32.6,20.6,32,20.9,32.3z M14.6,13.7
		c-0.2,0.2-0.6,0.5-0.9,0.4C13.7,13.8,14.3,13.5,14.6,13.7z M13.6,13.3c-0.3-0.3,0.5-0.7,0.6-0.3C14,13.1,13.8,13.2,13.6,13.3z
		 M17.6,33c-0.1,0-0.2-0.1-0.2-0.2C17.4,32.3,18,32.7,17.6,33z M34.4,10.2c0,0.2-0.1,0.3-0.3,0.2C34,10.2,34.3,10.1,34.4,10.2z
		 M17.2,29.4c0-0.1,0.1-0.2,0.3-0.1c0,0,0,0,0,0.1C17.5,29.5,17.3,29.6,17.2,29.4z M22.1,16.6c-0.1,0-0.1,0-0.1,0
		C22,16.5,22.2,16.5,22.1,16.6z M18.5,33.4c-0.1,0-0.1,0.1-0.1,0.1C17.9,33.6,18.4,32.6,18.5,33.4z M43.1,14.3c0,0.2,0,0.3-0.1,0.3
		C42.6,14.7,42.8,13.9,43.1,14.3z"/>
</g>
</svg>
