<?xml version="1.0" encoding="utf-8"?>
<!-- Generator: Adobe Illustrator 22.1.0, SVG Export Plug-In . SVG Version: 6.00 Build 0)  -->
<svg version="1.1" id="Layer_1" xmlns="http://www.w3.org/2000/svg" xmlns:xlink="http://www.w3.org/1999/xlink" x="0px" y="0px"
	 viewBox="0 0 121.7 20.4" style="enable-background:new 0 0 121.7 20.4;" xml:space="preserve">
<style type="text/css">
	.st0{fill:#FFFFFF;}
</style>
<g>
	<g>
		<g>
			<g>
				<g>
					<rect x="27.6" y="1.3" class="st0" width="0.5" height="16.4"/>
					<rect x="27.4" y="1.1" class="st0" width="1" height="16.9"/>
				</g>
			</g>
		</g>
	</g>
	<g>
		<path class="st0" d="M118.6,12.9H118v-0.2h1.5v0.2h-0.6v1.8h-0.3V12.9z"/>
		<path class="st0" d="M121.4,13.8c0-0.3,0-0.6,0-0.9l0,0c-0.1,0.2-0.2,0.5-0.3,0.8l-0.4,1h-0.2l-0.3-1c-0.1-0.3-0.2-0.5-0.2-0.8
			l0,0c0,0.3,0,0.6,0,0.9l-0.1,0.9h-0.2l0.1-2h0.3l0.3,1c0.1,0.2,0.2,0.5,0.2,0.7l0,0c0.1-0.2,0.1-0.4,0.2-0.7l0.4-1h0.3l0.1,2h-0.3
			L121.4,13.8z"/>
	</g>
</g>
<g>
	<path class="st0" d="M0.6,15c0.6,0.4,2,1,3.5,1c2.8,0,3.6-1.8,3.6-3.1c0-2.2-2-3.2-4.1-3.2H2.4V8h1.2c1.6,0,3.6-0.8,3.6-2.7
		c0-1.3-0.8-2.4-2.8-2.4C3.1,2.9,1.9,3.5,1.2,4L0.6,2.4c0.9-0.6,2.5-1.2,4.2-1.2C8,1.1,9.4,3,9.4,5c0,1.7-1,3.1-3,3.8v0
		c2,0.4,3.6,1.9,3.6,4.1c0,2.6-2,4.8-5.8,4.8c-1.8,0-3.4-0.6-4.2-1.1L0.6,15z"/>
	<path class="st0" d="M12.7,4c-0.1,0.1-0.4,0.2-0.8,0.2c-0.8,0-1.4-0.6-1.4-1.4c0-0.9,0.6-1.5,1.5-1.5c0.3,0,0.6,0.1,0.7,0.1
		l-0.1,0.4c-0.1-0.1-0.3-0.1-0.6-0.1c-0.6,0-1,0.5-1,1.1c0,0.6,0.4,1.1,1,1.1c0.3,0,0.5-0.1,0.6-0.1L12.7,4z"/>
	<path class="st0" d="M15.7,3.4c0,0.3,0,0.6,0,0.8h-0.5l0-0.5h0c-0.1,0.2-0.4,0.5-0.9,0.5c-0.4,0-1-0.2-1-1.2V1.3h0.5v1.5
		c0,0.5,0.2,0.9,0.6,0.9c0.3,0,0.6-0.2,0.7-0.5c0-0.1,0-0.2,0-0.3V1.3h0.5V3.4z"/>
	<path class="st0" d="M17,3c0,0.1,0,0.1,0,0.2c0.1,0.4,0.4,0.6,0.8,0.6c0.5,0,0.9-0.4,0.9-1.1c0-0.6-0.3-1-0.8-1
		c-0.3,0-0.7,0.2-0.8,0.6c0,0.1,0,0.1,0,0.2V3z M16.5,0H17v1.8h0c0.2-0.3,0.5-0.5,1-0.5c0.7,0,1.2,0.6,1.2,1.4c0,1-0.6,1.5-1.3,1.5
		c-0.4,0-0.7-0.2-0.9-0.5h0l0,0.5h-0.4V0z"/>
	<path class="st0" d="M21.3,2.7c-0.6,0-1.2,0.1-1.2,0.6c0,0.3,0.2,0.5,0.5,0.5c0.4,0,0.6-0.2,0.7-0.5c0-0.1,0-0.1,0-0.2V2.7z
		 M21.8,3.5c0,0.2,0,0.5,0,0.7h-0.5l0-0.4h0c-0.2,0.2-0.5,0.4-0.9,0.4c-0.6,0-0.9-0.4-0.9-0.8c0-0.7,0.6-1,1.7-1V2.3
		c0-0.2-0.1-0.7-0.6-0.7c-0.3,0-0.5,0.1-0.7,0.2l-0.1-0.3c0.2-0.1,0.6-0.2,0.9-0.2c0.9,0,1.1,0.6,1.1,1.1V3.5z"/>
</g>
<g>
	<path class="st0" d="M42.3,7.8C42.1,7.9,41.4,8,40.5,8c-2.6,0-3.8-1.6-3.8-3.5c0-2.5,1.8-3.8,3.9-3.8c0.8,0,1.5,0.2,1.8,0.3
		l-0.4,1.5c-0.3-0.1-0.7-0.3-1.3-0.3c-1.1,0-2,0.6-2,2.1c0,1.3,0.8,2.1,2.1,2.1c0.5,0,1-0.1,1.3-0.2L42.3,7.8z"/>
	<path class="st0" d="M45.4,6.7c0.5,0,0.8-0.5,0.8-1.4c0-0.7-0.2-1.4-0.8-1.4c-0.6,0-0.8,0.7-0.8,1.4C44.5,6.1,44.8,6.7,45.4,6.7
		L45.4,6.7z M45.3,8.1c-1.5,0-2.7-1-2.7-2.7c0-1.6,1.1-2.7,2.8-2.7c1.6,0,2.7,1.1,2.7,2.6C48.1,7.2,46.8,8.1,45.3,8.1L45.3,8.1z"/>
	<path class="st0" d="M48.8,4.5c0-0.8,0-1.3,0-1.7h1.6l0.1,0.9h0c0.3-0.8,0.9-1,1.4-1c0.2,0,0.2,0,0.4,0v1.8c-0.1,0-0.3-0.1-0.5-0.1
		c-0.6,0-0.9,0.2-1,0.6c0,0.1,0,0.2,0,0.3v2.5h-1.9V4.5z"/>
	<path class="st0" d="M54.9,5.7c0,0.1,0,0.2,0,0.3c0.1,0.3,0.4,0.6,0.7,0.6c0.6,0,0.9-0.5,0.9-1.2c0-0.7-0.3-1.2-0.9-1.2
		c-0.4,0-0.7,0.3-0.8,0.7c0,0.1,0,0.2,0,0.2V5.7z M53,4.5c0-0.7,0-1.3,0-1.8h1.6l0.1,0.7h0c0.4-0.5,1-0.8,1.7-0.8
		c1.1,0,2.1,1,2.1,2.6c0,1.9-1.2,2.8-2.3,2.8c-0.6,0-1-0.2-1.2-0.5h0V10H53V4.5z"/>
	<path class="st0" d="M61.8,6.7c0.5,0,0.8-0.5,0.8-1.4c0-0.7-0.2-1.4-0.8-1.4c-0.6,0-0.8,0.7-0.8,1.4C60.9,6.1,61.2,6.7,61.8,6.7
		L61.8,6.7z M61.7,8.1c-1.5,0-2.7-1-2.7-2.7c0-1.6,1.1-2.7,2.8-2.7c1.6,0,2.7,1.1,2.7,2.6C64.5,7.2,63.2,8.1,61.7,8.1L61.7,8.1z"/>
	<path class="st0" d="M65.2,4.5c0-0.8,0-1.3,0-1.7h1.6l0.1,0.9h0c0.3-0.8,0.9-1,1.4-1c0.2,0,0.2,0,0.4,0v1.8c-0.1,0-0.3-0.1-0.5-0.1
		c-0.6,0-0.9,0.2-1,0.6c0,0.1,0,0.2,0,0.3v2.5h-1.9V4.5z"/>
	<path class="st0" d="M72,5.6c-0.8,0-1.2,0.2-1.2,0.7c0,0.3,0.2,0.5,0.5,0.5c0.3,0,0.6-0.2,0.7-0.5c0-0.1,0-0.2,0-0.3V5.6z
		 M73.9,6.7c0,0.5,0,1,0.1,1.3h-1.7l-0.1-0.5h0c-0.4,0.4-0.9,0.6-1.4,0.6c-1.1,0-1.7-0.8-1.7-1.6c0-1.4,1.2-2,3-2v0
		c0-0.2-0.2-0.4-0.8-0.4c-0.5,0-1.1,0.2-1.5,0.4l-0.3-1.2c0.3-0.2,1.1-0.5,2.1-0.5c1.8,0,2.4,1,2.4,2.3V6.7z"/>
	<path class="st0" d="M76.8,1.3v1.5h1.1v1.4h-1.1v1.5c0,0.6,0.1,0.9,0.6,0.9c0.2,0,0.3,0,0.5,0v1.4C77.6,8,77.2,8,76.7,8
		c-0.6,0-1-0.2-1.3-0.5c-0.3-0.3-0.5-0.8-0.5-1.6V4.2h-0.6V2.8h0.6v-1L76.8,1.3z"/>
	<path class="st0" d="M81.5,4.7c0-0.3-0.1-0.8-0.7-0.8c-0.6,0-0.8,0.5-0.8,0.8H81.5z M80,6c0.1,0.4,0.7,0.6,1.3,0.6
		c0.5,0,0.9-0.1,1.4-0.2L83,7.7C82.4,8,81.7,8,81.1,8c-1.8,0-2.8-1-2.8-2.6c0-1.2,0.8-2.7,2.7-2.7c1.7,0,2.4,1.2,2.4,2.6
		c0,0.3,0,0.6-0.1,0.7H80z"/>
	<path class="st0" d="M87.8,6.5c0.1,0,0.3,0,0.4,0c1.2,0,2.1-0.7,2.1-2.3c0-1.4-0.8-2-2-2c-0.3,0-0.5,0-0.6,0V6.5z M85.9,1
		c0.6-0.1,1.4-0.2,2.3-0.2c1.4,0,2.2,0.2,2.9,0.7c0.8,0.5,1.3,1.4,1.3,2.7c0,1.4-0.5,2.4-1.2,2.9C90.3,7.8,89.1,8,87.7,8
		c-0.9,0-1.5-0.1-1.9-0.1V1z"/>
	<path class="st0" d="M96.1,4.7c0-0.3-0.1-0.8-0.7-0.8c-0.6,0-0.8,0.5-0.8,0.8H96.1z M94.6,6c0.1,0.4,0.7,0.6,1.3,0.6
		c0.5,0,0.9-0.1,1.4-0.2l0.2,1.3C96.9,8,96.3,8,95.6,8c-1.8,0-2.8-1-2.8-2.6c0-1.2,0.8-2.7,2.7-2.7c1.7,0,2.4,1.2,2.4,2.6
		c0,0.3,0,0.6-0.1,0.7H94.6z"/>
	<path class="st0" d="M98.5,6.3c0.3,0.2,1,0.4,1.4,0.4c0.4,0,0.6-0.1,0.6-0.3c0-0.2-0.1-0.3-0.7-0.4c-1.1-0.4-1.5-1-1.5-1.6
		c0-1,0.9-1.8,2.2-1.8c0.6,0,1.2,0.1,1.5,0.3l-0.3,1.3c-0.2-0.1-0.7-0.3-1.1-0.3c-0.3,0-0.5,0.1-0.5,0.3c0,0.2,0.2,0.3,0.8,0.5
		c1,0.3,1.4,0.9,1.4,1.6c0,1-0.8,1.7-2.4,1.7c-0.7,0-1.4-0.2-1.8-0.4L98.5,6.3z"/>
	<path class="st0" d="M103,2.8h1.9v5.2H103V2.8z M103.9,2.2c-0.6,0-1-0.4-1-0.9c0-0.5,0.4-0.9,1-0.9c0.6,0,1,0.4,1,0.9
		C104.9,1.8,104.5,2.2,103.9,2.2L103.9,2.2z"/>
	<path class="st0" d="M109,4.9c0-0.1,0-0.2,0-0.2c-0.1-0.4-0.3-0.6-0.7-0.6c-0.5,0-0.8,0.4-0.8,1.3c0,0.7,0.3,1.2,0.8,1.2
		c0.3,0,0.6-0.2,0.7-0.5c0-0.1,0-0.3,0-0.4V4.9z M110.9,7.2c0,0.9-0.2,1.8-0.8,2.3c-0.6,0.5-1.4,0.6-2.2,0.6c-0.7,0-1.4-0.1-1.9-0.4
		l0.4-1.4c0.3,0.2,0.9,0.4,1.5,0.4c0.7,0,1.2-0.4,1.2-1.2V7.3h0c-0.3,0.4-0.8,0.6-1.3,0.6c-1.3,0-2.2-1-2.2-2.5c0-1.6,1-2.7,2.3-2.7
		c0.6,0,1.1,0.2,1.3,0.7h0l0.1-0.6h1.6c0,0.3,0,0.8,0,1.6V7.2z"/>
	<path class="st0" d="M111.9,4.5c0-0.7,0-1.3,0-1.8h1.6l0.1,0.7h0c0.2-0.3,0.7-0.8,1.6-0.8c1.2,0,1.9,0.8,1.9,2.2v3h-1.9V5.1
		c0-0.6-0.2-0.9-0.7-0.9c-0.4,0-0.5,0.3-0.6,0.5c0,0.1-0.1,0.2-0.1,0.4v2.9h-1.9V4.5z"/>
	<path class="st0" d="M38.9,16.5c0.1,0,0.3,0,0.5,0c0.6,0,1.2-0.3,1.2-0.9c0-0.6-0.5-0.8-1.3-0.8h-0.5V16.5z M38.9,13.5h0.4
		c0.8,0,1.2-0.3,1.2-0.7c0-0.4-0.3-0.7-1-0.7c-0.3,0-0.5,0-0.6,0V13.5z M37,10.9c0.4-0.1,1.4-0.2,2.2-0.2c1,0,1.6,0.1,2.2,0.3
		c0.6,0.3,1,0.8,1,1.5c0,0.6-0.3,1.2-1.2,1.5v0c0.9,0.2,1.4,0.9,1.4,1.7c0,0.7-0.3,1.2-0.8,1.6c-0.5,0.4-1.4,0.6-2.9,0.6
		c-0.9,0-1.5-0.1-1.9-0.1V10.9z"/>
	<path class="st0" d="M43.5,14.4c0-0.8,0-1.3,0-1.7H45l0.1,0.9h0c0.3-0.8,0.9-1,1.4-1c0.2,0,0.2,0,0.4,0v1.8c-0.1,0-0.3-0.1-0.5-0.1
		c-0.6,0-0.9,0.2-1,0.6c0,0.1,0,0.2,0,0.3v2.5h-1.9V14.4z"/>
	<path class="st0" d="M50.2,15.5c-0.8,0-1.2,0.2-1.2,0.7c0,0.3,0.2,0.5,0.5,0.5c0.3,0,0.6-0.2,0.7-0.5c0-0.1,0-0.2,0-0.3V15.5z
		 M52,16.6c0,0.5,0,1,0.1,1.3h-1.7l-0.1-0.5h0c-0.4,0.4-0.9,0.6-1.4,0.6c-1.1,0-1.7-0.8-1.7-1.6c0-1.4,1.2-2,3-2v0
		c0-0.2-0.2-0.4-0.8-0.4c-0.5,0-1.1,0.2-1.5,0.4L47.5,13c0.3-0.2,1.1-0.5,2.1-0.5c1.8,0,2.4,1,2.4,2.3V16.6z"/>
	<path class="st0" d="M53.1,14.4c0-0.7,0-1.3,0-1.8h1.6l0.1,0.7h0c0.2-0.3,0.7-0.8,1.6-0.8c1.2,0,1.9,0.8,1.9,2.2v3h-1.9V15
		c0-0.6-0.2-0.9-0.7-0.9c-0.4,0-0.5,0.3-0.6,0.5c0,0.1-0.1,0.2-0.1,0.4v2.9h-1.9V14.4z"/>
	<path class="st0" d="M62.6,14.9c0-0.1,0-0.2,0-0.2c-0.1-0.4-0.3-0.7-0.7-0.7c-0.6,0-0.9,0.6-0.9,1.2c0,0.8,0.4,1.2,0.9,1.2
		c0.4,0,0.7-0.3,0.7-0.6c0-0.1,0-0.2,0-0.3V14.9z M64.5,10.4v5.8c0,0.6,0,1.3,0,1.6h-1.7l-0.1-0.7h0c-0.3,0.6-1,0.8-1.6,0.8
		c-1.2,0-2.2-1-2.2-2.7c0-1.7,1.1-2.7,2.3-2.7c0.6,0,1,0.2,1.3,0.5h0v-2.7H64.5z"/>
	<path class="st0" d="M65.6,12.7h1.9v5.2h-1.9V12.7z M66.5,12.1c-0.6,0-1-0.4-1-0.9c0-0.5,0.4-0.9,1-0.9c0.6,0,1,0.4,1,0.9
		C67.5,11.7,67.1,12.1,66.5,12.1L66.5,12.1z"/>
	<path class="st0" d="M68.5,14.4c0-0.7,0-1.3,0-1.8h1.6l0.1,0.7h0c0.2-0.3,0.7-0.8,1.6-0.8c1.2,0,1.9,0.8,1.9,2.2v3h-1.9V15
		c0-0.6-0.2-0.9-0.7-0.9c-0.4,0-0.5,0.3-0.6,0.5c0,0.1-0.1,0.2-0.1,0.4v2.9h-1.9V14.4z"/>
	<path class="st0" d="M77.9,14.8c0-0.1,0-0.2,0-0.2c-0.1-0.4-0.3-0.6-0.7-0.6c-0.5,0-0.8,0.4-0.8,1.3c0,0.7,0.3,1.2,0.8,1.2
		c0.3,0,0.6-0.2,0.7-0.5c0-0.1,0-0.3,0-0.4V14.8z M79.8,17.1c0,0.9-0.2,1.8-0.8,2.3c-0.6,0.5-1.4,0.6-2.2,0.6
		c-0.7,0-1.4-0.1-1.9-0.4l0.4-1.4c0.3,0.2,0.9,0.4,1.5,0.4c0.7,0,1.2-0.4,1.2-1.2v-0.2h0c-0.3,0.4-0.8,0.6-1.3,0.6
		c-1.3,0-2.2-1-2.2-2.5c0-1.6,1-2.7,2.3-2.7c0.6,0,1.1,0.2,1.3,0.7h0l0.1-0.6h1.6c0,0.3,0,0.8,0,1.6V17.1z"/>
	<path class="st0" d="M86.3,14.8L86,13.5c-0.1-0.4-0.2-1-0.3-1.4h0c-0.1,0.4-0.2,1-0.3,1.4L85,14.8H86.3z M84.8,16.2l-0.4,1.6h-2
		l2.1-7.1H87l2.1,7.1h-2l-0.5-1.6H84.8z"/>
	<path class="st0" d="M92.8,14.8c0-0.1,0-0.2,0-0.2c-0.1-0.4-0.3-0.6-0.7-0.6c-0.5,0-0.8,0.4-0.8,1.3c0,0.7,0.3,1.2,0.8,1.2
		c0.3,0,0.6-0.2,0.7-0.5c0-0.1,0-0.3,0-0.4V14.8z M94.7,17.1c0,0.9-0.2,1.8-0.8,2.3c-0.6,0.5-1.4,0.6-2.2,0.6
		c-0.7,0-1.4-0.1-1.9-0.4l0.4-1.4c0.3,0.2,0.9,0.4,1.5,0.4c0.7,0,1.2-0.4,1.2-1.2v-0.2h0c-0.3,0.4-0.8,0.6-1.3,0.6
		c-1.3,0-2.2-1-2.2-2.5c0-1.6,1-2.7,2.3-2.7c0.6,0,1.1,0.2,1.3,0.7h0l0.1-0.6h1.6c0,0.3,0,0.8,0,1.6V17.1z"/>
	<path class="st0" d="M98.9,14.6c0-0.3-0.1-0.8-0.7-0.8c-0.6,0-0.8,0.5-0.8,0.8H98.9z M97.3,15.9c0.1,0.4,0.7,0.6,1.3,0.6
		c0.5,0,0.9-0.1,1.4-0.2l0.2,1.3c-0.6,0.2-1.3,0.3-1.9,0.3c-1.8,0-2.8-1-2.8-2.6c0-1.2,0.8-2.7,2.7-2.7c1.7,0,2.4,1.2,2.4,2.6
		c0,0.3,0,0.6-0.1,0.7H97.3z"/>
	<path class="st0" d="M101.3,14.4c0-0.7,0-1.3,0-1.8h1.6l0.1,0.7h0c0.2-0.3,0.7-0.8,1.6-0.8c1.2,0,1.9,0.8,1.9,2.2v3h-1.9V15
		c0-0.6-0.2-0.9-0.7-0.9c-0.4,0-0.5,0.3-0.6,0.5c0,0.1-0.1,0.2-0.1,0.4v2.9h-1.9V14.4z"/>
	<path class="st0" d="M111.5,17.7c-0.3,0.1-0.8,0.2-1.4,0.2c-1.7,0-2.8-1-2.8-2.6c0-1.5,1-2.7,3-2.7c0.4,0,0.8,0.1,1.2,0.2l-0.3,1.4
		c-0.2-0.1-0.4-0.1-0.8-0.1c-0.7,0-1.2,0.5-1.2,1.2c0,0.8,0.6,1.2,1.2,1.2c0.3,0,0.6,0,0.8-0.1L111.5,17.7z"/>
	<path class="st0" d="M113.9,12.7l0.6,2.3c0.1,0.3,0.2,0.7,0.2,0.9h0c0.1-0.3,0.1-0.6,0.2-0.9l0.5-2.3h2l-1.1,3.3
		c-0.8,2.2-1.3,2.9-1.8,3.4c-0.6,0.5-1.2,0.7-1.7,0.8l-0.4-1.6c0.2,0,0.4-0.1,0.7-0.2c0.2-0.1,0.5-0.3,0.6-0.5
		c0.1-0.1,0.1-0.2,0.1-0.2c0-0.1,0-0.1-0.1-0.3l-1.9-4.7H113.9z"/>
</g>
</svg>
